<?xml version="1.0" encoding="UTF-8" standalone="no"?>
<svg width="160px" height="140px" viewBox="-20 0 180 140" version="1.1" xmlns="http://www.w3.org/2000/svg" xmlns:xlink="http://www.w3.org/1999/xlink">
    <!-- Generator: Sketch 3.6.1 (26313) - http://www.bohemiancoding.com/sketch -->
    <title>how-it-works-05</title>
    <desc>Created with Sketch.</desc>
    <defs></defs>
    <g id="Final" stroke="none" stroke-width="1" fill="none" fill-rule="evenodd">
        <g id="ND-Hub-Option-2-Copy-2" transform="translate(-1149.000000, -860.000000)">
            <g id="Commitment" transform="translate(1157.000000, 869.000000)">
                <path d="M61,126 C94.137085,126 121,99.137085 121,66 C121,32.862915 94.137085,6 61,6 C27.862915,6 1,32.862915 1,66 C1,99.137085 27.862915,126 61,126 Z" id="Bg" fill="#DAE1E7"></path>
                <g id="Main" transform="translate(0.000000, 15.000000)">
                    <g id="Avatar" transform="translate(35.227500, 0.934783)">
                        <g id="Group-6" transform="translate(0.000000, 41.213222)" stroke="#2E3D49" stroke-width="2" fill="#F95C3C">
                            <path d="M23.3223203,14.5077175 C14.6906826,14.5077175 5.78611745,13.4191299 0,8.19118538 C1.51444154,6.42281546 4.58535075,2.95865432 6.86719989,2.19343243 L15.4175949,0.169239168 L31.1451664,0.169239168 L39.6823637,2.19343243 C41.0270248,2.64356296 42.2766088,3.293037 43.3835773,4.10970238 C44.1781498,4.68844163 45.9655188,7.48383741 46.5971021,8.229768 C40.8177758,13.4384212 31.9335843,14.5077175 23.3223203,14.5077175 Z" id="Fill-34"></path>
                        </g>
                        <g id="Face" transform="translate(8.772500, 0.065217)">
                            <path d="M9.5,36.557219 L9.5,34 L20.7894737,34 L20.7894737,36.514138 C20.7894737,37.5433011 20.6935145,40.1357758 22.9244834,41.163552 C23.1142601,41.2509795 26,42.4070658 26,42.4070658 C26,42.4070658 21.847102,46.115101 14.7251876,45.9972491 C7.60327326,45.8793972 4,42.4070657 4,42.4070657 C4,42.4070657 6.57937559,41.2885009 6.88904772,41.163552 C9.15252512,40.2502668 9.40973396,38.531311 9.5,36.557219 Z" id="Fill-48" stroke="#2E3D49" stroke-width="2" fill="#A49D88"></path>
                            <path d="M19.2997837,35.234572 C19.1848116,36.3723143 19.5354944,38.3981333 19.9053274,38.9998701 C19.0735495,39.0061928 16.197039,38.9219824 14.2787407,38.6809082 C12.1100253,38.4083639 11.0089762,37.8242188 11.0089762,37.8242188 C11.0089762,37.8242188 10.9467728,38.0803565 11.1498615,37.1535645 C11.2868332,36.5284966 11.2841501,36.0316112 11.2745155,35.5525784 C12.6939052,35.5412941 19.3187915,34.564706 19.2997837,35.234572 Z" id="Shadow" fill="#A49D88" opacity="0.370743937" style="mix-blend-mode: multiply;"></path>
                            <g>
                                <g id="Group-8" transform="translate(0.000000, 18.000000)" stroke="#2E3D49" stroke-width="2" fill="#A49D88">
                                    <path d="M0,5 C0,2.23833333 2.23833333,0 5,0 C7.76166667,0 10,2.23833333 10,5 C10,7.76166667 7.76166667,10 5,10 C2.23833333,10 0,7.76166667 0,5 L0,5 Z" id="Stroke-42" stroke-linecap="round" stroke-linejoin="round"></path>
                                    <path d="M20,5 C20,2.23833333 22.2383333,0 25,0 C27.7616667,0 30,2.23833333 30,5 C30,7.76166667 27.7616667,10 25,10 C22.2383333,10 20,7.76166667 20,5" id="Fill-44"></path>
                                </g>
                                <path d="M3,25.6442496 L3,12.3557504 C3,6.11008769 8.4,1 15,1 C21.6,1 27,6.11008769 27,12.3557504 L27,25.6442496 C27,31.8899123 21.6,37 15,37 C8.4,37 3,31.8899123 3,25.6442496 Z" id="Fill-54" stroke="#2E3D49" stroke-width="2" fill="#A49D88"></path>
                                <path d="M29,14.6081546 C29,6.6476662 22.6139461,-0.106792125 14.8092075,0.00127920804 C7.19610685,0.106476304 1,6.49015798 1,14.2781921 L1,18.7246377 L6.39235461,18.7246377 C9.65921855,18.7246377 12.7485355,17.2099145 14.78948,14.6087295 L18.2941176,9.91304348 L19.3275506,12.4039094 C20.9773281,16.533614 24.6278358,18.7246377 29,19 L29,14.6081546 Z" id="Fill-58" stroke="#2E3D49" stroke-width="2" fill="#525C65"></path>
                                <path d="M9,21.5 C9,20.6715 9.6715,20 10.5,20 C11.3285,20 12,20.6715 12,21.5 C12,22.3285 11.3285,23 10.5,23 C9.6715,23 9,22.3285 9,21.5" id="Fill-62" fill="#2E3D48"></path>
                                <path d="M18,21.5 C18,20.6715 18.6715,20 19.5,20 C20.3285,20 21,20.6715 21,21.5 C21,22.3285 20.3285,23 19.5,23 C18.6715,23 18,22.3285 18,21.5" id="Fill-64" fill="#2E3D48"></path>
                                <path d="M14.9884961,28.5 C11.6759613,28.5 11.4738272,26 10.8278107,26 C10.4198858,26 9.868901,26.5722857 10.028111,27.1524963 C10.6384158,29.3725801 12.6252233,31 14.9884961,31 C17.3512161,31 19.3385764,29.3725801 19.9483284,27.1524963 C20.1080912,26.5722857 19.5730051,26 19.1627438,26 C18.6208419,26 18.3522777,28.5 14.9884961,28.5 Z" id="Fill-66" fill="#2E3D48"></path>
                            </g>
                        </g>
                    </g>
                    <g id="Comp" transform="translate(31.895962, 50.657337)">
                        <path d="M0.0420780504,34.8149982 L54.2826186,34.8149982 L54.2826186,0.0343004909 L0.0420780504,0.0343004909 L0.0420780504,34.8149982 Z" id="Fill-23" fill="#FAFBFC"></path>
                        <path d="M0.0420780504,34.8149982 L54.2826186,34.8149982 L54.2826186,29.4641217 L0.0420780504,29.4641217 L0.0420780504,34.8149982 Z" id="Fill-23" fill="#DBE2E8"></path>
                        <path d="M0.0420780504,29.4641217 L54.2826186,29.4641217 L54.2826186,0.0343004909 L0.0420780504,0.0343004909 L0.0420780504,29.4641217 Z" id="Stroke-25" stroke="#2E3D49" stroke-width="2" stroke-linecap="round" stroke-linejoin="round"></path>
                        <path d="M0.0420780504,34.8149982 L54.2826186,34.8149982 L54.2826186,29.4641217 L0.0420780504,29.4641217 L0.0420780504,34.8149982 Z" id="Stroke-26" stroke="#2E3D49" stroke-width="2" stroke-linecap="round" stroke-linejoin="round"></path>
                        <path d="M29.8743753,14.7492111 C29.8743753,16.2267219 28.6600652,17.4246494 27.1623483,17.4246494 C25.6646314,17.4246494 24.4503213,16.2267219 24.4503213,14.7492111 C24.4503213,13.2717003 25.6646314,12.0737728 27.1623483,12.0737728 C28.6600652,12.0737728 29.8743753,13.2717003 29.8743753,14.7492111" id="Fill-27" fill="#FFFFFF"></path>
                        <path d="M31.80998,14.7492111 C31.80998,17.2812382 29.7290029,19.3341403 27.1623483,19.3341403 C24.5956937,19.3341403 22.5147166,17.2812382 22.5147166,14.7492111 C22.5147166,12.2171839 24.5956937,10.1642819 27.1623483,10.1642819 C29.7290029,10.1642819 31.80998,12.2171839 31.80998,14.7492111 L31.80998,14.7492111 Z" id="Stroke-28" stroke="#2E3D49" stroke-width="2" stroke-linecap="round" stroke-linejoin="round" fill="#02B3E4"></path>
                    </g>
                    <g id="Mug" transform="translate(89.670000, 68.733696)">
                        <path d="M0.865134183,16.7386396 L11.7132423,16.7386396 L11.7132423,0.686009818 L0.865134183,0.686009818 L0.865134183,16.7386396 Z" id="Fill-30" fill="#DFDFD1"></path>
                        <path d="M0.865134183,16.7386396 L11.7132423,16.7386396 L11.7132423,0.686009818 L0.865134183,0.686009818 L0.865134183,16.7386396 Z" id="Stroke-31" stroke="#2E3D49" stroke-width="2" stroke-linecap="round" stroke-linejoin="round"></path>
                        <path d="M11.7132423,4.69916725 L15.7812828,4.69916725 L15.7812828,11.387763 L11.8603197,11.387763" id="Stroke-32" stroke="#2E3D49" stroke-width="2" stroke-linecap="round" stroke-linejoin="round"></path>
                    </g>
                    <g id="Plant" transform="translate(19.215000, 56.908696)">
                        <g id="Shadow" transform="translate(2.135000, 0.000000)" opacity="0.258162313">
                            <path d="M5.65323944,17.1406725 C5.93792555,3.15761952 16.9597183,0.0384211496 16.9597183,0.0384211496 C16.9597183,0.0384211496 11.9037974,6.19160856 12.4501858,17.3050527 C7.87901474,17.0252709 7.52119825,17.4399116 5.65323944,17.1406725 Z" id="Path-175-Copy-2" fill="#7D97AD" style="mix-blend-mode: multiply;"></path>
                            <path d="M8.47985915,17.7418685 C8.70796947,11.312738 17.5393962,9.87859248 17.5393962,9.87859248 C17.5393962,9.87859248 13.4882408,12.707706 13.9260451,17.8174472 C10.2633051,17.6888091 9.97659764,17.8794527 8.47985915,17.7418685 Z" id="Path-175" fill="#7D97AD" style="mix-blend-mode: multiply;"></path>
                            <path d="M-9.23705556e-14,17.2075864 C0.249100352,8.91658737 9.89316901,7.06711496 9.89316901,7.06711496 C9.89316901,7.06711496 5.46923818,10.7155365 5.94732803,17.3050527 C1.94755339,17.1391611 1.63446396,17.3850148 -9.23705556e-14,17.2075864 Z" id="Path-175-Copy" fill="#7D97AD" style="mix-blend-mode: multiply;" transform="translate(4.946585, 12.186084) scale(-1, 1) translate(-4.946585, -12.186084) "></path>
                            <path d="M1.41330986,27.951463 L17.1484587,27.951463 L17.1484587,17.2497098 L1.41330986,17.2497098 L1.41330986,27.951463 Z" id="Fill-33-Copy" fill="#7D97AD" style="mix-blend-mode: multiply;"></path>
                            <path d="M1.41330986,27.951463 L17.1484587,27.951463 L17.1484587,17.2497098 L1.41330986,17.2497098 L1.41330986,27.951463 Z" id="Stroke-37-Copy" style="mix-blend-mode: multiply;"></path>
                            <path d="M0.380039191,21.394837 L18.1817293,21.394837 L18.1817293,17.2497098 L0.380039191,17.2497098 L0.380039191,21.394837 Z" id="Stroke-37-Copy" fill="#7D97AD" style="mix-blend-mode: multiply;"></path>
                        </g>
                        <g>
                            <path d="M5.65323944,17.1406725 C5.93792555,3.15761952 16.9597183,0.0384211496 16.9597183,0.0384211496 C16.9597183,0.0384211496 11.9037974,6.19160856 12.4501858,17.3050527 C7.87901474,17.0252709 7.52119825,17.4399116 5.65323944,17.1406725 Z" id="Path-175-Copy-2" stroke="#2E3D49" stroke-width="2" stroke-linejoin="round" fill="#15C26B"></path>
                            <path d="M8.47985915,17.7418685 C8.70796947,11.312738 17.5393962,9.87859248 17.5393962,9.87859248 C17.5393962,9.87859248 13.4882408,12.707706 13.9260451,17.8174472 C10.2633051,17.6888091 9.97659764,17.8794527 8.47985915,17.7418685 Z" id="Path-175" stroke="#2E3D49" stroke-width="2" stroke-linejoin="round" fill="#15C26B"></path>
                            <path d="M-8.52651283e-14,17.2075864 C0.249100352,8.91658737 9.89316901,7.06711496 9.89316901,7.06711496 C9.89316901,7.06711496 5.46923818,10.7155365 5.94732803,17.3050527 C1.94755339,17.1391611 1.63446396,17.3850148 -8.52651283e-14,17.2075864 Z" id="Path-175-Copy" stroke="#2E3D49" stroke-width="2" stroke-linejoin="round" fill="#15C26B" transform="translate(4.946585, 12.186084) scale(-1, 1) translate(-4.946585, -12.186084) "></path>
                            <path d="M1.41330986,27.951463 L17.1484587,27.951463 L17.1484587,17.2497098 L1.41330986,17.2497098 L1.41330986,27.951463 Z" id="Fill-33-Copy" fill="#F04546"></path>
                            <path d="M1.41330986,27.951463 L17.1484587,27.951463 L17.1484587,17.2497098 L1.41330986,17.2497098 L1.41330986,27.951463 Z" id="Stroke-37-Copy" stroke="#2E3D49" stroke-width="2" stroke-linecap="round" stroke-linejoin="round"></path>
                            <path d="M0.380039191,21.394837 L18.1817293,21.394837 L18.1817293,17.2497098 L0.380039191,17.2497098 L0.380039191,21.394837 Z" id="Stroke-37-Copy" stroke="#2E3D49" stroke-width="2" stroke-linecap="round" stroke-linejoin="round" fill="#F04546"></path>
                        </g>
                    </g>
                    <rect id="Desk" stroke="#2E3D49" stroke-width="2" stroke-linecap="round" stroke-linejoin="round" fill="#D8D8D8" x="0" y="84.6834239" width="121.695" height="5.31657609"></rect>
                    <g id="Clock" transform="translate(90.737500, 4.000000)">
                        <ellipse id="Oval-17-Copy" fill="#2E3D49" opacity="0.135086287" style="mix-blend-mode: multiply;" cx="15.3924604" cy="16.5115131" rx="14.208425" ry="14.1527255"></ellipse>
                        <ellipse id="Oval-17" stroke="#2E3D49" stroke-width="2" fill="#FAFBFC" cx="14.208425" cy="14.1527255" rx="14.208425" ry="14.1527255"></ellipse>
                        <path d="M14.208425,8.84545346 L14.208425,14.7424224" id="Line" stroke="#2E3D49" stroke-width="2" stroke-linecap="round" stroke-linejoin="round"></path>
                        <path d="M14.208425,0 L14.208425,2.35878759" id="Line-Copy-5" stroke="#2E3D49" stroke-width="2" stroke-linecap="round" stroke-linejoin="round"></path>
                        <path d="M28.41685,14.1527255 L26.0487792,14.1527255" id="Line-Copy-7" stroke="#2E3D49" stroke-width="2" stroke-linecap="round" stroke-linejoin="round"></path>
                        <path d="M2.36807083,14.1527255 L0,14.1527255" id="Line-Copy-8" stroke="#2E3D49" stroke-width="2" stroke-linecap="round" stroke-linejoin="round"></path>
                        <path d="M14.208425,25.9466635 L14.208425,28.3054511" id="Line-Copy-6" stroke="#2E3D49" stroke-width="2" stroke-linecap="round" stroke-linejoin="round"></path>
                        <path d="M17.7605313,16.5115131 L14.208425,14.7424224" id="Line-Copy-4" stroke="#2E3D49" stroke-width="2" stroke-linecap="round" stroke-linejoin="round"></path>
                    </g>
                </g>
                <g id="Elements" transform="translate(1.000000, 0.000000)" stroke-width="2">
                    <path d="M12.2241142,52.9218964 L0.403338973,47.2422394 L10.9361795,39.8584158 L12.2241142,52.9218964 L12.2241142,52.9218964 Z" id="Triangle-3" stroke="#2E3D49" stroke-linecap="round" stroke-linejoin="round" fill="#02CCBA"></path>
                    <ellipse id="Oval-376-Copy" stroke="#2E3D49" fill="#FFFFFF" cx="83.5027978" cy="120.5" rx="2.50279776" ry="2.5"></ellipse>
                    <ellipse id="Oval-376-Copy-2" stroke="#2E3D49" fill="#FFFFFF" cx="6.5" cy="29.4983232" rx="1.5" ry="1.49832322"></ellipse>
                    <g id="Spark" transform="translate(46.736097, 6.736097) rotate(15.000000) translate(-46.736097, -6.736097) translate(41.236097, 1.236097)" stroke="#02B3E4" stroke-linecap="round" stroke-linejoin="round">
                        <path d="M5.34499755,4.05675493e-13 L5.34499755,2.96944308" id="Line"></path>
                        <path d="M5.34499755,7.72055201 L5.34499755,10.6899951" id="Line-Copy-3"></path>
                        <path d="M10.6899951,5.34499755 L7.72055201,5.34499755" id="Line-Copy"></path>
                        <path d="M2.96944308,5.34499755 L8.19344592e-14,5.34499755" id="Line-Copy-2"></path>
                    </g>
                    <g id="Spark-Copy" transform="translate(45.900562, 124.900562) rotate(-23.000000) translate(-45.900562, -124.900562) translate(41.400562, 120.400562)" stroke="#15C26B" stroke-linecap="round" stroke-linejoin="round">
                        <path d="M4.37317981,5.7620575e-13 L4.37317981,2.42954434" id="Line"></path>
                        <path d="M4.37317981,6.31681528 L4.37317981,8.74635962" id="Line-Copy-3"></path>
                        <path d="M8.74635962,4.37317981 L6.31681528,4.37317981" id="Line-Copy"></path>
                        <path d="M2.42954434,4.37317981 L5.70876679e-13,4.37317981" id="Line-Copy-2"></path>
                    </g>
                    <g id="Spark-Copy-2" transform="translate(116.216915, 67.512411) rotate(13.000000) translate(-116.216915, -67.512411) translate(110.216915, 61.012411)" stroke="#FFAE0C" stroke-linecap="round" stroke-linejoin="round">
                        <path d="M5.98468603,0.349706326 L5.98468603,3.58909878" id="Line"></path>
                        <path d="M5.98468603,8.7721267 L5.98468603,12.0115192" id="Line-Copy-3"></path>
                        <path d="M11.8155924,6.18061274 L8.57619999,6.18061274" id="Line-Copy"></path>
                        <path d="M3.39317206,6.18061274 L0.153779611,6.18061274" id="Line-Copy-2"></path>
                    </g>
                </g>
            </g>
        </g>
    </g>
</svg>
