<?xml version="1.0" encoding="UTF-8" standalone="no"?>
<svg width="160px" height="140px" viewBox="0 0 160 140" version="1.1" xmlns="http://www.w3.org/2000/svg" xmlns:xlink="http://www.w3.org/1999/xlink">
    <!-- Generator: Sketch 3.6.1 (26313) - http://www.bohemiancoding.com/sketch -->
    <title>how-it-works-03</title>
    <desc>Created with Sketch.</desc>
    <defs></defs>
    <g id="Final" stroke="none" stroke-width="1" fill="none" fill-rule="evenodd">
        <g id="ND-Hub-Option-2-Copy-2" transform="translate(-649.000000, -860.000000)">
            <g id="Community" transform="translate(664.000000, 870.000000)">
                <path d="M64,125 C97.137085,125 124,98.137085 124,65 C124,31.862915 97.137085,5 64,5 C30.862915,5 4,31.862915 4,65 C4,98.137085 30.862915,125 64,125 Z" id="Bg" fill="#DAE1E7"></path>
                <g id="Avatars" transform="translate(0.000000, 23.000000)">
                    <g id="3" transform="translate(81.000000, 14.000000)">
                        <g id="Body" transform="translate(0.000000, 34.833333)">
                            <path d="M24.1567508,23.3333333 C14.7874404,23.3333333 6.28060777,19.8452015 0,14.1734991 C1.643868,12.2550266 3.81849158,10.8039638 6.29535098,9.9737884 L15.5764757,7.77777778 L32.6481491,7.77777778 L41.9149481,9.9737884 C43.374526,10.4621269 44.7309013,11.1667295 45.932473,12.052715 C46.7949508,12.6805787 47.576341,13.4061101 48.2619003,14.2153567 C41.9886642,19.8661303 33.5039464,23.3333333 24.1567508,23.3333333 Z" id="Fill-34" stroke="#2E3D49" stroke-width="2" fill="#02B3E4"></path>
                            <path d="M19.1383398,2.60457489 L19.1383398,0 L29.9556623,0 L29.9556623,2.56069607 C29.9556623,3.60891776 29.8637163,6.24940126 32.0013811,7.29621039 C32.1832209,7.38525686 34.9482726,8.56275218 34.9482726,8.56275218 C34.9482726,8.56275218 30.9690582,12.3394548 24.1449983,12.2194204 C17.3209384,12.099386 13.8683622,8.56275209 13.8683622,8.56275209 C13.8683622,8.56275209 16.3398625,7.42347315 16.6365834,7.29621039 C18.8053971,6.36601248 19.0518489,4.6152242 19.1383398,2.60457489 Z" id="Fill-48" stroke="#2E3D49" stroke-width="2" fill="#F4F4EB"></path>
                            <path d="M21.1589966,2.93760173 L27.9486694,2.93760173 C27.9486694,2.93760173 27.8586426,4.5339152 28.4491577,6.13022868 C26.4629517,6.13022868 24.4989651,5.71161665 23.4893188,5.51658122 C20.838829,5.00458065 20.9715576,4.62906901 20.9715576,4.62906901 L21.1589966,2.93760173 Z" id="Path-182" fill="#E6E6DE" style="mix-blend-mode: multiply;"></path>
                        </g>
                        <g id="Face" transform="translate(8.000000, 0.000000)">
                            <path d="M0.321017296,22.5 C0.321017296,19.7383333 2.55604254,17.5 5.31362767,17.5 C8.07121281,17.5 10.3062381,19.7383333 10.3062381,22.5 C10.3062381,25.2616667 8.07121281,27.5 5.31362767,27.5 C2.55604254,27.5 0.321017296,25.2616667 0.321017296,22.5 L0.321017296,22.5 Z" id="Stroke-42" stroke="#2E3D49" stroke-width="2" stroke-linecap="round" stroke-linejoin="round" fill="#F4F4EB"></path>
                            <path d="M21.9556623,22.5 C21.9556623,19.7383333 24.1906875,17.5 26.9482726,17.5 C29.7058578,17.5 31.940883,19.7383333 31.940883,22.5 C31.940883,25.2616667 29.7058578,27.5 26.9482726,27.5 C24.1906875,27.5 21.9556623,25.2616667 21.9556623,22.5" id="Fill-44" stroke="#2E3D49" stroke-width="2" fill="#F4F4EB"></path>
                            <path d="M3.64942421,26.7672912 L3.64942421,13.2327088 C3.64942421,6.87138561 9.26611089,1.66666667 16.1309502,1.66666667 C22.9957894,1.66666667 28.6124761,6.87138561 28.6124761,13.2327088 L28.6124761,26.7672912 C28.6124761,33.1286144 22.9957894,38.3333333 16.1309502,38.3333333 C9.26611089,38.3333333 3.64942421,33.1286144 3.64942421,26.7672912 Z" id="Fill-54" stroke="#2E3D49" stroke-width="2" fill="#F4F4EB"></path>
                            <path d="M30.2766796,14.7362963 C30.2766796,6.70597906 23.8241517,-0.107728898 15.9381716,0.00129042917 C8.24582439,0.107410306 1.98522075,6.54708919 1.98522075,14.4034394 L1.98522075,18.8888889 L7.4337057,18.8888889 C10.7345752,18.8888889 13.8560497,17.3608786 15.9182388,14.7368762 L19.4593571,10 L20.5035472,12.5127157 C22.1704977,16.6786457 25.8590045,18.8888889 30.2766796,19.1666667 L30.2766796,14.7362963 Z" id="Fill-58" stroke="#2E3D49" stroke-width="2" fill="#988D73"></path>
                            <path d="M9.47413632,22.5 C9.47413632,21.5794444 10.2191447,20.8333333 11.1383398,20.8333333 C12.0575348,20.8333333 12.8025432,21.5794444 12.8025432,22.5 C12.8025432,23.4205556 12.0575348,24.1666667 11.1383398,24.1666667 C10.2191447,24.1666667 9.47413632,23.4205556 9.47413632,22.5" id="Fill-62" fill="#2E3D48"></path>
                            <path d="M19.4593571,22.5 C19.4593571,21.5794444 20.2043655,20.8333333 21.1235605,20.8333333 C22.0427556,20.8333333 22.787764,21.5794444 22.787764,22.5 C22.787764,23.4205556 22.0427556,24.1666667 21.1235605,24.1666667 C20.2043655,24.1666667 19.4593571,23.4205556 19.4593571,22.5" id="Fill-64" fill="#2E3D48"></path>
                            <path d="M16.1311269,30 C12.8185921,30 12.616458,27.5 11.9704415,27.5 C11.5625166,27.5 11.0115318,28.0722857 11.1707418,28.6524963 C11.7810466,30.8725801 13.7678542,32.5 16.1311269,32.5 C18.4938469,32.5 20.4812072,30.8725801 21.0909593,28.6524963 C21.250722,28.0722857 20.7156359,27.5 20.3053746,27.5 C19.7634727,27.5 19.4949085,30 16.1311269,30 Z" id="Fill-66" fill="#2E3D48"></path>
                        </g>
                    </g>
                    <g id="2" transform="translate(0.000000, 14.000000)">
                        <g id="Body" transform="translate(0.000000, 34.833333)" stroke="#2E3D49" stroke-width="2">
                            <path d="M24.1567508,23.3333333 C14.7874404,23.3333333 6.28060777,19.8452015 0,14.1734991 C1.643868,12.2550266 3.81849158,10.8039638 6.29535098,9.9737884 L15.5764757,7.77777778 L32.6481491,7.77777778 L41.9149481,9.9737884 C43.374526,10.4621269 44.7309013,11.1667295 45.932473,12.052715 C46.7949508,12.6805787 47.576341,13.4061101 48.2619003,14.2153567 C41.9886642,19.8661303 33.5039464,23.3333333 24.1567508,23.3333333 Z" id="Fill-34" fill="#02CCBA"></path>
                            <path d="M19.1383398,2.60457489 L19.1383398,0 L29.9556623,0 L29.9556623,2.56069607 C29.9556623,3.60891776 29.8637163,6.24940126 32.0013811,7.29621039 C32.1832209,7.38525686 34.9482726,8.56275218 34.9482726,8.56275218 C34.9482726,8.56275218 30.9690582,12.3394548 24.1449983,12.2194204 C17.3209384,12.099386 13.8683622,8.56275209 13.8683622,8.56275209 C13.8683622,8.56275209 16.3398625,7.42347315 16.6365834,7.29621039 C18.8053971,6.36601248 19.0518489,4.6152242 19.1383398,2.60457489 Z" id="Fill-48" fill="#A49D88"></path>
                        </g>
                        <path d="M27.9805298,37.234572 C27.881958,38.3723143 28.1826172,40.3981333 28.4996948,40.9998701 C27.7865671,41.0061928 25.3203802,40.9219824 23.6757201,40.6809082 C21.816364,40.4083639 20.8723755,39.8242188 20.8723755,39.8242188 C20.8723755,39.8242188 20.8190451,40.0803565 20.9931641,39.1535645 C21.1105972,38.5284966 21.1082969,38.0316112 21.1000366,37.5525784 C22.3169556,37.5412941 27.9968262,36.564706 27.9805298,37.234572 Z" id="Shadow" fill="#A49D88" opacity="0.370743937" style="mix-blend-mode: multiply;"></path>
                        <g id="Face" transform="translate(8.000000, 0.000000)">
                            <path d="M0.321017296,22.5 C0.321017296,19.7383333 2.55604254,17.5 5.31362767,17.5 C8.07121281,17.5 10.3062381,19.7383333 10.3062381,22.5 C10.3062381,25.2616667 8.07121281,27.5 5.31362767,27.5 C2.55604254,27.5 0.321017296,25.2616667 0.321017296,22.5 L0.321017296,22.5 Z" id="Stroke-42" stroke="#2E3D49" stroke-width="2" stroke-linecap="round" stroke-linejoin="round" fill="#A49D88"></path>
                            <path d="M21.9556623,22.5 C21.9556623,19.7383333 24.1906875,17.5 26.9482726,17.5 C29.7058578,17.5 31.940883,19.7383333 31.940883,22.5 C31.940883,25.2616667 29.7058578,27.5 26.9482726,27.5 C24.1906875,27.5 21.9556623,25.2616667 21.9556623,22.5" id="Fill-44" stroke="#2E3D49" stroke-width="2" fill="#A49D88"></path>
                            <path d="M3.64942421,26.7672912 L3.64942421,13.2327088 C3.64942421,6.87138561 9.26611089,1.66666667 16.1309502,1.66666667 C22.9957894,1.66666667 28.6124761,6.87138561 28.6124761,13.2327088 L28.6124761,26.7672912 C28.6124761,33.1286144 22.9957894,38.3333333 16.1309502,38.3333333 C9.26611089,38.3333333 3.64942421,33.1286144 3.64942421,26.7672912 Z" id="Fill-54" stroke="#2E3D49" stroke-width="2" fill="#A49D88"></path>
                            <path d="M30.2766796,14.7362963 C30.2766796,6.70597906 23.8241517,-0.107728898 15.9381716,0.00129042917 C8.24582439,0.107410306 1.98522075,6.54708919 1.98522075,14.4034394 L1.98522075,18.8888889 L7.4337057,18.8888889 C10.7345752,18.8888889 13.8560497,17.3608786 15.9182388,14.7368762 L19.4593571,10 L20.5035472,12.5127157 C22.1704977,16.6786457 25.8590045,18.8888889 30.2766796,19.1666667 L30.2766796,14.7362963 Z" id="Fill-58" stroke="#2E3D49" stroke-width="2" fill="#525C65"></path>
                            <path d="M9.47413632,22.5 C9.47413632,21.5794444 10.2191447,20.8333333 11.1383398,20.8333333 C12.0575348,20.8333333 12.8025432,21.5794444 12.8025432,22.5 C12.8025432,23.4205556 12.0575348,24.1666667 11.1383398,24.1666667 C10.2191447,24.1666667 9.47413632,23.4205556 9.47413632,22.5" id="Fill-62" fill="#2E3D48"></path>
                            <path d="M19.4593571,22.5 C19.4593571,21.5794444 20.2043655,20.8333333 21.1235605,20.8333333 C22.0427556,20.8333333 22.787764,21.5794444 22.787764,22.5 C22.787764,23.4205556 22.0427556,24.1666667 21.1235605,24.1666667 C20.2043655,24.1666667 19.4593571,23.4205556 19.4593571,22.5" id="Fill-64" fill="#2E3D48"></path>
                            <path d="M16.1311269,30 C12.8185921,30 12.616458,27.5 11.9704415,27.5 C11.5625166,27.5 11.0115318,28.0722857 11.1707418,28.6524963 C11.7810466,30.8725801 13.7678542,32.5 16.1311269,32.5 C18.4938469,32.5 20.4812072,30.8725801 21.0909593,28.6524963 C21.250722,28.0722857 20.7156359,27.5 20.3053746,27.5 C19.7634727,27.5 19.4949085,30 16.1311269,30 Z" id="Fill-66" fill="#2E3D48"></path>
                        </g>
                    </g>
                    <g id="1" transform="translate(28.000000, 0.000000)">
                        <path d="M41.0320758,82.3333333 C29.3839927,82.3333333 18.8081564,77.3253726 11,69.1824285 C13.0436841,66.4280501 15.7472125,64.3447385 18.8264854,63.1528438 L30.3649346,60 L51.5887238,60 L63.1093631,63.1528438 C64.9239346,63.8539583 66.6102031,64.8655664 68.1040171,66.1375884 C69.1762639,67.0390213 70.1477012,68.0806772 71,69.242524 C63.2010081,77.3554204 52.6526653,82.3333333 41.0320758,82.3333333 Z" id="Fill-34" fill-opacity="0.230000004" fill="#333333" style="mix-blend-mode: multiply;"></path>
                        <path d="M7.93383789,35.9707881 C7.93383789,16.1609899 20.7718825,0.0997185416 36.6024937,0.0997185416 C52.4342075,0.0997185416 65.2711495,16.1609899 65.2711495,35.9707881 C65.2711495,47.2634492 61.09986,57.3376149 54.5810488,63.9121094 L18.6162201,63.9053835 C12.1018194,57.3308891 7.93383789,47.2589653 7.93383789,35.9707881 Z" id="Hair" fill="#ECC81A"></path>
                        <g id="Body" transform="translate(0.000000, 49.166667)">
                            <path d="M36.2351262,35 C22.1811605,35 9.42091165,29.7678022 0,21.2602487 C2.46580199,18.3825399 5.72773737,16.2059457 9.44302647,14.9606826 L23.3647135,11.6666667 L48.9722236,11.6666667 L62.8724221,14.9606826 C65.0617889,15.6931903 67.096352,16.7500942 68.8987095,18.0790725 C70.1924263,19.0208681 71.3645115,20.1091652 72.3928505,21.3230351 C62.9829962,29.7991954 50.2559196,35 36.2351262,35 Z" id="Fill-34" stroke="#2E3D49" stroke-width="2" fill="#F95C3C"></path>
                            <path d="M29.1235605,3.90686234 L29.1235605,0 L44.9334934,0 L44.9334934,3.84104411 C44.9334934,5.41337665 44.7955744,9.37410189 48.0020717,10.9443156 C48.2748313,11.0778853 52.422409,12.8441283 52.422409,12.8441283 C52.422409,12.8441283 46.4535873,18.5091822 36.2174975,18.3291306 C25.9814076,18.149079 20.8025432,12.8441281 20.8025432,12.8441281 C20.8025432,12.8441281 24.5097937,11.1352097 24.9548751,10.9443156 C28.2080956,9.54901873 29.1829962,7.31203192 29.1235605,3.90686234 Z" id="Fill-48" stroke="#2E3D49" stroke-width="2" fill="#FFFFFF"></path>
                            <path d="M31.1386108,2.71577962 C34.6403198,3.75561523 38.5631714,4.03035482 42.9273682,2.61385091 C42.9143677,5.04713949 42.9386597,5.50398763 43.1768799,7.27290853 C41.2475586,7.27290853 39.5371094,7.55318197 36.1582031,7.07942708 C32.7792969,6.6056722 31.105896,5.40694173 31.105896,5.40694173 C31.105896,5.40694173 31.2091675,4.2617391 31.1386108,2.71577962 Z" id="Path-183" fill-opacity="0.6" fill="#E7E7D8" style="mix-blend-mode: multiply;"></path>
                        </g>
                        <g id="Face" transform="translate(7.000000, 0.000000)">
                            <path d="M7.96501151,28.7361706 C7.96501151,28.839725 7.95065538,28.9406905 7.95065538,29.0468337 C7.95065538,40.4844151 18.3004135,51.7577099 29.8323038,51.7577099 C41.3641941,51.7577099 51.7139522,40.4844151 51.7139522,29.0468337 C51.7139522,28.8138364 51.68524,28.5886056 51.6774093,28.3594915 C44.2393924,26.4432675 37.4234914,20.5761848 35.6424863,13.1449692 C35.324103,11.8165199 35.1346642,10.438085 35.0879537,9.02329974 C34.521539,18.9567537 22.4438245,27.1207222 7.96501151,28.7361706 Z" id="Stroke-11" stroke="#2E3D49" stroke-width="2" stroke-linecap="round" stroke-linejoin="round" fill="#FFFFFF"></path>
                            <path d="M11.6162201,62.9933703 C5.10181938,56.5128491 0.933837891,46.5848895 0.933837891,35.4580611 C0.933837891,15.9314164 13.7718825,0.0997185416 29.6024937,0.0997185416 C45.4342075,0.0997185416 58.2711495,15.9314164 58.2711495,35.4580611 C58.2711495,46.5893093 54.09986,56.5194788 47.5810488,63" id="Stroke-13" stroke="#2E3D49" stroke-width="2" stroke-linecap="round" stroke-linejoin="round"></path>
                            <path d="M18.7951536,31.1666667 C18.7951536,29.7858333 19.9126662,28.6666667 21.2914588,28.6666667 C22.6702514,28.6666667 23.787764,29.7858333 23.787764,31.1666667 C23.787764,32.5475 22.6702514,33.6666667 21.2914588,33.6666667 C19.9126662,33.6666667 18.7951536,32.5475 18.7951536,31.1666667" id="Fill-62" fill="#2E3D48"></path>
                            <path d="M35.4371882,31.1666667 C35.4371882,29.7858333 36.5547008,28.6666667 37.9334934,28.6666667 C39.312286,28.6666667 40.4297986,29.7858333 40.4297986,31.1666667 C40.4297986,32.5475 39.312286,33.6666667 37.9334934,33.6666667 C36.5547008,33.6666667 35.4371882,32.5475 35.4371882,31.1666667" id="Fill-64" fill="#2E3D48"></path>
                            <path d="M23.4897917,37.8333333 C22.606674,37.8333333 21.9333486,38.691762 22.1721635,39.5620778 C23.0876208,42.8922035 26.0678321,45.3333333 29.6127412,45.3333333 C33.1568212,45.3333333 36.1378617,42.8922035 37.0524897,39.5620778 C37.2921339,38.691762 36.6188085,37.8333333 35.7356907,37.8333333 L23.4897917,37.8333333 Z" id="Fill-66" fill="#2E3D48"></path>
                            <path d="M34.8912354,14.1298828 C30.3519287,22.3927002 22.6248779,27.3808594 9.05773926,29.6248779 C8.99914551,31.4443359 8.97509766,30.0078125 9.05773926,30.3695068 C27.6890863,28.3875732 35.8417969,16.6098633 35.8417969,16.6098633 C35.8417969,16.6098633 35.3470459,15.7780762 34.8912354,14.1298828 Z" id="Path-184" fill-opacity="0.770000041" fill="#E7E7D8" style="mix-blend-mode: multiply;"></path>
                        </g>
                    </g>
                </g>
                <g id="Elements" transform="translate(23.000000, 0.000000)" stroke-width="2">
                    <circle id="Oval-5-Copy-3" stroke="#2E3D49" fill="#FFFFFF" cx="59" cy="8" r="2"></circle>
                    <circle id="Oval-5-Copy-4" stroke="#2E3D49" fill="#FFFFFF" cx="14" cy="118" r="3"></circle>
                    <g id="Spark" transform="translate(73.762096, 118.762096) rotate(-28.000000) translate(-73.762096, -118.762096) translate(68.762096, 113.762096)" stroke="#FFAE0C" stroke-linecap="round" stroke-linejoin="round">
                        <path d="M5,-1.42108547e-13 L5,2.77777778" id="Line"></path>
                        <path d="M5,7.22222222 L5,10" id="Line-Copy-3"></path>
                        <path d="M10,5 L7.22222222,5" id="Line-Copy"></path>
                        <path d="M2.77777778,5 L-2.6503244e-12,5" id="Line-Copy-2"></path>
                    </g>
                    <g id="Spark" transform="translate(92.945727, 18.945727) rotate(-6.000000) translate(-92.945727, -18.945727) translate(88.445727, 14.445727)" stroke="#15C26B" stroke-linecap="round" stroke-linejoin="round">
                        <path d="M4.31888775,4.98046049e-13 L4.31888775,2.39938208" id="Line"></path>
                        <path d="M4.31888775,6.23839341 L4.31888775,8.63777549" id="Line-Copy-3"></path>
                        <path d="M8.63777549,4.31888775 L6.23839341,4.31888775" id="Line-Copy"></path>
                        <path d="M2.39938208,4.31888775 L-8.40660874e-13,4.31888775" id="Line-Copy-2"></path>
                    </g>
                    <g id="Spark" transform="translate(9.998705, 10.150987) rotate(15.000000) translate(-9.998705, -10.150987) translate(1.998705, 2.150987)" stroke="#02B3E4" stroke-linecap="round" stroke-linejoin="round">
                        <path d="M7.90602864,6.17284002e-14 L7.90602864,4.39223813" id="Line"></path>
                        <path d="M7.90602864,11.4198191 L7.90602864,15.8120573" id="Line-Copy-3"></path>
                        <path d="M15.8120573,7.90602864 L11.4198191,7.90602864" id="Line-Copy"></path>
                        <path d="M4.39223813,7.90602864 L-4.54303262e-13,7.90602864" id="Line-Copy-2"></path>
                    </g>
                </g>
            </g>
        </g>
    </g>
</svg>