<svg xmlns="http://www.w3.org/2000/svg" width="19" height="22" viewBox="0 0 19 22">
  <path fill="#888" fill-rule="evenodd" d="M17.598 7.093c-.713 0-1.29.588-1.29 1.313v5.13c0 .724.577 1.312 1.29 1.312.714 0 1.292-.588 1.292-1.313v-5.13c0-.724-.578-1.312-1.292-1.312zm-15.578 0c-.713 0-1.29.588-1.29 1.313v5.13c0 .724.577 1.312 1.29 1.312.713 0 1.292-.588 1.292-1.313v-5.13c0-.724-.58-1.312-1.292-1.312zm2.07.04v9.37c0 .558.45 1.01 1.006 1.01h1.15v2.853c0 .725.58 1.313 1.292 1.313.713 0 1.292-.59 1.292-1.32v-2.85h2.01v2.854c0 .725.578 1.313 1.29 1.313.715 0 1.293-.59 1.293-1.314V17.51h1.15c.557 0 1.008-.45 1.008-1.008v-9.37H4.09m8.443-4.855L13.595.735c.063-.092.047-.212-.035-.27-.083-.056-.2-.028-.263.064l-1.103 1.6c-.727-.29-1.534-.45-2.385-.45-.85 0-1.66.16-2.39.445l-1.1-1.6C6.26.435 6.14.41 6.06.465c-.085.056-.1.176-.037.27l1.062 1.54c-1.688.785-2.872 2.28-3.023 4.02h11.492c-.15-1.742-1.334-3.235-3.022-4.02zm-5.148 2.43c-.35 0-.636-.285-.636-.636 0-.35.28-.63.63-.63s.635.285.635.637c0 .352-.285.637-.636.637zm4.928 0c-.35 0-.636-.285-.636-.636 0-.35.285-.63.636-.63.35 0 .636.285.636.637 0 .352-.29.637-.64.637z"/>
</svg>
