<svg xmlns="http://www.w3.org/2000/svg" width="72" height="130" viewBox="0 0 72 130">
  <path fill="#FF00BF" fill-rule="evenodd" d="M.074 39.82h10.918v28.823c0 4.57 2.103 7.286 3.808 8.428-1.777 1.54-7.182 2.9-11.244-.39C1.162 74.75.074 71.54.074 68.54V39.82zm68.154 20.93h3.337V50.143H67.9C66.488 43.75 60.72 39 53.83 39c-7.943 0-14.4 6.357-14.4 14.18v24.75c2.25.32 4.97-.037 7.255-1.93 2.394-1.93 3.482-5.143 3.482-8.143v-.928h5.44V56.32h-5.44v-3.213c0-2 1.632-3.607 3.663-3.607 2.03 0 3.663 1.607 3.663 3.607V63.75c0 7.82 6.458 14.18 14.4 14.18V67.356c-2.03 0-3.662-1.607-3.662-3.57V60.75zM26.95 50.107v15.607c0 .893-.76 1.607-1.668 1.607-.906 0-1.668-.71-1.668-1.6V50.11H12.84v18.32c0 3.284 1.126 7.463 6.313 8.82 5.186 1.357 8.16-1.464 8.16-1.464-.29 1.857-2.03 3.214-4.896 3.5-2.176.214-4.933-.5-6.31-1.072v9.715c3.517 1.03 7.217 1.35 10.88.64 6.603-1.25 10.773-6.68 10.773-13.93V50.032H26.95v.07z"/>
</svg>
