<?xml version="1.0" encoding="UTF-8"?>
<svg width="407px" height="203px" viewBox="0 0 407 203" version="1.1" xmlns="http://www.w3.org/2000/svg" xmlns:xlink="http://www.w3.org/1999/xlink">
    <!-- Generator: Sketch 40.2 (33826) - http://www.bohemiancoding.com/sketch -->
    <title>logo_color_youku</title>
    <desc>Created with Sketch.</desc>
    <defs></defs>
    <g id="Page-1" stroke="none" stroke-width="1" fill="none" fill-rule="evenodd">
        <g id="logo_color_youku" transform="translate(0.000000, 70.000000)">
            <g id="Page-1">
                <g id="logo_color_youku">
                    <g id="Group">
                        <g id="Shape">
                            <path d="M48.729,57.075 L48.731,57.071 C47.496,57.144 46.192,56.794 46.391,55.408 C47.096,52.497 47.07,49.271 48.36,46.679 C48.563,46.273 49.074,45.721 49.126,45.223 C49.347,43.009 46.585,41.622 44.271,41.58 C43.706,41.571 42.875,42.253 42.622,42.487 C41.196,43.816 39.035,44.335 36.998,44.99 C36.457,45.133 36.267,45.787 36.22,48.434 C36.218,48.52 36.414,48.726 36.495,48.735 C37.767,48.852 39.437,48.818 40.738,48.612 C40.942,48.599 41.101,48.732 41.04,49.109 L41.036,49.151 C40.677,50.93 39.749,55.07 39.741,55.089 C39.514,55.997 38.724,56.652 37.759,56.686 C37.204,56.739 36.196,56.573 35.819,56.874 C35.336,57.258 35.248,57.683 35.325,58.509 C35.414,59.441 36.176,61.282 37.156,61.856 C39.365,63.145 43.921,61.014 47.401,61.588 C48.973,61.846 49.691,61.233 49.964,60.836 C50.459,60.113 49.786,57.627 49.78,57.593 C49.657,56.984 48.729,57.075 48.729,57.075 L48.729,57.075 L48.729,57.075 Z" fill="#D80C18"></path>
                            <path d="M27.233,40.702 C27.281,40.768 27.318,40.826 27.353,40.881 L27.367,40.881 C27.893,41.529 28.68,41.959 29.56,41.994 C30.125,42.018 30.654,41.875 31.1,41.611 C32.724,40.851 41.269,38.407 43.041,38.12 C44.4,37.9 45.578,38.931 47.361,38.393 C47.505,38.345 48.526,37.957 48.711,36.556 C48.871,35.314 48.055,34.756 47.43,33.907 C47.117,33.476 46.64,32.803 46.242,32.37 L46.224,32.354 C46.121,32.229 46.004,32.119 45.873,32.023 C45.746,31.924 45.616,31.851 45.477,31.8 C45.279,31.719 45.063,31.669 44.84,31.658 C44.788,31.652 44.725,31.652 44.647,31.659 C44.529,31.666 44.414,31.685 44.299,31.714 C43.801,31.813 42.983,32.02 42.599,32.098 C40.053,32.603 29.387,34.189 29.339,34.192 C28.44,34.221 27.728,34.369 27.123,34.263 C24.646,33.827 24.544,35.081 24.544,35.081 C24.204,36.833 26.458,39.591 27.216,40.682 L27.233,40.702 L27.233,40.702 L27.233,40.702 Z" fill="#000000"></path>
                            <path d="M32.864,44.769 C32.779,44.761 32.594,44.765 32.583,44.765 C28.858,44.934 28.837,47.374 27.278,49.327 C23.228,54.408 25.656,60.427 25.675,60.462 C26.3,61.939 27.736,63.033 29.411,63.132 C31.542,63.258 33.3,61.733 33.507,59.664 C33.517,59.586 33.715,58.073 32.969,54.81 C32.297,51.866 33.533,48.758 33.918,46.395 C33.919,46.38 33.993,46.104 33.993,45.965 C33.993,45.34 33.489,44.806 32.864,44.769 L32.864,44.769 L32.864,44.769 Z" fill="#000000"></path>
                            <path d="M73.916,36.873 C71.991,36.389 64.957,34.798 54.616,26.895 C49.034,22.625 44.177,17.736 38.64,13.716 C39.801,11.073 39.914,8.064 39.01,5.027 C38.56,3.514 36.489,-0.253 33.605,0.013 C33.605,0.013 32.657,0.205 33.518,1.32 C33.76,1.632 34.271,1.979 34.056,3.431 C34.049,3.474 34.049,3.517 34.054,3.554 C33.442,7.567 28.821,16.696 23.363,24.641 C14.037,38.224 7.934,41.951 1.121,44.996 L1.07,45.028 C0.907,45.132 0.795,45.313 0.795,45.522 C0.795,45.842 1.057,46.105 1.377,46.105 L1.469,46.095 C1.495,46.095 1.532,46.094 1.585,46.085 C4.356,45.604 8.928,44.607 12.429,42.549 C21.34,37.311 22.825,34.36 29.867,25.544 C32.737,21.954 34.903,18.052 36.615,17.824 C38.018,17.636 39.004,18.733 39.82,19.48 C40.964,20.526 50.67,33.2 53.043,35.631 C54.067,36.68 55.454,37.886 56.897,38.738 C60.653,40.96 63.07,41.764 67.849,41.353 C69.478,41.209 75.573,39.754 76.007,37.989 C76.211,37.159 75.009,37.151 73.916,36.873 L73.916,36.873 L73.916,36.873 Z" fill="#000000"></path>
                        </g>
                        <path d="M102.763,51.245 L102.763,18.947" id="Shape" stroke="#040000"></path>
                        <g id="Shape" transform="translate(358.000000, 16.000000)" fill="#000000">
                            <path d="M21.33,30.855 C20.799,31.423 20.161,31.704 19.426,31.673 C18.714,31.654 18.103,31.364 17.606,30.807 C17.111,30.246 16.866,29.584 16.866,28.81 C16.866,28.011 17.141,27.315 17.671,26.747 C18.201,26.168 18.838,25.891 19.576,25.923 C20.288,25.945 20.898,26.237 21.394,26.808 C21.889,27.365 22.14,28.028 22.14,28.799 C22.139,29.588 21.866,30.276 21.33,30.855 M19.427,30.952 C19.999,30.977 20.472,30.781 20.868,30.323 C21.272,29.871 21.467,29.351 21.455,28.742 C21.438,28.165 21.232,27.672 20.868,27.261 C20.502,26.845 20.061,26.639 19.542,26.639 C18.987,26.63 18.53,26.845 18.144,27.261 C17.757,27.672 17.568,28.165 17.559,28.752 C17.551,29.333 17.721,29.844 18.089,30.277 C18.461,30.711 18.903,30.932 19.427,30.952"></path>
                            <path d="M4.489,31.673 L3.473,31.673 C2.199,31.673 1.573,31.095 1.573,29.933 L1.573,24.15 L2.276,24.15 L2.276,25.926 L4.489,25.929 L4.489,26.691 L2.276,26.694 L2.276,29.806 C2.276,30.642 2.676,30.929 3.473,30.929 L4.489,30.929"></path>
                            <path d="M16.081,28.813 C16.104,29.603 15.838,30.289 15.271,30.865 C14.713,31.432 14.058,31.71 13.305,31.684 C12.577,31.665 11.952,31.375 11.445,30.815 C10.944,30.257 10.689,29.593 10.689,28.823 C10.689,28.022 10.965,27.33 11.505,26.761 C12.056,26.182 12.706,25.906 13.459,25.937 C14.233,25.964 14.878,26.289 15.392,26.909 L15.392,24.15 L16.08,24.15 L16.08,28.813 L16.081,28.813 L16.081,28.813 Z M13.309,30.957 C13.892,30.992 14.381,30.791 14.789,30.335 C15.198,29.884 15.392,29.362 15.38,28.754 C15.368,28.179 15.166,27.689 14.789,27.274 C14.407,26.858 13.956,26.654 13.414,26.654 C12.864,26.643 12.383,26.859 11.986,27.274 C11.589,27.688 11.391,28.179 11.391,28.764 C11.379,29.344 11.563,29.852 11.94,30.288 C12.319,30.719 12.77,30.941 13.309,30.957 L13.309,30.957 L13.309,30.957 Z"></path>
                            <path d="M27.498,29.145 C27.498,29.876 27.284,30.486 26.843,30.966 C26.416,31.453 25.872,31.695 25.209,31.695 C24.55,31.695 24.004,31.453 23.565,30.966 C23.138,30.486 22.919,29.876 22.919,29.145 L22.919,25.929 L23.619,25.929 L23.619,29.233 C23.619,29.707 23.772,30.112 24.096,30.453 C24.407,30.791 24.783,30.957 25.208,30.957 C25.635,30.957 25.999,30.791 26.314,30.453 C26.631,30.112 26.797,29.707 26.797,29.233 L26.797,25.929 L27.496,25.929 L27.496,29.145 L27.498,29.145 L27.498,29.145 Z"></path>
                            <path d="M9.922,29.122 C9.922,29.858 9.701,30.475 9.265,30.957 C8.832,31.448 8.284,31.696 7.617,31.696 C6.948,31.696 6.399,31.448 5.957,30.957 C5.532,30.475 5.31,29.858 5.31,29.122 L5.31,25.929 L6.018,25.929 L6.018,29.215 C6.018,29.689 6.169,30.101 6.492,30.444 C6.811,30.785 7.191,30.952 7.618,30.952 C8.051,30.952 8.445,30.791 8.765,30.453 C9.087,30.105 9.216,29.689 9.216,29.215 L9.216,25.929 L9.924,25.929 L9.924,29.122 L9.922,29.122 L9.922,29.122 Z"></path>
                            <path d="M34.859,30.153 C34.406,31.095 33.512,31.707 32.44,31.698 C31.724,31.687 31.114,31.409 30.598,30.864 C30.082,30.315 29.826,29.644 29.815,28.855 C29.807,28.06 30.056,27.385 30.574,26.825 C31.099,26.258 31.713,25.957 32.44,25.949 C32.958,25.941 33.444,26.09 33.892,26.397 C34.317,26.694 34.666,27.116 34.859,27.563 L34.934,27.752 L34.151,27.752 C33.783,27.056 33.219,26.688 32.464,26.67 C31.956,26.655 31.51,26.859 31.104,27.282 C30.681,27.717 30.479,28.238 30.479,28.832 C30.479,29.425 30.679,29.933 31.061,30.365 C31.45,30.785 31.914,31 32.449,30.993 C33.213,30.977 33.783,30.637 34.155,29.962 L34.932,29.962 L34.859,30.153 L34.859,30.153 L34.859,30.153 Z"></path>
                            <path d="M40.19,30.88 C39.656,31.448 39.021,31.728 38.281,31.698 C37.571,31.679 36.963,31.392 36.461,30.833 C35.972,30.272 35.725,29.604 35.725,28.837 C35.725,28.029 35.997,27.34 36.531,26.772 C37.058,26.193 37.699,25.914 38.435,25.941 C39.147,25.971 39.753,26.261 40.251,26.83 C40.748,27.386 40.999,28.055 40.999,28.827 C40.999,29.617 40.728,30.302 40.19,30.88 M38.285,30.976 C38.855,31.006 39.337,30.8 39.729,30.352 C40.135,29.898 40.323,29.372 40.315,28.767 C40.299,28.191 40.096,27.7 39.729,27.282 C39.361,26.866 38.923,26.67 38.4,26.67 C37.848,26.655 37.391,26.866 37.003,27.282 C36.619,27.7 36.429,28.191 36.419,28.778 C36.408,29.36 36.578,29.865 36.95,30.303 C37.316,30.736 37.759,30.957 38.285,30.976"></path>
                            <path d="M48.908,31.602 L48.218,31.602 L48.218,28.206 C48.218,27.783 48.127,27.388 47.882,27.116 C47.708,26.924 47.451,26.682 47.021,26.655 C46.704,26.642 46.33,26.736 46.043,27.068 C45.8,27.345 45.688,27.65 45.688,28.042 L45.688,31.603 L44.991,31.603 L44.991,28.042 C44.991,27.649 44.882,27.322 44.615,27.045 C44.349,26.775 44.064,26.636 43.652,26.655 C43.42,26.674 43.088,26.773 42.797,27.116 C42.565,27.398 42.472,27.772 42.472,28.206 L42.472,31.602 L41.784,31.602 L41.784,28.292 C41.784,27.605 41.958,27.011 42.309,26.594 C42.641,26.196 43.079,25.97 43.616,25.958 C44.338,25.944 44.918,26.213 45.343,26.954 C45.768,26.213 46.338,25.922 47.058,25.958 C47.689,25.994 48.037,26.213 48.373,26.614 C48.733,27.028 48.909,27.605 48.909,28.291 L48.909,31.602 L48.908,31.602 L48.908,31.602 Z"></path>
                            <path d="M29.201,31.067 C29.201,31.376 28.958,31.619 28.657,31.619 C28.362,31.619 28.117,31.375 28.117,31.067 C28.117,30.766 28.362,30.515 28.657,30.515 C28.958,30.515 29.201,30.766 29.201,31.067"></path>
                            <path d="M47.215,0.823 C47.215,0.467 46.879,0.181 46.475,0.181 L26.464,0.181 C26.054,0.181 25.726,0.467 25.726,0.823 L25.726,1.605 C25.726,1.954 26.054,2.248 26.464,2.248 L46.475,2.248 C46.879,2.248 47.215,1.954 47.215,1.605 L47.215,0.823 L47.215,0.823 L47.215,0.823 Z"></path>
                            <path d="M44.63,13.445 C45.443,13.445 46.107,12.776 46.107,11.959 L46.107,6.095 C46.107,5.277 45.444,4.608 44.63,4.608 L28.145,4.608 C27.336,4.608 26.67,5.277 26.67,6.095 L26.67,11.959 C26.67,12.777 27.336,13.445 28.145,13.445 L44.63,13.445 L44.63,13.445 L44.63,13.445 Z M31.061,11.311 C30.242,11.311 29.581,10.634 29.581,9.819 L29.581,8.057 C29.581,7.236 30.242,6.566 31.061,6.566 L41.714,6.566 C42.531,6.566 43.194,7.236 43.194,8.057 L43.194,9.819 C43.194,10.634 42.531,11.311 41.714,11.311 L31.061,11.311 L31.061,11.311 L31.061,11.311 Z"></path>
                            <path d="M43.646,18.24 C43.242,18.24 43.07,17.944 43.263,17.585 L44.12,15.7 C44.312,15.339 44.142,15.048 43.734,15.048 L41.16,15.048 C40.76,15.048 40.265,15.339 40.072,15.7 L39.215,17.585 C39.019,17.944 38.527,18.24 38.118,18.24 L34.802,18.24 C34.398,18.24 33.901,17.944 33.714,17.585 L32.853,15.7 C32.661,15.339 32.165,15.048 31.761,15.048 L29.191,15.048 C28.784,15.048 28.606,15.339 28.802,15.7 L29.661,17.585 C29.851,17.944 29.684,18.24 29.275,18.24 L25.98,18.24 C25.572,18.24 25.24,18.571 25.24,18.983 L25.24,19.578 C25.24,19.984 25.572,20.318 25.98,20.318 L47.226,20.318 C47.63,20.318 47.964,19.984 47.964,19.578 L47.964,18.983 C47.964,18.57 47.63,18.24 47.226,18.24 L43.646,18.24 L43.646,18.24 L43.646,18.24 Z"></path>
                            <path d="M13.921,18.247 C13.515,18.247 13.181,17.909 13.181,17.499 L13.181,6.519 C13.181,6.109 13.515,5.772 13.921,5.772 L20.873,5.772 C21.282,5.772 21.609,5.437 21.609,5.031 L21.609,4.462 C21.609,4.046 21.282,3.716 20.873,3.716 L13.921,3.716 C13.515,3.716 13.181,3.378 13.181,2.971 L13.181,0.779 C13.181,0.371 12.851,0.036 12.445,0.036 L11.266,0.036 C10.86,0.036 10.526,0.371 10.526,0.779 L10.526,2.971 C10.526,3.378 10.192,3.716 9.784,3.716 L2.807,3.716 C2.402,3.716 2.065,4.047 2.065,4.462 L2.065,5.031 C2.065,5.437 2.402,5.772 2.807,5.772 L9.784,5.772 C10.192,5.772 10.526,6.109 10.526,6.519 L10.526,17.499 C10.526,17.91 10.192,18.247 9.784,18.247 L1.373,18.247 C0.965,18.247 0.631,18.579 0.631,18.991 L0.631,19.577 C0.631,19.983 0.965,20.317 1.373,20.317 L22.308,20.317 C22.718,20.317 23.045,19.983 23.045,19.577 L23.045,18.991 C23.045,18.578 22.718,18.247 22.308,18.247 L13.921,18.247 L13.921,18.247 L13.921,18.247 Z"></path>
                        </g>
                        <g id="Shape" transform="translate(312.000000, 10.000000)" fill="#ED6C00">
                            <path d="M21.186,0.904 C9.982,0.904 0.902,9.985 0.902,21.189 C0.902,32.391 9.982,41.476 21.186,41.476 C32.389,41.476 41.473,32.391 41.473,21.189 C41.473,9.985 32.389,0.904 21.186,0.904 M21.19,37.622 C12.099,37.622 4.737,30.255 4.737,21.171 C4.737,12.082 12.099,4.719 21.19,4.719 C30.274,4.719 37.643,12.082 37.643,21.171 C37.643,30.255 30.274,37.622 21.19,37.622"></path>
                            <path d="M33.821,19.093 C33.56,16.535 31.404,14.539 28.777,14.539 C26.142,14.539 23.978,16.549 23.734,19.12 C23.734,19.12 25.76,18.107 28.777,18.107 C31.891,18.108 33.821,19.093 33.821,19.093"></path>
                            <path d="M8.522,19.093 C8.777,16.535 10.939,14.539 13.562,14.539 C16.195,14.539 18.363,16.549 18.607,19.12 C18.607,19.12 16.583,18.107 13.562,18.107 C10.452,18.108 8.522,19.093 8.522,19.093"></path>
                            <path d="M11.835,23.355 C11.835,22.299 10.974,21.886 10.424,21.886 C9.65,21.886 9.023,22.514 9.023,23.284 C9.023,24.053 9.635,24.706 10.412,24.706 C9.643,24.709 9.023,25.336 9.023,26.102 C9.023,26.877 9.65,27.499 10.424,27.499 C11.193,27.499 11.82,26.877 11.82,26.102 C11.82,26.877 12.449,27.499 13.223,27.499 C13.995,27.499 14.62,26.877 14.62,26.102 C14.62,25.335 13.995,24.706 13.223,24.706 L13.21,24.681 L13.223,24.681 C13.995,24.681 14.62,24.053 14.62,23.285 C14.62,22.514 13.995,21.887 13.223,21.887 C11.806,21.886 11.835,23.355 11.835,23.355 M11.819,25.278 C11.505,25.278 11.249,25.017 11.249,24.706 C11.249,24.392 11.506,24.13 11.819,24.13 C12.134,24.13 12.389,24.391 12.389,24.706 C12.389,25.018 12.134,25.278 11.819,25.278"></path>
                        </g>
                        <g id="Shape" transform="translate(129.000000, 19.000000)">
                            <g id="Group" fill="#E8380D">
                                <path d="M44.328,11.892 C44.333,5.49 39.446,0.279 33.436,0.272 C27.413,0.276 22.522,5.476 22.511,11.872 C22.505,15.059 23.55,17.971 25.436,20.082 C27.429,22.307 30.182,23.483 33.404,23.489 L33.432,23.598 L33.432,23.489 C40.038,23.481 44.318,18.934 44.328,11.892 M29.847,16.558 C28.904,15.354 28.386,13.758 28.388,12.063 C28.391,8.556 30.65,5.702 33.42,5.702 L33.429,5.702 C36.198,5.702 38.454,8.561 38.451,12.074 C38.446,15.577 36.19,18.431 33.42,18.431 C32.063,18.431 30.796,17.767 29.847,16.558" id="Shape"></path>
                                <path d="M61.77,1.072 C59.968,1.133 58.966,2.282 58.901,4.389 L58.908,15.25 C58.793,17.544 57.126,19.146 54.843,19.146 C52.474,19.146 50.879,17.609 50.768,15.241 L50.756,4.374 C50.652,2.208 49.731,1.114 47.968,1.041 C46.073,1.046 45.099,2.139 44.991,4.382 L45.001,15.245 C45.205,20.657 48.503,23.47 54.808,23.581 C61.167,23.484 64.4,20.758 64.685,15.25 L64.675,4.392 C64.575,2.259 63.597,1.145 61.77,1.072" id="Shape"></path>
                                <path d="M23.444,2.066 C23.155,1.384 22.589,0.871 21.759,0.556 C21.122,0.31 20.539,0.184 20.036,0.184 C18.444,0.186 17.742,1.432 17.261,2.648 L12.893,12.369 L7.03,2.339 C6.479,1.292 5.38,0.18 3.946,0.18 C3.389,0.18 2.824,0.351 2.262,0.685 C-0.325,2.221 1.159,5.131 1.222,5.253 L9.652,19.597 L6.331,26.99 C6.096,27.541 5.068,30.363 7.811,31.527 C8.372,31.769 8.894,31.886 9.363,31.886 C10.95,31.886 11.792,30.504 12.407,29.141 L23.345,4.923 C23.351,4.912 24,3.375 23.444,2.066" id="Shape"></path>
                            </g>
                            <g id="Group" transform="translate(65.000000, 1.000000)" fill="#00A3DF">
                                <path d="M37.554,0.037 C35.758,0.101 34.757,1.253 34.686,3.359 L34.695,14.214 C34.586,16.513 32.913,18.115 30.63,18.115 C28.26,18.111 26.667,16.582 26.558,14.209 L26.545,3.344 C26.441,1.172 25.518,0.083 23.755,0.011 C21.861,0.011 20.891,1.106 20.781,3.355 L20.79,14.209 C20.994,19.631 24.296,22.434 30.598,22.554 C36.956,22.454 40.188,19.725 40.475,14.214 L40.463,3.36 C40.365,1.231 39.386,0.109 37.554,0.037" id="Shape"></path>
                                <path d="M6.749,19.789 L6.745,13.367 L6.915,13.548 C6.915,13.548 15.113,21.09 15.564,21.501 C16.144,22.018 16.922,22.301 17.758,22.301 C18.637,22.301 19.443,21.988 19.968,21.439 C20.429,20.952 20.674,20.224 20.652,19.396 C20.62,18.363 20.182,17.361 19.479,16.709 L13.445,11.14 L18.871,6.026 C18.972,5.924 21.396,3.372 19.196,1.089 C18.593,0.467 17.885,0.151 17.092,0.151 C16.13,0.151 15.207,0.638 14.722,1.118 L6.743,9.281 L6.739,3.221 C6.686,1.247 5.55,0.156 3.64,0.151 C1.69,0.155 0.726,1.129 0.606,3.214 L0.617,19.776 C0.722,21.625 1.715,22.531 3.652,22.534 L3.687,22.647 L3.687,22.534 C5.606,22.532 6.67,21.61 6.749,19.789" id="Shape"></path>
                            </g>
                            <g id="Group" transform="translate(110.000000, 0.000000)" fill="#3E3A39">
                                <path d="M20.34,19.09 C20.291,19.527 20.166,19.831 19.944,20.033 C19.731,20.228 19.426,20.324 19.017,20.327 L18.427,20.324 C17.974,20.324 17.444,20.131 17.447,19.23 L17.471,9.111 L22.572,9.114 L22.572,6.801 L14.376,6.792 L14.382,0.953 L11.761,0.95 L11.751,6.792 L7.223,6.785 L7.219,9.094 L11.691,9.103 C11.493,11.536 11.062,13.463 10.39,14.892 C9.517,16.914 8.19,18.869 6.222,20.759 L6.244,7.528 C7.13,5.612 7.793,3.662 8.218,1.908 L5.727,0.931 C4.457,5.389 2.621,9.006 0.194,12.324 L2.168,14.133 C2.88,13.172 3.62,12.03 3.62,12.03 L3.604,22.655 L6.22,22.66 L6.222,21.105 L8.21,22.66 C10.531,20.24 12.028,17.921 12.899,15.647 C13.626,13.808 14.092,11.64 14.309,9.108 L14.865,9.108 L14.855,19.457 C14.851,20.015 14.895,20.477 15.01,20.861 C15.129,21.265 15.32,21.585 15.571,21.817 C15.813,22.051 16.147,22.233 16.551,22.35 C16.959,22.467 17.354,22.514 17.88,22.514 L19.476,22.518 C20.534,22.518 21.265,22.331 21.763,21.927 C22.296,21.499 22.653,20.808 22.847,19.783 C22.97,19.054 23.134,17.421 23.239,16.598 L20.649,15.823 C20.575,16.848 20.413,18.556 20.34,19.09" id="Shape"></path>
                                <path d="M22.108,4.4 C21.8,4.147 20.043,2.699 17.889,1.122 L16.439,2.858 C17.78,3.928 20.057,5.997 20.405,6.314 L22.108,4.4 L22.108,4.4 L22.108,4.4 Z" id="Shape"></path>
                                <path d="M24.753,3.771 L28.126,3.772 L28.122,6.172 L24.745,6.168 L24.733,18.304 L24.737,18.304 L24.733,20.239 C24.72,21.116 24.918,21.699 25.331,22.03 C25.712,22.363 26.381,22.524 27.378,22.524 L29.997,22.53 L30.413,22.53 L33.028,22.53 C34.035,22.537 34.701,22.375 35.075,22.049 C35.491,21.715 35.689,21.131 35.681,20.255 L35.681,18.317 L35.693,18.317 L35.71,6.179 L32.567,6.179 L32.567,3.782 L35.746,3.782 L35.75,1.472 L24.755,1.461 L24.753,3.771 L24.753,3.771 L24.753,3.771 Z M27.009,8.434 L28.113,8.434 L28.113,8.497 C28.113,10.302 27.83,12.289 27.124,13.329 L27.001,13.505 L27.009,8.434 L27.009,8.434 L27.009,8.434 Z M33.432,19.238 C33.432,19.66 33.372,19.971 33.186,20.155 C33.032,20.309 32.791,20.39 32.465,20.388 C32.445,20.388 31.503,20.384 30.412,20.384 L30.002,20.384 L27.945,20.384 C27.618,20.379 27.384,20.302 27.227,20.147 C27.047,19.962 26.984,19.651 26.989,19.23 L26.989,17.838 L33.435,17.843 L33.432,19.238 L33.432,19.238 L33.432,19.238 Z M32.565,8.438 L33.445,8.438 L33.436,12.593 L33.311,12.593 C32.805,12.593 32.563,12.248 32.559,11.565 L32.565,8.438 L32.565,8.438 L32.565,8.438 Z M30.008,3.775 L30.686,3.775 L30.682,6.175 L30.006,6.175 L30.008,3.775 L30.008,3.775 L30.008,3.775 Z M30.003,8.497 L30.003,8.434 L30.683,8.434 L30.679,12.008 C30.675,13.289 31.682,14.292 32.972,14.296 L33.437,14.307 L33.437,15.675 L26.995,15.665 L26.995,13.798 L28.561,14.741 C29.262,13.904 29.997,11.44 30.003,8.497 L30.003,8.497 L30.003,8.497 Z" id="Shape"></path>
                                <path d="M37.141,20.255 C37.129,21.131 37.327,21.715 37.736,22.049 C38.112,22.379 38.788,22.542 39.787,22.542 L41.008,22.542 L42.881,22.545 L44.109,22.545 C45.106,22.545 45.782,22.388 46.156,22.055 C46.566,21.726 46.768,21.145 46.76,20.267 L46.768,13.073 L37.15,13.063 L37.141,20.255 L37.141,20.255 L37.141,20.255 Z M39.647,15.214 L44.263,15.217 L44.257,19.237 C44.251,19.661 44.195,19.974 44.013,20.154 C43.853,20.312 43.62,20.387 43.292,20.387 L42.884,20.387 C42.468,20.383 41.784,20.383 41.012,20.383 L40.599,20.383 C40.276,20.383 40.037,20.308 39.883,20.151 C39.701,19.967 39.641,19.66 39.643,19.235 L39.647,15.214 L39.647,15.214 L39.647,15.214 Z" id="Shape"></path>
                                <path d="M43.409,9.565 L43.417,6.453 L46.643,6.453 L46.647,4.287 L43.418,4.285 L43.424,0.988 L40.908,0.983 L40.9,4.284 L39.197,4.279 L39.209,4.212 C39.335,3.464 39.436,2.732 39.501,2.012 L37.187,1.835 C37.057,4.333 36.179,7.931 36.07,8.427 L38.177,8.844 C38.23,8.615 38.509,7.576 38.715,6.561 L38.747,6.447 L40.899,6.447 L40.895,9.562 L36.494,9.557 L36.49,11.75 L47.324,11.769 L47.326,9.572 L43.409,9.565 L43.409,9.565 L43.409,9.565 Z" id="Shape"></path>
                            </g>
                        </g>
                    </g>
                </g>
            </g>
        </g>
    </g>
</svg>