<?xml version="1.0" encoding="UTF-8" standalone="no"?>
<svg width="52px" height="72px" viewBox="0 0 52 72" version="1.1" xmlns="http://www.w3.org/2000/svg" xmlns:xlink="http://www.w3.org/1999/xlink">
    <title>logo-color-vive</title>
    <desc>Created with Sketch.</desc>
    <defs></defs>
    <g id="baseline" stroke="none" stroke-width="1" fill="none" fill-rule="evenodd">
        <g id="color" transform="translate(-7885.000000, 0.000000)">
            <g id="logo-color-vive" transform="translate(7885.000000, 14.000000)">
                <g id="Group-3" transform="translate(15.000000, 0.000000)" fill="#00BCE7">
                    <path d="M15.147058,16.6008212 C13.8985829,16.9980021 12.5699561,17.2117602 11.1911034,17.2117602 C9.81400067,17.2117602 8.48572394,16.9981785 7.23777382,16.6018794 C5.77719442,16.137855 4.87540127,14.6450756 5.18970759,13.1344831 C5.7614441,10.3864922 7.17914764,7.95155455 9.15581243,6.11944301 C10.3087356,5.05082886 12.0736462,5.05047612 13.2267444,6.11873754 C15.2039342,7.95031997 16.6223377,10.3852576 17.1942492,13.1334249 C17.5085556,14.6438411 16.6072874,16.1362677 15.147058,16.6008212 M22.1893748,15.203457 L13.8963078,0.734573022 C13.6359026,0.280072499 13.1546429,0 12.6338324,0 L9.74942437,0 C9.22861389,0 8.7473542,0.280072499 8.48694896,0.734573022 L0.195457065,15.2038097 C-0.0651231803,15.6584866 -0.0651231803,16.2186316 0.195282061,16.6731321 L1.63556105,19.1877881 C1.89596629,19.642465 2.37740098,19.9225375 2.89838647,19.9225375 L19.4853953,19.9225375 C20.0060308,19.9225375 20.4872905,19.6426413 20.7476958,19.1883172 L22.1893748,16.6734848 C22.449955,16.2186316 22.449955,15.6583102 22.1893748,15.203457" id="Fill-1"></path>
                </g>
                <g id="Group-4" transform="translate(0.000000, 32.000000)" fill="#54565B">
                    <path d="M37.3615195,1.78079986 L32.3548438,11.7055604 C32.2746922,11.8646444 32.1119389,11.9657033 31.9315102,11.9657033 L30.281052,11.9657033 C30.1032484,11.9657033 29.9404952,11.8646444 29.8577185,11.7055604 L24.8536678,1.78079986 C24.7684411,1.61413203 24.7759662,1.41730526 24.866093,1.25575211 L25.4005538,0.32417595 C25.5045059,0.143045939 25.6963097,0.0315813175 25.9038639,0.0315813175 L26.3889737,0.0315813175 C26.5141012,0.0315813175 26.6318786,0.102304915 26.6870047,0.218355106 L30.8939144,8.6524527 C30.9822911,8.82934988 31.2328962,8.82934988 31.321098,8.6524527 L35.5257326,0.218355106 C35.5806837,0.102304915 35.6984611,0.0315813175 35.8262136,0.0315813175 L36.3086984,0.0315813175 C36.5162525,0.0315813175 36.7080564,0.143045939 36.8120085,0.32417595 L37.3478693,1.25822126 C37.4400961,1.41889258 37.4451712,1.61554298 37.3615195,1.78079986" id="Fill-4"></path>
                    <path d="M12.567633,1.78079986 L7.56095719,11.7055604 C7.48080558,11.8646444 7.3180523,11.9657033 7.13762367,11.9657033 L5.48716545,11.9657033 C5.30936187,11.9657033 5.1466086,11.8646444 5.06383193,11.7055604 L0.0597812033,1.78079986 C-0.0254455122,1.61413203 -0.0179203607,1.41730526 0.0722064534,1.25575211 L0.607717233,0.322412269 C0.710969311,0.142516835 0.901723151,0.0315813175 1.1080523,0.0315813175 L1.59508711,0.0315813175 C1.72021463,0.0315813175 1.837992,0.102304915 1.89311811,0.218355106 L6.10002779,8.6524527 C6.18840457,8.82934988 6.43900961,8.82934988 6.52721139,8.6524527 L10.731846,0.218355106 C10.7867971,0.102304915 10.9045745,0.0315813175 11.0323271,0.0315813175 L11.5167368,0.0315813175 C11.723066,0.0315813175 11.9138198,0.142516835 12.0170719,0.322412269 L12.5539827,1.25822126 C12.6462096,1.41889258 12.6512847,1.61554298 12.567633,1.78079986" id="Fill-6"></path>
                    <path d="M19.7377548,0.17276396 C19.6513031,0.0856381318 19.5310756,0.0313167654 19.398073,0.0313167654 L18.6490579,0.0313167654 C18.4422037,0.0313167654 18.2510999,0.142781387 18.1478478,0.323382293 L17.6142621,1.25707487 C17.5668361,1.34120244 17.5414606,1.43573573 17.5414606,1.53150359 L17.5414606,11.4821902 C17.5414606,11.7493879 17.7563649,11.9659679 18.0214953,11.9659679 L19.4033231,11.9659679 C19.6661784,11.9659679 19.8791576,11.7511516 19.8791576,11.4864231 L19.8791576,0.516152597 C19.8791576,0.382112862 19.8252566,0.260947996 19.7377548,0.17276396" id="Fill-8"></path>
                    <path d="M42.9438694,0.322623911 C43.0474715,0.142375741 43.2385753,0.0314402231 43.4452545,0.0314402231 L50.6142738,0.0314402231 C50.8167529,0.0314402231 51.0040067,0.140082956 51.1055087,0.316451028 L51.6102189,1.19123667 C51.6819703,1.31663437 51.7199461,1.45913977 51.7199461,1.60376159 L51.7199461,1.82157616 C51.7199461,2.00023702 51.5743431,2.14909167 51.3939145,2.14909167 L44.858933,2.14909167 C44.7271553,2.14909167 44.6195281,2.2577344 44.6195281,2.39036319 L44.6195281,4.6750352 C44.6195281,4.80784036 44.7262803,4.91524852 44.8578829,4.91524852 L49.2873971,4.91524852 C49.5024764,4.91859951 49.677655,5.09496758 49.677655,5.31190031 L49.677655,6.62478425 C49.677655,6.84295155 49.5005514,7.02143604 49.284247,7.02143604 L44.8578829,7.02143604 C44.7262803,7.02143604 44.6195281,7.1288442 44.6195281,7.26164936 L44.6195281,9.60787382 C44.6195281,9.74067898 44.7262803,9.84826351 44.8578829,9.84826351 L51.3939145,9.84826351 C51.5743431,9.84826351 51.7199461,9.99376717 51.7199461,10.1734862 L51.7199461,10.3925354 C51.7199461,10.5382154 51.6819703,10.6805444 51.6102189,10.8061185 L51.1055087,11.6828442 C51.0040067,11.8593886 50.8167529,11.9680314 50.6142738,11.9680314 L43.4452545,11.9680314 C43.2385753,11.9680314 43.0474715,11.8570959 42.9438694,11.6768477 L42.4452844,10.8092931 C42.3724829,10.6826609 42.3345071,10.5403318 42.3345071,10.3946518 L42.3355572,1.60270338 C42.3355572,1.45808156 42.3735329,1.31557616 42.4452844,1.19017846 L42.9438694,0.322623911 Z" id="Fill-10"></path>
                </g>
            </g>
        </g>
    </g>
</svg>