<svg xmlns="http://www.w3.org/2000/svg" width="157" height="72" viewBox="0 0 157 72">
  <g fill="none" fill-rule="evenodd">
    <path d="M0 0h157v72H0z"/>
    <path fill="#23A149" d="M49.260375 23.100875V39.33025h11.86625v-3.550625H53.58725v-3.143438h6.930312v-3.00875H53.58725v-2.975625h7.370938v-3.550937"/>
    <path fill="#49494A" d="M13.422375 22.999906v6.423438h-13.4225v5.375312H12.57675v5.478125H-.000125v5.74782h13.692812v6.896566h6.728126L30.6305 37.97772 20.420813 22.999905"/>
    <path fill="#23A149" d="M63.797625 23.100875V39.33025h11.09v-3.752187h-6.760937V23.100875m8.450374 0V39.33025H88.44425v-3.550625H80.9055v-3.143438h6.930313v-3.00875H80.9055v-2.975625h7.37v-3.550937m16.63447 10.10953v.47344c0 1.75781-.032814 3.380624-1.48719 4.597186-1.488124 1.21782-3.27875 1.18469-5.138436 1.18469-4.430313 0-7.64125-.20375-7.64125-6.15375v-4.15844c-.034063-5.37531 2.839062-6.15343 7.606875-6.15343 4.46187 0 6.52468.43906 6.62718 5.3075v.643128h-4.46344V28.3076c-.13469-1.45344-1.18344-1.554064-2.6375-1.554064-2.468126 0-2.704064.74375-2.704064 3.07625v2.53594c0 2.433125.10219 3.347187 2.704063 3.347187 1.791874 0 2.67031-.135 2.67031-2.029062v-.473433h4.46344zm29.989718 6.15272h4.328437v-16.2275h-4.328437m21.333218 10.07478v.47344c0 1.75781-.035625 3.380624-1.488125 4.597186-1.45406 1.21782-3.27906 1.18469-5.14031 1.18469-4.42812 0-7.63781-.20375-7.63781-6.15375v-4.15844c0-5.37531 2.87344-6.15343 7.637818-6.15343 4.4625 0 6.52656.43906 6.628437 5.3075v.643128H151.7701V28.3076c-.135625-1.45344-1.184688-1.554064-2.6375-1.554064-2.468125 0-2.705.74375-2.705 3.07625v2.53594c0 2.433125.101875 3.347187 2.705 3.347187 1.791875 0 2.672187-.135 2.672187-2.029062v-.473433h4.428127z"/>
    <path fill="#49494A" d="M49.39528 51.80553h-2.3l2.976564-8.62125h3.651562l-.237187 5.40875h.06687l3.41562-5.40875h3.718436l-2.974375 8.62125h-2.30031l2.501874-6.593124h-.066564l-4.46312 6.593124h-1.99468l.0675-6.59312h-.0675m18.629405 3.245657L70.695 46.53119c.440313-1.284064.068125-1.386564-1.149375-1.386564-1.183125 0-1.62375.13625-2.096563 1.386563l-.67625 1.92687c-.405937 1.28406-.067187 1.42 1.149063 1.42 1.183437 0 1.6575-.13594 2.0975-1.42m-5.680312.23719l.845624-2.434068c.912188-2.67125 2.737188-3.14375 5.071563-3.14375 2.331563 0 3.819063.506563 2.906875 3.14375L72.3175 48.69525c-.911875 2.672187-2.738125 3.143437-5.071875 3.143437-2.366563.034688-3.819063-.47125-2.906563-3.143437m20.657876-5.510938H87.3635l-5.477812 8.62125h-3.584376l.541563-8.62125h2.333437l-.439687 6.62625h.066563M93.4485 46.6325h3.685l-.540313 1.589062H92.90725l-.574063 1.69125h3.989376l-.642188 1.892813h-6.289063l2.97625-8.62125h6.22l-.642187 1.893125H93.98975m9.872562 6.72803h-2.299375l2.975938-8.62125h3.650937l-.236875 5.40875h.066875l3.415313-5.40875h3.72l-2.975313 8.62125h-2.29875l2.502188-6.593124h-.06875l-4.464063 6.593125h-1.995l.068438-6.59312h-.068438m16.297283 1.42009h3.68625l-.54219 1.589068h-3.68406l-.575626 1.69125h3.989687l-.64218 1.892813h-6.29l2.975628-8.62125h6.220625l-.64219 1.893125h-3.92031m9.837875 6.72803h-2.3l2.97531-8.62125h3.888127l.203127 6.62625h.10219l2.129687-6.62625h2.298123l-2.975623 8.62125h-3.920937l-.168126-6.625935h-.101874m13.79437 6.62593h-2.297814l2.297814-6.625937h-2.19781l.67719-1.995313h6.827188l-.675 1.99532h-2.333437"/>
    <path fill="#23A149" d="M128.94897 33.210406v-.169375c3.077186-.70968 3.077186-2.29812 3.077186-5.00312 0-4.057182-1.825937-4.83531-5.579062-4.902182H105.65397v3.75281h4.15875v12.47469h4.328124V26.88853h11.66406c1.41969 0 1.791876.405314 1.791876 1.85969 0 1.82531.06625 2.535-1.791874 2.535h-3.346562v-1.690626h-4.36375v9.770625h4.32875v-4.3275h3.346875c1.28406 0 1.82656.8125 1.75781 2.02875v2.26562h4.32844v-3.27937c0-1.79219-1.14907-2.77282-2.9075-2.84032m-86.04569 4.76732h.034375-.101562L32.82922 22.999904h-6.526564L36.37797 37.97772 26.302655 52.921155h6.526563L42.836093 37.97772h.101562"/>
  </g>
</svg>
