<?xml version="1.0" encoding="UTF-8" standalone="no"?>
<svg width="187px" height="72px" viewBox="0 0 187 72" version="1.1" xmlns="http://www.w3.org/2000/svg" xmlns:xlink="http://www.w3.org/1999/xlink">
    <defs></defs>
    <g id="baseline" stroke="none" stroke-width="1" fill="none" fill-rule="evenodd">
        <g id="color" transform="translate(-3252.000000, 0.000000)">
            <g id="logo-color-googlevr" transform="translate(3252.000000, 22.000000)">
                <g id="Layer_1">
                    <g id="Group">
                        <g id="Shape" fill="#FF6E40">
                            <path d="M45.3191966,32.4546462 L36.0483381,32.4546462 C34.8332256,32.4546462 33.6631172,32.1476428 32.6280214,31.533636 C31.5929255,30.9196292 30.7378463,30.0424766 30.1527922,29.0337511 L27.5425504,24.297127 C27.2275213,23.7269779 26.6874713,23.4199744 26.0124088,23.4199744 L26.0124088,23.4199744 L26.0124088,23.4199744 L26.0124088,23.4199744 C25.3823504,23.4199744 24.7972962,23.7708355 24.4822671,24.297127 L21.8720254,29.0337511 C21.2869712,30.0863342 20.431892,30.9196292 19.3967961,31.533636 C18.3617003,32.1476428 17.1915919,32.4546462 15.9764794,32.4546462 L6.70562094,32.4546462 C4.90545425,32.4546462 3.24030005,31.7967818 1.98018337,30.5249105 C0.675062511,29.2968969 0,27.6741646 0,25.9198594 L0,6.49092925 C0,4.73662404 0.675062511,3.11389173 1.98018337,1.88587809 C3.24030005,0.657864451 4.90545425,0 6.70562094,0 L45.3191966,0 C47.1193633,0 48.7845175,0.657864451 50.0446341,1.88587809 C51.3047508,3.11389173 52.0248175,4.73662404 52.0248175,6.49092925 L52.0248175,25.9198594 C52.0248175,27.6741646 51.349755,29.2968969 50.0896383,30.5249105 C48.7845175,31.7529241 47.0743591,32.4546462 45.3191966,32.4546462 L45.3191966,32.4546462 Z M26.0124088,21.2709506 C27.4525421,21.2709506 28.757663,22.0165303 29.4327255,23.2445439 L32.0429672,28.0250256 C32.4480047,28.7267477 32.9880547,29.2968969 33.7081214,29.7354732 C34.4281881,30.1301918 35.2382631,30.34948 36.0483381,30.34948 L45.3191966,30.34948 C46.5343091,30.34948 47.6594133,29.9109037 48.5144924,29.0776087 C49.3695716,28.2443137 49.8196133,27.147873 49.8196133,25.963717 L49.8196133,6.53478688 C49.8196133,5.35063087 49.3695716,4.25419011 48.5144924,3.42089514 C47.6594133,2.58760017 46.5343091,2.14902387 45.3191966,2.14902387 L6.70562094,2.14902387 C5.49050842,2.14902387 4.36540424,2.58760017 3.51032506,3.42089514 C2.65524588,4.25419011 2.2052042,5.35063087 2.2052042,6.53478688 L2.2052042,25.963717 C2.2052042,27.147873 2.65524588,28.2443137 3.51032506,29.0776087 C4.36540424,29.9109037 5.49050842,30.34948 6.70562094,30.34948 L15.9764794,30.34948 C16.7865544,30.34948 17.5966294,30.1301918 18.3166961,29.7354732 C19.0367628,29.3407545 19.5768128,28.7267477 19.9818503,28.0250256 L22.5470879,23.2445439 C23.2671545,22.0165303 24.5722754,21.2709506 26.0124088,21.2709506 C25.9674046,21.2709506 25.9674046,21.2709506 26.0124088,21.2709506 L26.0124088,21.2709506 L26.0124088,21.2709506 L26.0124088,21.2709506 Z"></path>
                            <path d="M14.1763127,22.7182524 C10.485971,22.7182524 7.47069179,19.7797911 7.47069179,16.2273231 C7.47069179,12.6748551 10.485971,9.73639387 14.1763127,9.73639387 C17.8666545,9.73639387 20.8369295,12.6748551 20.8369295,16.2273231 C20.8369295,19.7797911 17.8216503,22.7182524 14.1763127,22.7182524 L14.1763127,22.7182524 Z M14.1763127,11.7977025 C11.6560794,11.7977025 9.63089182,13.7712958 9.63089182,16.2273231 C9.63089182,18.6833504 11.6560794,20.6569437 14.1763127,20.6569437 C16.6515419,20.6569437 18.7217336,18.6833504 18.7217336,16.2273231 C18.7217336,13.7712958 16.6515419,11.7977025 14.1763127,11.7977025 L14.1763127,11.7977025 Z"></path>
                            <path d="M37.8485048,22.7182524 C34.158163,22.7182524 31.187888,19.7797911 31.187888,16.2273231 C31.187888,12.6748551 34.2031672,9.73639387 37.8485048,9.73639387 C41.5388465,9.73639387 44.5541257,12.6748551 44.5541257,16.2273231 C44.5541257,19.7797911 41.4938423,22.7182524 37.8485048,22.7182524 L37.8485048,22.7182524 Z M37.8485048,11.7977025 C35.3282714,11.7977025 33.3030839,13.7712958 33.3030839,16.2273231 C33.3030839,18.6833504 35.3282714,20.6569437 37.8485048,20.6569437 C40.3687381,20.6569437 42.3939257,18.6833504 42.3939257,16.2273231 C42.3939257,13.7712958 40.323734,11.7977025 37.8485048,11.7977025 L37.8485048,11.7977025 Z"></path>
                        </g>
                        <g transform="translate(65.256043, 4.824339)" fill="#000000">
                            <g transform="translate(90.908418, 2.192882)" id="Shape">
                                <polygon points="6.70562094 18.5517775 0.0450041674 0.0877152601 2.74525421 0.0877152601 7.92073346 15.0431671 8.0107418 15.0431671 13.4112419 0.0877152601 16.1114919 0.0877152601 9.22585432 18.5517775"></polygon>
                                <path d="M17.731642,18.5517775 L17.731642,0.0877152601 L24.1672379,0.0877152601 C25.7873879,0.0877152601 27.1375129,0.614006821 28.3526255,1.66658994 C29.5227338,2.71917306 30.107788,4.03490196 30.107788,5.61377665 C30.107788,6.88564792 29.6577463,8.0259463 28.8026671,9.03467179 C27.9475879,10.0433973 26.8674879,10.6574041 25.5623671,10.9205499 L25.5173629,11.0082651 L30.8278547,18.5079199 L30.8278547,18.5956351 L27.9475879,18.5956351 L22.862117,11.139838 L20.161867,11.139838 L20.161867,18.5956351 L17.731642,18.5956351 L17.731642,18.5517775 Z M20.161867,8.85924127 L24.0772296,8.85924127 C25.0673212,8.85924127 25.8773962,8.55223786 26.5974629,7.93823104 C27.2725254,7.32422422 27.6325588,6.53478688 27.6325588,5.61377665 C27.6325588,4.8243393 27.3175296,4.07875959 26.6874713,3.37703751 C26.0574129,2.71917306 25.2473379,2.36831202 24.2122421,2.36831202 L20.161867,2.36831202 L20.161867,8.85924127 L20.161867,8.85924127 Z"></path>
                            </g>
                            <g id="XMLID_1_">
                                <path d="M0.0900083348,10.5696888 C0.0900083348,4.73662404 5.13047508,0 11.0710252,0 C14.3563294,0 16.7415503,1.27187127 18.4967128,2.89460358 L16.4265211,4.91205456 C15.1664044,3.77175618 13.456246,2.85074595 11.0710252,2.85074595 C6.70562094,2.85074595 3.28530422,6.2716411 3.28530422,10.5258312 C3.28530422,14.7800213 6.70562094,18.2009165 11.0710252,18.2009165 C13.9062877,18.2009165 15.5264377,17.1044757 16.5615336,16.0957502 C17.4166128,15.2624553 17.9566628,14.0782992 18.1816836,12.4555669 L11.1160293,12.4555669 L11.1160293,9.64867861 L21.0619503,9.64867861 C21.1519587,10.1749702 21.241967,10.788977 21.241967,11.4468414 C21.241967,13.5958653 20.6119087,16.2711807 18.6767295,18.2009165 C16.7865544,20.1306522 14.3563294,21.1832353 11.1160293,21.1832353 C5.13047508,21.1393777 0.0900083348,16.4027536 0.0900083348,10.5696888 L0.0900083348,10.5696888 Z" id="Shape"></path>
                                <path d="M29.297713,7.54351237 C25.4273546,7.54351237 22.2770629,10.3942583 22.2770629,14.341445 C22.2770629,18.2447741 25.4273546,21.1393777 29.297713,21.1393777 C33.1680714,21.1393777 36.3183631,18.2447741 36.3183631,14.341445 C36.2733589,10.3942583 33.1230672,7.54351237 29.297713,7.54351237 L29.297713,7.54351237 Z M29.297713,18.4640622 C27.1825171,18.4640622 25.3373462,16.7536147 25.3373462,14.341445 C25.3373462,11.8854177 27.1825171,10.2188278 29.297713,10.2188278 C31.4129088,10.2188278 33.2580797,11.8854177 33.2580797,14.341445 C33.2130755,16.7536147 31.4129088,18.4640622 29.297713,18.4640622 L29.297713,18.4640622 Z" id="Shape"></path>
                                <path d="M44.5541257,7.54351237 C40.6837673,7.54351237 37.5334756,10.3942583 37.5334756,14.341445 C37.5334756,18.2447741 40.6837673,21.1393777 44.5541257,21.1393777 C48.4244841,21.1393777 51.5747758,18.2447741 51.5747758,14.341445 C51.5747758,10.3942583 48.4244841,7.54351237 44.5541257,7.54351237 L44.5541257,7.54351237 Z M44.5541257,18.4640622 C42.4389298,18.4640622 40.593759,16.7536147 40.593759,14.341445 C40.593759,11.8854177 42.4389298,10.2188278 44.5541257,10.2188278 C46.6693216,10.2188278 48.5144924,11.8854177 48.5144924,14.341445 C48.5144924,16.7536147 46.6693216,18.4640622 44.5541257,18.4640622 L44.5541257,18.4640622 Z" id="Shape"></path>
                                <path d="M63.3208635,7.98208867 L63.3208635,9.07852942 L63.2308552,9.07852942 C62.5557927,8.28909208 61.2056677,7.54351237 59.5405135,7.54351237 C56.0301884,7.54351237 52.8348925,10.5258312 52.8348925,14.3853027 C52.8348925,18.2009165 56.0301884,21.1832353 59.5405135,21.1832353 C61.2056677,21.1832353 62.5107885,20.4815132 63.2308552,19.6482183 L63.3208635,19.6482183 L63.3208635,20.6130861 C63.3208635,23.2006863 61.8807302,24.6041305 59.5855176,24.6041305 C57.6953426,24.6041305 56.5252342,23.2884016 56.0751926,22.1919608 L53.4199467,23.2884016 C54.1850175,25.0865644 56.2102051,27.3233035 59.5855176,27.3233035 C63.185851,27.3233035 66.2011302,25.2619949 66.2011302,20.2183674 L66.2011302,7.98208867 L63.3208635,7.98208867 L63.3208635,7.98208867 Z M59.8105385,18.4640622 C57.6953426,18.4640622 55.9401801,16.7536147 55.9401801,14.3853027 C55.9401801,11.973133 57.6953426,10.2188278 59.8105385,10.2188278 C61.8807302,10.2188278 63.5458844,11.973133 63.5458844,14.3853027 C63.5458844,16.7536147 61.8807302,18.4640622 59.8105385,18.4640622 L59.8105385,18.4640622 Z" id="Shape"></path>
                                <rect id="Rectangle-path" x="68.3613303" y="0.745579711" width="3.06028338" height="19.9990793"></rect>
                                <path d="M79.837393,18.4640622 C78.2622471,18.4640622 77.1821471,17.7623402 76.4620804,16.4027536 L85.777943,12.6309975 L85.4629139,11.8415601 C84.8778597,10.3065431 83.1226972,7.49965474 79.4773596,7.49965474 C75.8770262,7.49965474 72.9067512,10.2626854 72.9067512,14.2975874 C72.9067512,18.1132012 75.8770262,21.09552 79.837393,21.09552 C83.0326888,21.09552 84.8778597,19.209642 85.6429305,18.0693436 L83.2577097,16.5343265 C82.4926388,17.7184825 81.3675346,18.4640622 79.837393,18.4640622 L79.837393,18.4640622 Z M79.5673679,10.1749702 C80.7824805,10.1749702 81.8175763,10.788977 82.1776097,11.622272 L75.9220304,14.1660145 C75.8770262,11.5345567 78.0372263,10.1749702 79.5673679,10.1749702 L79.5673679,10.1749702 Z" id="Shape"></path>
                            </g>
                        </g>
                    </g>
                </g>
            </g>
        </g>
    </g>
</svg>