<svg xmlns="http://www.w3.org/2000/svg" width="132" height="130" viewBox="0 0 132 130" xmlns:xlink="http://www.w3.org/1999/xlink">
  <defs>
    <path id="a" d="M0 .035h131.793v35.927H0"/>
    <path id="c" d="M0 .035h131.793v35.927H0l22.822-10.904"/>
  </defs>
  <g fill="none" fill-rule="evenodd">
    <g transform="translate(0 43)">
      <mask id="b" fill="#fff">
        <use xlink:href="#a"/>
      </mask>
      <path fill="#000" d="M25.384 15.412H14.31c-.287 0-.52.234-.52.522v5.458c0 .288.233.522.52.522h4.32v6.782s-.97.333-3.653.333c-3.164 0-7.584-1.17-7.584-10.97s4.603-11.09 8.924-11.09c3.74 0 5.352.66 6.377.98.322.1.62-.23.62-.52l1.236-5.27c0-.14-.046-.3-.198-.41-.417-.3-2.957-1.738-9.375-1.738C7.584.04 0 3.21 0 18.45s8.683 17.514 16 17.514c6.058 0 9.733-2.61 9.733-2.61.152-.084.168-.297.168-.395V15.93c0-.288-.23-.522-.51-.522" mask="url(#b)"/>
    </g>
    <path fill="#000" d="M82.46 44.86c0-.29-.23-.524-.515-.524H75.71c-.286 0-.517.235-.517.525v12.15h-9.72V44.86c0-.29-.228-.524-.513-.524h-6.236c-.284 0-.515.235-.515.525v32.9c0 .29.23.53.51.53h6.23c.28 0 .51-.23.51-.52V63.69h9.72l-.02 14.07c0 .29.23.526.51.526h6.25c.29 0 .515-.236.516-.526v-32.9zm-45.31 4.317c0-2.263-1.8-4.092-4.02-4.092-2.22 0-4.02 1.83-4.02 4.092 0 2.26 1.8 4.095 4.02 4.095 2.22 0 4.02-1.834 4.02-4.095m-.445 21.638V55.632c0-.29-.23-.524-.516-.524h-6.22c-.29 0-.54.296-.54.584v21.753c0 .64.39.83.9.83h5.6c.61 0 .76-.304.76-.84v-6.62zm69.453-15.658H99.97c-.284 0-.515.236-.515.526V71.81s-1.572 1.16-3.804 1.16c-2.23 0-2.82-1.02-2.82-3.222V55.683c0-.29-.23-.526-.51-.526h-6.28c-.28 0-.51.236-.51.526v15.13c0 6.54 3.62 8.14 8.59 8.14 4.08 0 7.38-2.27 7.38-2.27s.16 1.196.23 1.338c.07.15.26.29.46.29l3.998-.02c.283 0 .515-.23.515-.52V55.69c0-.29-.23-.52-.517-.52"/>
    <g transform="translate(0 43)">
      <mask id="d" fill="#fff">
        <use xlink:href="#c"/>
      </mask>
      <path fill="#000" d="M120.63 29.95c-2.147-.065-3.602-1.047-3.602-1.047V18.487s1.436-.888 3.198-1.046c2.228-.2 4.376.48 4.376 5.84 0 5.65-.97 6.77-3.972 6.68m2.44-18.53c-3.514 0-5.905 1.58-5.905 1.58V1.87c0-.29-.23-.53-.514-.53h-6.25c-.28 0-.51.23-.51.52v32.89c0 .29.23.527.52.527h4.34c.2 0 .34-.1.45-.28.11-.176.27-1.516.27-1.516s2.56 2.45 7.4 2.45c5.69 0 8.95-2.91 8.95-13.04 0-10.14-5.205-11.463-8.723-11.463" mask="url(#d)"/>
    </g>
    <path fill="#000" d="M54.627 55.105H49.95l-.007-6.23c0-.235-.12-.353-.392-.353h-6.37c-.24 0-.38.11-.38.35v6.437s-3.19.77-3.41.84c-.21.06-.37.26-.37.5v4.04c0 .29.23.52.52.52h3.26v9.73c0 7.22 5.03 7.93 8.43 7.93 1.55 0 3.41-.5 3.72-.618.186-.07.294-.26.294-.47l.006-4.45c0-.29-.243-.526-.517-.526s-.97.11-1.69.11c-2.3 0-3.08-1.075-3.08-2.47V61.2h4.672c.286 0 .517-.23.517-.522v-5.06c0-.29-.23-.526-.517-.526"/>
  </g>
</svg>
