<svg xmlns="http://www.w3.org/2000/svg" width="162" height="72" viewBox="0 0 162 72">
  <defs>
    <linearGradient id="a" x1="50%" x2="50%" y1="0%" y2="100%">
      <stop stop-color="#00BFD9" offset="0%"/>
      <stop stop-color="#0073A4" offset="100%"/>
    </linearGradient>
  </defs>
  <g fill="none" fill-rule="evenodd" transform="translate(0 24)">
    <path fill="#000000" d="M58.5007327,29.6105722 C53.0221221,33.6444795 45.0774319,35.7873139 38.2397416,35.7873139 C28.6540248,35.7873139 20.0211929,32.2519232 13.4900602,26.369857 C12.9758655,25.9054331 13.4339097,25.2743603 14.0491752,25.6312609 C21.0964142,29.724294 29.8116796,32.189698 38.8143876,32.189698 C44.8881929,32.189698 51.5624496,30.9304132 57.7041133,28.3305457 C58.630954,27.9400291 59.4077416,28.9415921 58.5007327,29.6105722"/>
    <path fill="#000000" d="M60.7798434 27.0108C60.0821442 26.1167603 56.1475513 26.5883364 54.3834717 26.7976609 53.8480115 26.8641775 53.7624717 26.3980848 54.2465602 26.0588265 57.3835779 23.8609192 62.5214628 24.4958066 63.1180912 25.2303497 63.720215 25.9732371 62.9615867 31.1138464 60.0216929 33.5675682 59.5679496 33.945449 59.1395336 33.7439921 59.3402416 33.2438066 60.0025779 31.5980583 61.4820823 27.9057934 60.7798434 27.0108M54.505808 10.5301907L54.505808 8.3942702C54.5072416 8.07217748 54.7521531 7.85474702 55.049631 7.85474702L64.6417991 7.85307815C64.950985 7.85474702 65.1958965 8.07813775 65.1958965 8.39307815L65.1958965 10.2290781C65.1913566 10.5313828 64.9349761 10.9338199 64.472392 11.5701377L59.5041531 18.6490252C61.3466044 18.6061113 63.2989673 18.8819523 64.9765513 19.8210517 65.3531177 20.0344291 65.4541885 20.345555 65.4847726 20.6552503L65.4847726 22.9311179C65.4847726 23.248204 65.1387903 23.6089192 64.7796664 23.4227205 61.826631 21.8797272 57.9070912 21.7109325 54.6427195 23.438694 54.3079673 23.6177404 53.9603124 23.2596477 53.9603124 22.9458993L53.9603124 20.7789854C53.9603124 20.432098 53.9638965 19.8396477 54.3163301 19.3110914L60.0749761 11.0713828 55.0625336 11.0704291C54.7521531 11.0704291 54.5072416 10.8513298 54.505808 10.5301907M19.5115142 23.8690013L16.5950363 23.8690013C16.3178681 23.8520742 16.0944611 23.6475179 16.0724788 23.3788291L16.0729566 8.43191523C16.0729566 8.13318675 16.3274257 7.89477616 16.6390009 7.89477616L19.3547708 7.89286887C19.6388681 7.9069351 19.8687265 8.12484238 19.8871248 8.39424636L19.8871248 10.3451603 19.9413637 10.3451603C20.6490982 8.46123974 21.9854788 7.57769007 23.781815 7.57769007 25.6087354 7.57769007 26.7522929 8.46123974 27.5697 10.3451603 28.2776735 8.46123974 29.8857265 7.57769007 31.6010628 7.57769007 32.8256204 7.57769007 34.161523 8.08216689 34.9779743 9.21580927 35.9057708 10.4734252 35.7155761 12.2946437 35.7155761 13.9003391L35.7141425 23.3335311C35.7141425 23.6301139 35.4601513 23.8690013 35.1509655 23.8690013L32.2347265 23.8690013C31.9417885 23.8520742 31.7114522 23.6189086 31.7114522 23.3347232L31.7114522 15.4123391C31.7114522 14.7812662 31.766169 13.2096636 31.6287796 12.6133987 31.411346 11.6046834 30.7552221 11.3216901 29.9115319 11.3216901 29.2045142 11.3216901 28.4669124 11.7961272 28.1687177 12.5506967 27.8686115 13.3050278 27.8958504 14.5624053 27.8958504 15.4123391L27.8958504 23.3335311C27.8958504 23.6301139 27.6423372 23.8690013 27.3319566 23.8690013L24.418585 23.8690013C24.1242133 23.8520742 23.8950717 23.6189086 23.8950717 23.3347232L23.890054 15.4123391C23.890054 13.7439417 24.1633991 11.2887894 22.0937177 11.2887894 19.9956027 11.2887894 20.0766027 13.681955 20.0766027 15.4123391L20.075408 23.3335311C20.075408 23.6301139 19.8233283 23.8690013 19.5115142 23.8690013M73.4812407 10.6297987C71.3288867 10.6297987 71.1922142 13.5553351 71.1922142 15.379653 71.1922142 17.2037325 71.1652142 21.1026993 73.453285 21.1026993 75.7155504 21.1026993 75.8230726 17.959494 75.8230726 16.0414808 75.8230726 14.7812424 75.7693115 13.2723417 75.3877274 12.0774278 75.0596655 11.0405801 74.4087982 10.6297987 73.4812407 10.6297987M73.453285 7.57885828C77.7842761 7.57885828 80.1268248 11.2887656 80.1268248 16.0085801 80.1268248 20.5698517 77.541515 24.1860636 73.453285 24.1860636 69.2042496 24.1860636 66.8889398 20.473057 66.8889398 15.8481298 66.8889398 11.1950702 69.2310106 7.57885828 73.453285 7.57885828M85.7465044 23.8690013L82.8362389 23.8690013C82.546646 23.8520742 82.3132035 23.6189086 82.3132035 23.3347232L82.3108142 8.38208742C82.334708 8.11029934 82.5772301 7.89477616 82.8696903 7.89477616L85.5761416 7.89286887C85.8320442 7.9069351 86.0430265 8.08216689 86.0941593 8.3165245L86.0941593 10.5969219 86.1512655 10.5969219C86.967 8.55374305 88.1136637 7.57769007 90.1286283 7.57769007 91.4356195 7.57769007 92.7153717 8.05117351 93.5330177 9.34002119 94.2947522 10.5342199 94.2947522 12.5506967 94.2947522 13.9959417L94.2947522 23.4002861C94.2634513 23.6646834 94.0245133 23.8690013 93.7358761 23.8690013L90.8107965 23.8690013C90.5410354 23.8532662 90.3236018 23.6546702 90.2937345 23.4002861L90.2937345 15.284551C90.2937345 13.6490543 90.4832124 11.2589881 88.4646637 11.2589881 87.7571681 11.2589881 87.1043894 11.7322331 86.7760885 12.4527099 86.3670265 13.3691603 86.3135044 14.2758358 86.3135044 15.284551L86.3135044 23.3335311C86.3089646 23.6301139 86.0571239 23.8690013 85.7465044 23.8690013M49.801046 23.8322384C49.6087009 24.006755 49.3289044 24.0165298 49.1124265 23.9018543 48.1420991 23.0993642 47.9719752 22.7255364 47.4384265 21.9592848 45.8380195 23.5890596 44.7001965 24.0792318 42.6278867 24.0792318 40.1704088 24.0792318 38.2589044 22.5650861 38.2589044 19.5382252 38.2589044 17.1755762 39.5420018 15.5670199 41.3710726 14.778596 42.954515 14.0848212 45.168754 13.9601325 46.8590018 13.7710728L46.8590018 13.3931921C46.8590018 12.7001325 46.9144354 11.8771391 46.5058513 11.2837351 46.1512673 10.7434967 45.4664708 10.5243974 44.8669752 10.5243974 43.7518513 10.5243974 42.7650372 11.0925298 42.5201257 12.2724238 42.4689929 12.5337219 42.2780814 12.7950199 42.0130991 12.806702L39.1838336 12.5008212C38.9460903 12.4500397 38.6825416 12.2566887 38.7480106 11.8940662 39.4000726 8.47001325 42.4959929 7.43531126 45.2769929 7.43531126 46.6953292 7.43531126 48.5514 7.81319205 49.6713027 8.88365563 51.0925062 10.2092185 50.9544 11.9736954 50.9544 13.8974305L50.9544 18.4346225C50.9544 19.7983311 51.5237894 20.3962649 52.0556655 21.1322384 52.2429929 21.3980662 52.2836124 21.7108609 52.0480195 21.905404 51.4513912 22.4058278 50.3924177 23.3220397 49.808931 23.8391523L49.801046 23.8322384zM46.8590018 16.7352318C46.8590018 17.8703046 46.8869575 18.8136954 46.3120726 19.8212185 45.8494885 20.6423046 45.1118867 21.1467815 44.2920903 21.1467815 43.1743381 21.1467815 42.5179752 20.2944636 42.5179752 19.0327947 42.5179752 16.5516556 44.7487009 16.1024901 46.8590018 16.1024901L46.8590018 16.7352318z"/>
    <path fill="#000000" d="M11.5433124,16.4157616 C11.3490558,16.5902781 11.0685425,16.600053 10.8520646,16.4853775 C9.88388761,15.6828874 9.70850708,15.3090596 9.18021504,14.5428079 C7.57837434,16.1725828 6.44198496,16.662755 4.36871947,16.662755 C1.91148053,16.662755 -2.38938046e-05,15.1486093 -2.38938046e-05,12.1217483 C-2.38938046e-05,9.75909934 1.28283451,8.15054305 3.11286106,7.36211921 C4.69463097,6.66834437 6.90600265,6.54365563 8.59792301,6.35459603 L8.59792301,5.97671523 C8.59792301,5.28365563 8.65359558,4.46066225 8.24477257,3.86725828 C7.89090531,3.32701987 7.20658673,3.10792053 6.60494071,3.10792053 C5.49340088,3.10792053 4.50324159,3.67605298 4.26167522,4.85594702 C4.20910885,5.11724503 4.01986991,5.37854305 3.75273717,5.39022517 L0.9261,5.08434437 C0.686445133,5.03356291 0.420029204,4.84021192 0.489560177,4.4775894 C1.13756018,1.05353642 4.23778142,0.0188344371 7.01591416,0.0188344371 C8.43544513,0.0188344371 10.2939053,0.396715232 11.4102239,1.46717881 C12.8314274,2.79274172 12.6945159,4.55721854 12.6945159,6.48095364 L12.6945159,11.0181457 C12.6945159,12.3818543 13.2622327,12.9797881 13.7969761,13.7157616 C13.9843035,13.9815894 14.0232504,14.2943841 13.7869407,14.4889272 C13.1915071,14.989351 12.1322947,15.9055629 11.5483301,16.4226755 L11.5433124,16.4157616 Z M8.59792301,9.31875497 C8.59792301,10.4538278 8.62922389,11.3972185 8.05386106,12.4047417 C7.58984336,13.2258278 6.85343628,13.7303046 6.03340088,13.7303046 C4.91469292,13.7303046 4.25833009,12.8779868 4.25833009,11.6163179 C4.25833009,9.13517881 6.48905575,8.68601325 8.59792301,8.68601325 L8.59792301,9.31875497 Z" transform="translate(0 7.416)"/>
    <path fill="url(#a)" d="M118.737327,21.3623285 C117.896742,21.3623285 117.527344,20.9937457 117.527344,19.7864344 L117.527344,2.38410596e-05 L114.569769,2.38410596e-05 L114.569769,20.6244477 C114.569769,22.7374808 115.645229,23.9447921 117.86353,23.9447921 C118.636256,23.9447921 119.577911,23.7774278 120.317185,23.4753616 L119.712194,21.1615868 C119.442911,21.2614808 118.972919,21.3623285 118.737327,21.3623285"/>
    <polygon fill="url(#a)" points="145.727 7.881 141.594 13.716 137.561 7.881 134.3 7.881 139.879 15.795 134.099 23.744 137.292 23.744 141.493 17.808 145.66 23.744 148.853 23.744 143.207 15.728 148.887 7.881"/>
    <path fill="url(#a)" d="M109.023324 19.8530225C108.351191 20.5575258 107.006687 21.6644662 105.191235 21.6644662 103.477572 21.6644662 102.401873 20.5906649 102.401873 18.9477775 102.401873 17.9755391 102.838651 17.1701881 103.645306 16.7012344 104.317439 16.3657907 105.158023 16.1645722 106.435147 16.1309563L109.023324 16.0305854 109.023324 19.8530225zM111.980899 13.0123073C111.980899 9.18939338 109.695457 7.47879735 106.098961 7.47879735 104.217085 7.47879735 102.199731 7.94822781 100.351545 9.05469139L101.393793 11.1004927C102.536395 10.4298437 103.914112 9.86004238 105.729085 9.86004238 107.64489 9.86004238 109.023324 10.8322808 109.023324 13.0795391L109.023324 13.9175523 106.065749 14.0184C104.451961 14.0853934 103.174598 14.2861351 102.065926 14.8232742 100.452616 15.594294 99.3771558 17.0028238 99.3771558 19.115857 99.3771558 22.1672742 101.561527 24.0790887 104.48589 24.0790887 106.468359 24.0790887 108.014527 23.1738437 109.224988 22.033049L109.728908 23.743645 112.283156 23.743645C112.08197 22.9387709 111.980899 21.4963868 111.980899 18.7804132L111.980899 13.0123073zM123.510114 14.2531152C123.544043 11.8380159 124.92176 9.8265457 127.207681 9.8265457 129.593716 9.8265457 130.669176 12.0397113 130.736318 14.2531152L123.510114 14.2531152zM127.207681 7.47843974C123.140716 7.47843974 120.485397 10.8657775 120.485397 15.6947841 120.485397 20.2224397 122.905123 24.0792079 128.181592 24.0792079 129.997043 24.0792079 131.9463 23.5759232 133.425327 22.6370623L132.48415 20.5910225C131.375238 21.195155 130.064185 21.6648238 128.552185 21.6648238 125.392229 21.6648238 123.577256 19.4507046 123.510114 16.4665192L133.795203 16.4665192 133.795203 15.7286384C133.795203 10.6645589 131.375238 7.47843974 127.207681 7.47843974L127.207681 7.47843974zM158.736035 19.8530225C158.063902 20.5575258 156.719397 21.6644662 154.903946 21.6644662 153.190282 21.6644662 152.114583 20.5906649 152.114583 18.9477775 152.114583 17.9755391 152.551362 17.1701881 153.358017 16.7012344 154.03015 16.3657907 154.870734 16.1645722 156.147858 16.1309563L158.736035 16.0305854 158.736035 19.8530225zM161.69361 18.7804132L161.69361 13.0123073C161.69361 9.18939338 159.408167 7.47879735 155.811672 7.47879735 153.929796 7.47879735 151.912442 7.94822781 150.064256 9.05469139L151.105787 11.1004927C152.249105 10.4298437 153.626822 9.86004238 155.441796 9.86004238 157.35784 9.86004238 158.736035 10.8322808 158.736035 13.0795391L158.736035 13.9175523 155.778459 14.0184C154.164672 14.0853934 152.887309 14.2861351 151.778636 14.8232742 150.165327 15.594294 149.08915 17.0028238 149.08915 19.115857 149.08915 22.1672742 151.274238 24.0790887 154.198601 24.0790887 156.18107 24.0790887 157.727238 23.1738437 158.937698 22.033049L159.441619 23.743645 161.995866 23.743645C161.794681 22.9387709 161.69361 21.4963868 161.69361 18.7804132L161.69361 18.7804132z"/>
  </g>
</svg>
