<svg xmlns="http://www.w3.org/2000/svg" width="196" height="130" viewBox="0 0 196 130">
  <g fill="none" fill-rule="evenodd">
    <path fill="#000" d="M181.336 58.083l4.157 11.22h-8.453l4.296-11.22zm-4.464-4.37l-9.598 23.95h6.78l1.518-4.232h11.35l1.45 4.24h7.36l-9.68-23.95h-9.18zm-19.27 23.96h6.875v-23.97h-6.874V77.67zm-47.74-23.968L104.127 72.7 98.63 53.705h-7.42l7.85 23.967h9.907l7.912-23.967h-7.02zm27.798 5.217h2.955c4.287 0 7.06 1.898 7.06 6.816 0 4.923-2.773 6.818-7.06 6.818h-2.955V58.922zm-6.82-5.217v23.967h11.15c5.94 0 7.877-.973 9.976-3.154 1.482-1.53 2.438-4.892 2.438-8.567 0-3.36-.81-6.37-2.223-8.24-2.54-3.343-6.21-4-11.69-4h-9.64zM65.7 53.67v24.002h6.933V59.447l5.374.002c1.78 0 3.047.43 3.905 1.33 1.087 1.14 1.53 2.98 1.53 6.344v10.54h6.72V64.41c0-9.464-6.126-10.74-12.12-10.74H65.7zm54.073.033l.002 23.97h6.875v-23.97h-6.877z"/>
    <path fill="#77B900" d="M5.935 63.414s5.252-7.632 15.74-8.42v-2.77C10.06 53.144 0 62.83 0 62.83s5.697 16.22 21.675 17.705v-2.943C9.95 76.14 5.935 63.414 5.935 63.414zm15.74 8.325v2.69C12.813 72.87 10.353 63.8 10.353 63.8s4.256-4.643 11.322-5.394v2.957h-.014c-3.7-.44-6.6 2.97-6.6 2.97s1.628 5.745 6.62 7.398zm0-24.63v5.11c.34-.03.683-.05 1.024-.06 13.2-.44 21.81 10.662 21.81 10.662S34.62 74.66 24.33 74.66c-.945 0-1.828-.085-2.658-.23v3.158c.71.09 1.446.14 2.213.14 9.58 0 16.51-4.818 23.22-10.52 1.11.877 5.665 3.01 6.602 3.945-6.38 5.26-21.248 9.5-29.676 9.5-.81 0-1.59-.05-2.36-.122v4.44h36.42V47.12H21.68zm0 11.294v-3.42c.337-.024.677-.04 1.024-.05 9.49-.295 15.72 8.035 15.72 8.035s-6.73 9.204-13.947 9.204c-1.038 0-1.97-.164-2.807-.44V61.37c3.697.44 4.44 2.048 6.663 5.697l4.943-4.105s-3.608-4.66-9.69-4.66c-.66 0-1.296.044-1.916.11z"/>
  </g>
</svg>
