<?xml version="1.0" encoding="UTF-8" standalone="no"?>
<!-- Generator: Adobe Illustrator 17.0.0, SVG Export Plug-In . SVG Version: 6.00 Build 0)  -->

<svg
   xmlns:dc="http://purl.org/dc/elements/1.1/"
   xmlns:cc="http://creativecommons.org/ns#"
   xmlns:rdf="http://www.w3.org/1999/02/22-rdf-syntax-ns#"
   xmlns:svg="http://www.w3.org/2000/svg"
   xmlns="http://www.w3.org/2000/svg"
   xmlns:sodipodi="http://sodipodi.sourceforge.net/DTD/sodipodi-0.dtd"
   xmlns:inkscape="http://www.inkscape.org/namespaces/inkscape"
   version="1.1"
   id="Layer_1"
   x="0px"
   y="0px"
   width="453.98099"
   height="158.27"
   viewBox="0 0 453.98098 158.27001"
   enable-background="new 0 0 610 240"
   xml:space="preserve"
   inkscape:version="0.91 r13725"
   sodipodi:docname="logo_wordmark.svg"><metadata
     id="metadata34"><rdf:RDF><cc:Work
         rdf:about=""><dc:format>image/svg+xml</dc:format><dc:type
           rdf:resource="http://purl.org/dc/dcmitype/StillImage" /><dc:title></dc:title></cc:Work></rdf:RDF></metadata><defs
     id="defs32" /><sodipodi:namedview
     pagecolor="#ffffff"
     bordercolor="#666666"
     borderopacity="1"
     objecttolerance="10"
     gridtolerance="10"
     guidetolerance="10"
     inkscape:pageopacity="0"
     inkscape:pageshadow="2"
     inkscape:window-width="640"
     inkscape:window-height="480"
     id="namedview30"
     showgrid="false"
     fit-margin-left="20"
     fit-margin-right="20"
     fit-margin-top="20"
     fit-margin-bottom="20"
     inkscape:zoom="0.51639344"
     inkscape:cx="227.977"
     inkscape:cy="76.853013"
     inkscape:window-x="0"
     inkscape:window-y="23"
     inkscape:window-maximized="0"
     inkscape:current-layer="Layer_1" /><g
     id="_x33_20-mark-blue"
     transform="translate(-77.023,-38.583)"><g
       id="g4"><g
         id="g6"><g
           id="g8"><path
             d="m 136.397,58.657 -39.374,22.753 0,52.08 0,0 c 0,23.935 19.428,43.363 43.363,43.363 7.904,0 15.365,-2.142 21.718,-5.836 l 0,0 31.987,-18.468 c 12.558,-6.575 21.201,-19.724 21.201,-34.942 l 0,-54.444 0,0 0,0 -7.904,-4.58 -31.544,18.173 0,0 0,0 0,56.66 c 0,2.438 -0.222,4.802 -0.739,7.166 -0.443,2.29 -1.182,4.506 -2.068,6.649 -0.222,0.517 -0.517,1.108 -0.739,1.625 -0.96,-0.074 -1.921,-0.222 -2.807,-0.443 -1.995,-0.443 -3.989,-1.034 -5.91,-1.847 -1.847,-0.813 -3.694,-1.773 -5.319,-2.881 -1.699,-1.108 -3.25,-2.438 -4.654,-3.841 -1.404,-1.404 -2.733,-3.029 -3.841,-4.654 -1.108,-1.699 -2.142,-3.472 -2.881,-5.319 -0.813,-1.921 -1.404,-3.915 -1.847,-5.91 -0.443,-2.068 -0.665,-4.211 -0.665,-6.353 l 0,0 0,-54.444 -7.977,-4.507 z m 17.73,107.559 c -2.142,0.886 -4.358,1.625 -6.649,2.068 -2.364,0.443 -4.728,0.739 -7.166,0.739 -2.438,0 -4.802,-0.222 -7.166,-0.739 -2.29,-0.443 -4.506,-1.182 -6.649,-2.068 -2.068,-0.886 -4.137,-1.995 -5.984,-3.25 -1.847,-1.256 -3.62,-2.733 -5.245,-4.358 -1.625,-1.625 -3.029,-3.398 -4.358,-5.245 -1.256,-1.921 -2.364,-3.915 -3.25,-5.984 -0.886,-2.142 -1.625,-4.358 -2.068,-6.649 -0.443,-2.364 -0.739,-4.728 -0.739,-7.166 l 0,-47.574 31.544,-18.173 0,49.864 0,0 c 0,18.985 13.371,34.794 31.248,38.561 -0.665,0.813 -1.404,1.625 -2.216,2.438 -1.625,1.625 -3.398,3.029 -5.245,4.358 -1.92,1.183 -3.915,2.291 -6.057,3.178 z m 52.597,-42.255 c -0.443,1.995 -1.034,3.989 -1.847,5.91 -0.813,1.847 -1.773,3.694 -2.881,5.319 -1.108,1.699 -2.438,3.25 -3.841,4.654 -1.404,1.404 -3.029,2.733 -4.654,3.841 -1.699,1.108 -3.472,2.142 -5.319,2.881 -1.921,0.813 -3.915,1.404 -5.91,1.847 -0.443,0.074 -0.813,0.148 -1.256,0.222 1.773,-4.728 2.733,-9.825 2.733,-15.218 l 0,0 0,-52.155 0,0 23.639,-13.666 0,49.864 c -0.073,2.29 -0.295,4.432 -0.664,6.501 z"
             id="path10"
             inkscape:connector-curvature="0"
             style="fill:#1ca7d4" /></g></g></g><g
       id="wordmark_13_"><g
         id="g13"><path
           d="m 295.371,157.277 c 0,4.728 -3.915,8.569 -9.308,8.569 -5.393,0 -9.16,-3.841 -9.16,-8.569 l 0,-16.917 -2.807,0 0,16.991 c 0,6.058 4.728,11.007 12.041,11.007 7.313,0 12.115,-4.949 12.115,-11.007 l 0,-16.991 -2.807,0 -0.074,16.917 z m 30.214,-16.917 -8.939,0 0,27.702 8.865,0 c 8.274,0 13.814,-5.097 13.814,-13.888 0.074,-8.643 -5.467,-13.814 -13.74,-13.814 z m -0.296,25.191 -5.836,0 0,-22.679 5.836,0 c 6.722,0 11.229,3.989 11.229,11.302 0.074,7.314 -4.433,11.377 -11.229,11.377 z m 79.339,0.369 c -6.501,0 -11.155,-5.319 -11.155,-11.893 0,-6.501 4.654,-11.45 11.081,-11.45 5.171,0 8.348,3.029 8.348,3.029 l 1.477,-1.995 c 0,0 -3.324,-3.546 -9.899,-3.546 -7.83,0 -13.814,6.058 -13.814,14.036 0,7.978 5.836,14.405 13.962,14.405 6.796,0 10.49,-4.285 10.49,-4.285 l -1.551,-1.921 c 0,-0.074 -3.398,3.62 -8.939,3.62 z m 28.441,2.142 2.807,0 0,-27.702 -2.807,0 0,27.702 z m 19.207,-25.19 9.973,0 0,25.191 2.807,0 0,-25.191 9.973,0 0,-2.512 -22.679,0 0,2.512 -0.074,0 z m 55.7,-2.512 -8.791,12.706 -0.074,0 -8.865,-12.706 -3.177,0 10.638,15.735 0,11.893 2.807,0 0,-11.893 10.49,-15.735 -3.028,0 z m -144.569,0 -11.229,27.702 2.955,0 2.955,-7.387 12.484,-2.586 3.989,9.899 2.955,0 -11.229,-27.702 -2.881,0 0,0.074 z m -3.989,17.212 5.467,-13.445 0.074,0 4.654,11.302 -10.195,2.143 z"
           id="path15"
           inkscape:connector-curvature="0"
           style="fill:#2d3c49" /></g></g><line
       stroke-miterlimit="10"
       x1="274.31699"
       y1="121.079"
       x2="510.70901"
       y2="121.079"
       id="line17"
       style="fill:none;stroke:#7a94a9;stroke-miterlimit:10" /><g
       id="g19"><path
         d="m 287.245,68.039 c -1.182,3.177 -2.586,6.279 -4.211,9.234 l 0,26.963 -2.955,0 0,-22.309 c -1.108,1.551 -2.216,2.955 -3.398,4.211 l -1.699,-2.955 c 3.767,-3.915 7.313,-9.899 9.456,-16.03 l 2.807,0.886 z m 10.194,11.303 c -0.739,9.973 -2.955,19.207 -10.342,24.6 l -2.216,-2.216 c 6.87,-4.802 8.939,-13.297 9.603,-22.383 l -9.308,0 0,-2.955 9.456,0 c 0.148,-3.029 0.148,-5.836 0.148,-8.865 l 2.955,0 c 0,3.029 -0.074,5.836 -0.222,8.865 l 14.11,0 0,2.955 -14.184,0 z m 10.49,21.275 c 1.182,0 1.108,-0.96 1.256,-6.279 0.813,0.443 2.216,0.96 2.955,1.33 -0.295,6.058 -0.96,7.683 -3.915,7.683 l -4.728,0 c -3.177,0 -3.989,-0.96 -3.989,-4.285 l 0,-15.957 2.955,0 0,15.956 c 0,1.182 0.222,1.477 1.404,1.477 l 4.063,0 0,0.075 z m -0.886,-24.969 c -1.108,-1.699 -3.472,-3.989 -5.467,-5.91 l 2.512,-1.699 c 1.921,1.773 4.285,4.285 5.467,5.91 l -2.512,1.699 z"
         id="path21"
         inkscape:connector-curvature="0"
         style="fill:#2d3c49" /><path
         d="m 349.963,96.628 c 0.813,0.517 1.847,1.33 3.177,2.216 2.659,1.773 5.984,1.995 10.638,1.995 4.802,0 10.564,-0.369 14.405,-0.813 -0.222,0.886 -0.591,2.068 -0.886,2.955 -2.659,0.222 -9.973,0.739 -13.593,0.739 -5.171,0 -8.495,-0.517 -11.302,-2.364 -1.625,-1.108 -2.955,-2.586 -3.841,-2.586 -1.33,0 -3.324,2.512 -5.467,5.467 l -2.068,-2.733 c 2.142,-2.512 4.211,-4.358 5.984,-5.023 l 0,-10.713 -5.467,0 0,-2.955 8.421,0 -10e-4,13.815 0,0 z M 347.82,77.052 c -0.886,-2.142 -3.029,-5.393 -4.949,-7.83 l 2.586,-1.256 c 1.995,2.29 4.137,5.54 5.097,7.609 l -2.734,1.477 z m 26.964,19.206 c -2.216,-3.25 -6.501,-8.126 -10.49,-12.263 -1.551,5.393 -4.137,10.121 -9.677,13.075 l -2.068,-2.512 c 6.87,-3.472 9.234,-9.308 10.121,-16.4 l -10.047,0 0,-2.955 10.342,0 c 0.222,-2.512 0.296,-5.245 0.369,-7.978 l 2.955,0 c -0.074,2.659 -0.148,5.467 -0.369,7.978 l 11.45,0 0,2.955 -11.746,0 c -0.074,0.96 -0.296,1.699 -0.443,2.659 4.432,4.358 9.677,10.047 12.189,13.74 l -2.586,1.701 z"
         id="path23"
         inkscape:connector-curvature="0"
         style="fill:#2d3c49" /><path
         d="m 436.689,81.927 c -2.586,2.364 -6.058,4.654 -9.677,6.279 l 0,1.699 16.4,0 0,2.955 -16.4,0 0,7.535 c 0,1.847 -0.517,2.659 -1.995,3.103 -1.477,0.517 -3.62,0.665 -7.313,0.665 -0.296,-0.886 -0.591,-1.995 -0.813,-2.955 3.103,0.148 5.319,0 6.131,-0.074 0.886,-0.074 1.034,-0.222 1.034,-0.813 l 0,-7.535 -16.4,0 0,-2.955 16.4,0 0,-2.955 c 2.364,-0.886 4.728,-1.921 6.796,-3.324 l -16.547,0 0,-2.955 19.946,0 2.438,1.33 z m -25.265,0 -2.955,0 0,-7.978 6.722,0 c -0.739,-1.551 -2.068,-3.694 -3.398,-5.245 l 2.512,-1.256 c 1.477,1.699 3.103,4.063 3.767,5.614 l -1.625,0.886 8.865,0 c -0.591,-1.699 -1.847,-4.063 -3.103,-5.91 l 2.586,-1.256 c 1.404,1.921 2.881,4.58 3.398,6.279 l -2.068,0.886 6.649,0 c 1.477,-1.847 3.177,-4.654 4.063,-6.575 l 2.733,1.108 c -1.182,1.847 -2.364,3.841 -3.62,5.467 l 6.501,0 0,7.978 -2.955,0 0,-5.023 -28.219,0 0,5.023 0.147,0 z"
         id="path25"
         inkscape:connector-curvature="0"
         style="fill:#2d3c49" /><path
         d="m 485.297,94.116 c -3.841,1.625 -7.83,3.398 -11.007,4.654 l -1.034,-2.955 c 1.33,-0.443 2.881,-1.108 4.654,-1.773 l 0,-14.257 -3.767,0 0,-2.955 3.767,0 0,-9.308 2.955,0 0,9.308 3.767,0 0,2.955 -3.767,0 0,13.223 3.841,-1.404 0.591,2.512 z m 24.008,-13.075 c -1.33,5.245 -3.177,9.751 -5.614,13.593 0.96,3.915 2.142,6.131 3.546,6.131 0.739,0 1.256,-1.625 1.404,-6.353 0.886,0.517 1.404,0.886 2.068,1.256 -0.443,6.058 -1.256,7.978 -3.915,7.978 -2.29,0 -3.989,-2.364 -5.245,-6.205 -1.921,2.512 -4.285,4.432 -6.87,6.205 -0.369,-0.591 -1.477,-1.699 -2.142,-2.068 3.176,-1.921 5.91,-4.358 8.052,-7.461 -1.034,-4.802 -1.699,-11.229 -1.921,-18.246 l -9.53,0 0,5.467 7.978,0 c 0,0 0,0.813 0,1.182 -0.222,9.234 -0.296,12.484 -1.108,13.519 -0.517,0.739 -1.404,1.034 -2.364,1.108 -0.739,0.074 -2.216,0.074 -3.62,0 -0.074,-0.813 -0.296,-1.847 -0.517,-2.659 1.404,0.148 2.364,0.222 2.881,0.222 0.517,0 0.739,-0.074 1.034,-0.443 0.443,-0.591 0.591,-3.25 0.739,-10.564 l -4.876,0 0,1.847 c 0,5.688 -0.665,13.371 -5.023,18.394 -0.443,-0.591 -1.699,-1.551 -2.364,-1.921 4.063,-4.654 4.432,-11.302 4.432,-16.547 l 0,-12.709 12.189,0 c -0.074,-1.995 0,-3.768 0,-5.91 l 2.955,0 c 0,2.142 -0.074,3.915 0,5.91 l 5.467,0 c -0.96,-1.33 -2.881,-3.324 -4.58,-4.654 l 2.068,-1.256 c 1.773,1.33 3.694,3.25 4.654,4.654 l -1.995,1.256 2.807,0 0,2.955 -8.348,0 c 0.222,5.614 0.665,10.638 1.33,14.627 1.625,-3.029 2.807,-6.279 3.694,-10.047 l 2.734,0.739 z"
         id="path27"
         inkscape:connector-curvature="0"
         style="fill:#2d3c49" /></g></g><g
     id="_x33_20-mark-slate"
     display="none"
     style="display:none"
     transform="translate(-77.023,-38.583)" /></svg>