<?xml version="1.0" encoding="UTF-8"?>
<svg width="300px" height="150px" viewBox="0 0 300 150" version="1.1" xmlns="http://www.w3.org/2000/svg" xmlns:xlink="http://www.w3.org/1999/xlink">
    <!-- Generator: Sketch 40.1 (33804) - http://www.bohemiancoding.com/sketch -->
    <title>logo_color_sina</title>
    <desc>Created with Sketch.</desc>
    <defs></defs>
    <g id="Page-1" stroke="none" stroke-width="1" fill="none" fill-rule="evenodd">
        <g id="logo_color_sina" transform="translate(49.000000, 32.000000)">
            <g id="Page-1">
                <g id="logo_color_sina">
                    <g id="Group">
                        <path d="M80.055,8.4765 C80.0345,7.7285 79.4605,7.0685 77.98,7.247 C75.57,7.5365 72.852,9.149 71.0035,10.567 C69.483,11.7345 68.3005,12.5585 67.072,12.0755 C65.313,11.383 68.0025,6.951 68.6835,5.859 C69.746,4.159 70.2685,1.783 67.583,2.262 C64.994,2.7235 62.8075,4.909 60.3915,7.3275 C59.3105,8.413 58.0075,10.3205 56.5485,10.567 C53.478,11.0865 55.0815,6.8655 55.692,5.231 C56.6375,2.6975 57.1235,0.6805 55.66,0.447 C52.363,-0.075 49.337,3.7845 47.4315,6.53 C46.366,8.074 44.2715,12.639 42.029,11.304 C41.047,10.7225 42.161,7.6155 41.679,6.2145 C41.1565,4.692 39.1605,5.9395 38.0655,7.646 C37.103,9.1515 36.554,10.484 35.878,12.1185 C35.517,12.9975 34.6955,15.893 33.2795,15.4595 C32.071,15.092 32.417,12.9965 32.454,12.1055 C32.4725,11.6375 32.518,10.874 32.18,10.5995 C31.557,10.0855 30.226,11.168 29.2425,13.076 C27.9475,15.604 26.843,19.009 26.701,19.2745 C17.6935,36.8355 33.2765,43.046 45.996,43.3615 C60.0175,43.7095 82.256,36.1755 76.8595,19.7075 C76.461,18.4935 75.9065,17.4965 75.6855,16.771 C75.2665,15.406 76.6485,13.9505 78.17,12.047 C79.0385,10.954 80.0825,9.5345 80.055,8.4765 L80.055,8.4765 L80.055,8.4765 Z M67.4695,28.286 C66.7955,35.273 56.831,40.865 46.032,40.596 C36.0195,40.344 29.3505,35.0725 30.458,28.959 C31.534,23.017 39.716,17.8835 49.3385,17.317 C59.6765,16.708 68.1275,21.5175 67.4695,28.286 L67.4695,28.286 L67.4695,28.286 Z" id="Shape" fill="#E02629"></path>
                        <path d="M47.522,22 C42.9475,22.246 38.835,25.872 38.1865,30.1815 C37.5245,34.5735 40.6785,38.216 45.3865,38.2335 C50.263,38.25 54.7765,34.406 55.291,29.7325 C55.8015,25.16 52.2555,21.737 47.522,22 L47.522,22 L47.522,22 Z M46.933,31.748 C46.748,33.3725 45.3335,34.72 43.797,34.7405 C42.2815,34.767 41.2255,33.491 41.43,31.9025 C41.627,30.322 42.9865,29.0095 44.486,28.9435 C46.0095,28.879 47.106,30.124 46.933,31.748 L46.933,31.748 L46.933,31.748 Z M48.5945,29.255 C48.538,29.779 48.084,30.2155 47.584,30.223 C47.0945,30.235 46.7545,29.8205 46.8205,29.306 C46.8855,28.7955 47.321,28.3725 47.8055,28.3535 C48.2965,28.3285 48.653,28.734 48.5945,29.255 L48.5945,29.255 L48.5945,29.255 Z" id="Shape" fill="#000000"></path>
                        <path d="M79.2475,71.253 L69.343,71.253 L73.769,56.97 C74.107,55.8595 74.3795,54.7565 74.593,53.6575 C74.792,52.5525 74.8235,51.742 74.669,51.2215 C74.492,50.617 74.094,50.1705 73.4745,49.8925 C72.8565,49.6205 71.916,49.487 70.666,49.487 C69.7685,49.487 68.8165,49.614 67.8145,49.871 C66.8145,50.1295 65.6885,50.549 64.4385,51.1225 L58.2275,71.2525 L48.322,71.2525 L56.1315,45.8735 C56.1315,45.8735 64.434,42.375 76.0565,42.375 C79.371,42.375 83.1865,43.2355 84.533,44.9615 C85.872,46.6945 86.0205,49.272 84.9755,52.716 L79.2475,71.253" id="Shape" fill="#000000"></path>
                        <path d="M118.2165,44.6565 C116.1735,43.1155 112.3495,42.3445 106.735,42.3445 C100.9185,42.3445 95.402,43.429 94.2935,43.6775 L92.223,50.3525 C92.223,50.3525 97.344,48.3765 102.892,48.3765 C105.597,48.3765 107.559,48.675 108.774,49.2545 C109.991,49.8335 110.3725,50.8795 109.9265,52.3985 L106.5985,63.4265 C105.662,64.012 104.629,64.4855 103.5115,64.8475 C102.3935,65.205 101.3395,65.3785 100.3535,65.3785 C99.1065,65.3785 98.215,65.3085 97.6775,65.1485 C97.1415,64.998 96.7105,64.7545 96.3795,64.4295 C96.0435,64.106 95.869,63.763 95.869,63.4035 C95.867,63.0465 95.9415,62.583 96.11,62.011 C96.37,61.158 96.8315,60.46 97.5105,59.93 C98.1865,59.401 99.0615,58.999 100.1305,58.7225 C100.9995,58.4975 102.239,58.2965 103.8455,58.1255 C104.4195,58.057 104.9195,58.0265 105.4375,57.9845 L106.9725,52.7765 C105.043,52.9075 103.117,53.032 101.2635,53.237 C98.4745,53.551 96.0485,54.067 94.0105,54.8055 C91.946,55.54 90.2265,56.542 88.8435,57.806 C87.4605,59.079 86.4695,60.725 85.8765,62.727 C85.1335,65.239 85.5105,67.2995 86.9965,68.918 C88.4975,70.525 92.137,71.341 95.053,71.341 C109.013,71.341 116.103,63.905 116.103,63.905 L119.803,51.915 C120.78,48.611 120.2475,46.198 118.2165,44.6565" id="Shape" fill="#000000"></path>
                        <path d="M38.904,45.7995 C38.904,45.7995 44.7985,47.399 50.194,46.304 C50.194,46.304 36.5665,88.809 32.692,86.93 C32.6915,86.93 29.666,86.1175 38.904,45.7995" id="Shape" fill="#000000"></path>
                        <path d="M176.1175,51.3885 L177.254,47.66 C173.7295,46.563 174.285,43.0295 174.285,43.0295 L169.542,43.0295 C167.561,50.984 176.1175,51.3885 176.1175,51.3885 L176.1175,51.3885 L176.1175,51.3885 Z M173.3745,60.3025 L174.5005,56.5805 C170.7885,55.512 171.6225,51.6375 171.6225,51.6375 L166.8805,51.6375 C164.609,59.7115 173.3745,60.3025 173.3745,60.3025 L173.3745,60.3025 L173.3745,60.3025 Z M168.0775,62.094 C167.4145,63.404 165.5035,65.322 162.4595,66.289 L160.889,71.4005 C160.889,71.4005 169.516,70.7965 172.8685,62.0945 L168.0775,62.0945 L168.0775,62.094 L168.0775,62.094 Z M198.531,44.1505 C193.733,44.1635 194.233,44.1445 194.233,44.1445 L193.5385,44.1445 L194.1195,42.2335 L188.9875,42.2335 L188.3975,44.1445 L180.0985,44.1445 L173.25,66.787 C172.621,68.843 172.7825,69.639 173.3535,70.4025 C174.1015,71.2215 175.5245,71.4565 177.2275,71.383 L182.6385,71.383 L183.584,68.005 L180.1515,68.005 C178.843,68.051 178.007,68.0745 178.6445,66.199 L180.8005,59.1025 L198.9755,59.118 C198.9755,59.118 198.9755,59.118 202.415,47.878 C203.2,45.322 200.773,44.1435 198.531,44.1505 L198.531,44.1505 L198.531,44.1505 Z M194.86,55.8285 L181.784,55.8835 L182.6295,53.0935 L195.7115,53.0935 L194.86,55.8285 L194.86,55.8285 L194.86,55.8285 Z M196.9975,48.762 C196.7985,49.56 196.6935,49.871 196.6935,49.871 L183.6035,49.871 L184.3525,47.412 C184.3525,47.412 185.3915,47.412 196.037,47.383 C197.3805,47.3435 197.15,48.181 196.9975,48.762 L196.9975,48.762 L196.9975,48.762 Z M198.2025,60.337 C198.2025,60.337 196.7455,60.355 193.73,60.3185 C192.395,62.1925 190.8745,63.2945 189.7135,63.9305 C188.0915,62.1045 187.531,60.2765 187.531,60.2765 L182.3475,60.324 C184.495,70.9765 195.237,71.4 195.237,71.4 L196.4675,67.467 C194.7545,67.236 193.3485,66.688 192.195,65.9975 C196.0375,64.0525 198.2025,60.337 198.2025,60.337 L198.2025,60.337 L198.2025,60.337 Z M147.8315,44.185 L140.3825,44.171 L140.352,44.171 L140.94,42.25 L135.9095,42.25 L135.3185,44.171 L135.3085,44.171 L128.2315,44.171 L127.3155,47.3305 L146.8475,47.3305 L147.8315,44.185 L147.8315,44.185 L147.8315,44.185 Z M163.4915,51.67 L152.4095,51.67 L153.6595,47.5325 C153.6595,47.5325 153.926,46.204 155.0395,46.204 L165.1545,46.204 L166.1085,43.029 L154.84,43.029 C149.955,43.029 148.4945,47.9755 148.4945,47.9755 L147.3775,51.67 L147.3735,51.67 L146.4155,54.844 L146.4185,54.844 L141.4205,71.372 L146.45,71.372 L151.449,54.844 L155.456,54.844 L150.458,71.372 L155.4855,71.372 L160.4875,54.844 L162.5355,54.844 L163.4915,51.67 L163.4915,51.67 L163.4915,51.67 Z M125.527,61.806 C125.527,61.806 124.525,64.919 121.73,65.828 L120.4565,70.032 C120.4565,70.032 126.765,70.105 129.5065,61.806 L125.527,61.806 L125.527,61.806 L125.527,61.806 Z M139.653,61.806 L135.779,61.813 C135.371,68.1285 139.9605,70.04 139.9605,70.04 L141.2065,65.911 C139.439,64.399 139.653,61.806 139.653,61.806 L139.653,61.806 L139.653,61.806 Z M143.8025,57.3715 L136.3365,57.3715 L137.107,54.8285 L144.5525,54.8285 L145.5095,51.671 L142.6705,51.671 L144.894,48.5865 L140.0845,48.5865 L137.862,51.67 L133.7915,51.67 L133.39,48.5555 L128.5815,48.5555 L128.984,51.67 L126.015,51.67 L125.095,54.8285 L132.4035,54.8285 L131.625,57.3715 L124.287,57.3715 L123.333,60.5195 L130.6565,60.5195 L127.3225,71.379 L132.088,71.379 L135.383,60.5195 L142.843,60.5195 L143.8025,57.3715 L143.8025,57.3715 L143.8025,57.3715 Z" id="Shape" fill="#000000"></path>
                        <path d="M18.1715,48.747 C19.375,48.355 20.775,48.163 22.361,48.163 C24.2775,48.163 26.0685,48.4975 27.793,49.0025 C29.979,49.642 31.463,50.666 32.798,51.857 L35.0575,44.237 C34.01,43.766 32.494,43.3275 30.508,42.9075 C28.519,42.492 26.376,42.285 24.075,42.285 C19.216,42.285 15.121,43.1565 11.796,44.9125 C8.468,46.6645 6.414,48.8645 5.6335,51.513 C5.024,53.574 5.191,55.288 6.136,56.665 C7.078,58.045 8.8515,59.0645 11.4575,59.7105 C12.4,59.9545 13.481,60.1615 14.686,60.3425 C15.8835,60.5095 16.827,60.6685 17.5195,60.812 C18.972,61.093 19.929,61.3805 20.383,61.6805 C20.8445,61.9825 20.9785,62.468 20.776,63.143 C20.555,63.888 19.9195,64.4535 18.873,64.836 C17.83,65.2195 16.337,65.4085 14.394,65.4085 C12.9135,65.4085 11.5625,65.2805 10.3435,65.0095 C9.127,64.7455 8.063,64.4135 7.145,64.0395 C6.082,63.6165 5.3125,63.1725 4.743,62.8505 C3.356,62.064 2.601,61.2825 2.601,61.2825 L0.275,69.092 C1.461,69.646 3.1035,70.1465 5.202,70.606 C7.299,71.0615 9.715,71.2875 12.4555,71.2875 C17.4145,71.2875 21.5685,70.4225 24.94,68.678 C28.3115,66.9425 30.415,64.6485 31.259,61.816 C31.836,59.8755 31.694,58.253 30.8365,56.952 C29.9775,55.6595 28.3345,54.7095 25.92,54.1065 C24.8315,53.8435 23.731,53.631 22.6195,53.4575 C21.505,53.2865 20.478,53.105 19.524,52.9275 C17.7985,52.5915 16.7345,52.244 16.3435,51.9015 C15.9525,51.557 15.853,51.0645 16.049,50.408 C16.2605,49.6895 16.967,49.144 18.1715,48.747 L18.1715,48.747 L18.1715,48.747 Z" id="Shape" fill="#000000"></path>
                    </g>
                </g>
            </g>
        </g>
    </g>
</svg>