<svg xmlns="http://www.w3.org/2000/svg" width="204" height="130" viewBox="0 0 204 130">
  <g fill="none" fill-rule="evenodd">
    <path fill="#201C1D" d="M70.392 52.11c-4.243 0-8.98 1.642-9.974 7.046-.105.574.273.848.638.932l4.35.524c.402-.02.675-.46.753-.873.37-1.86 1.89-2.74 3.59-2.74.92 0 1.95.31 2.49 1.16.62.94.58 2.23.58 3.32v.64c-2.59.3-5.99.48-8.41 1.57-2.8 1.24-4.76 3.78-4.76 7.51 0 4.77 2.91 7.16 6.67 7.16 3.17 0 4.92-.75 7.36-3.32.81 1.21 1.07 1.76 2.55 3.03.33.17.75.16 1.04-.12v.06c.89-.82 2.51-2.3 3.42-3.09.36-.31.28-.81 0-1.23-.82-1.16-1.68-2.1-1.68-4.26V62.3c0-3.033.25-5.83-1.92-7.92-1.71-1.69-4.56-2.27-6.73-2.27zm58.452 0c-4.245 0-8.98 1.642-9.974 7.046-.106.574.27.848.638.932l4.35.524c.402-.02.677-.46.753-.873.38-1.86 1.9-2.74 3.6-2.74.92 0 1.95.31 2.5 1.16.62.94.53 2.23.53 3.32v.64c-2.58.3-5.93.48-8.35 1.57-2.79 1.24-4.75 3.78-4.75 7.51 0 4.77 2.92 7.16 6.67 7.16 3.17 0 4.92-.75 7.37-3.32.81 1.21 1.07 1.76 2.55 3.03.34.17.75.16 1.05-.12v.06c.9-.82 2.51-2.3 3.42-3.09.37-.31.28-.81 0-1.23-.81-1.16-1.68-2.1-1.68-4.26V62.3c0-3.033.2-5.83-1.97-7.92-1.71-1.69-4.5-2.27-6.67-2.27zm-32.88.232c-2.742 0-4.776 1.39-5.856 4.368h-.058v-3.086c-.028-.43-.377-.793-.812-.816h-4.175c-.473 0-.87.402-.87.874v23.586c.036.42.387.786.812.816h4.465c.477 0 .868-.4.87-.874V64.69c0-2.73-.13-6.466 3.074-6.466 3.163 0 2.725 3.837 2.725 6.465v12.52c0 .44.36.84.81.87h4.46c.47 0 .87-.4.87-.88V64.69c0-1.34-.06-3.293.4-4.485.46-1.193 1.58-1.98 2.66-1.98 1.29 0 2.27.452 2.61 2.038.2.943.11 3.434.11 4.426v12.52c0 .44.36.84.81.87h4.46c.47 0 .87-.4.87-.88V62.3c0-2.532.25-5.407-1.16-7.395-1.25-1.786-3.29-2.563-5.16-2.563-2.63 0-5.07 1.39-6.15 4.368-1.25-2.976-3.01-4.368-5.8-4.368zm75.907 0c-6.45 0-10.03 5.697-10.03 13.046 0 7.298 3.54 13.162 10.03 13.162 6.25 0 10.21-5.73 10.21-12.93 0-7.443-3.59-13.278-10.2-13.278zm25.46 0c-3.08 0-4.84 1.548-6.09 4.776h-.05v-3.61c-.08-.366-.42-.62-.81-.642h-4.12c-.45 0-.83.327-.87.758V77.21c0 .446.37.844.81.874h4.41c.48 0 .87-.397.87-.874V64.514c0-1.59.14-3.044.76-4.484.5-1.143 1.47-1.864 2.55-1.864 3.08 0 2.79 3.765 2.79 6.348v12.813c.05.4.41.73.81.757h4.47c.44 0 .82-.336.87-.757v-14.85c0-2.284.01-5.455-1.16-7.34-1.25-2.036-3.22-2.795-5.22-2.795zm-53.58.408c-.45 0-.81.36-.81.874V57c0 .506.35.87.81.875h7.66l-8.75 12.987c-.53.837-.58 1.786-.58 2.33v3.436c0 .494.54 1.033 1.05.757 4.99-2.736 10.97-2.492 15.49-.058.55.3 1.1-.264 1.1-.757v-3.61c-.04-.484-.23-.95-.81-1.282-2.56-1.48-5.53-1.933-8.35-1.864l7.6-11.182c.71-1.004 1.1-1.61 1.1-2.096v-2.912c0-.502-.34-.874-.81-.874h-14.67zm28.13 4.426c1.42 0 2.46.633 2.96 2.27.58 1.89.64 4.246.64 6.233 0 3.02-.14 8.03-3.59 8.03-3.49 0-3.48-6.2-3.48-9.09 0-2.88.2-7.46 3.48-7.46zm-99.1 8.62v.99c0 1.79.07 3.298-.81 4.892-.71 1.295-1.82 2.096-3.07 2.096-1.7 0-2.72-1.39-2.72-3.378 0-3.915 3.39-4.6 6.61-4.6zm58.45 0v.99c0 1.79.07 3.298-.81 4.892-.71 1.295-1.81 2.096-3.07 2.096-1.71 0-2.72-1.39-2.72-3.378 0-3.915 3.39-4.6 6.61-4.6z"/>
    <path fill="#000" d="M160.158 78.84v3.38h2.26v-3.38h-2.26zm-65.585.583v24.053h2.088v-2.155c.45.86.96 1.5 1.57 1.93.61.43 1.32.64 2.09.64 1.54 0 2.86-.78 4-2.38 1.15-1.6 1.74-3.92 1.74-6.87 0-1.93-.24-3.53-.75-4.89-.5-1.35-1.18-2.36-2.03-3.03-.84-.66-1.8-1.05-2.84-1.05-.74 0-1.43.2-2.03.58-.6.39-1.09 1.02-1.56 1.81v-8.62h-2.27zm21.456 5.65c-1.58 0-2.83.467-3.72 1.397-.89.928-1.34 2.126-1.34 3.61 0 .864.19 1.594.52 2.272.32.68.8 1.227 1.39 1.63.59.405 1.78.936 3.54 1.515 1.21.393 1.94.727 2.26.99.46.382.69.883.69 1.573 0 .797-.28 1.462-.81 1.98-.54.52-1.28.757-2.26.757-.98 0-1.79-.275-2.38-.874-.59-.598-.91-1.507-1.05-2.737l-2.26.466c.51 3.737 2.36 5.593 5.56 5.59 1.71 0 3.01-.485 4-1.513.99-1.03 1.51-2.42 1.51-4.08 0-.9-.16-1.68-.47-2.33-.31-.65-.73-1.14-1.28-1.52-.55-.38-1.78-.88-3.65-1.52-1.37-.48-2.16-.83-2.44-1.05-.46-.37-.7-.88-.7-1.52 0-.66.212-1.21.692-1.63.48-.42 1.22-.64 2.2-.64 1.73 0 2.694.95 2.9 2.85l2.202-.35c-.15-1.2-.41-2.15-.81-2.8-.4-.65-.99-1.19-1.74-1.58-.757-.38-1.62-.53-2.61-.53zm13.85 0c-1.81 0-3.35.75-4.53 2.33-1.18 1.577-1.74 3.867-1.74 6.87 0 2.895.57 5.163 1.74 6.7 1.17 1.532 2.69 2.27 4.58 2.27 1.5 0 2.75-.453 3.77-1.398 1.02-.945 1.76-2.335 2.14-4.193l-2.32-.408c-.67 2.382-1.9 3.55-3.6 3.553-1.09 0-1.97-.463-2.73-1.456-.76-.99-1.19-2.47-1.28-4.42h9.97v-.82c0-2.94-.59-5.14-1.74-6.69-1.16-1.55-2.57-2.33-4.3-2.33zm13.74 0c-.54 0-1.02.183-1.45.582-.44.4-.93 1.22-1.45 2.446v-2.67h-2.03v17.42h2.26v-9.09c0-1.26.12-2.48.4-3.61.16-.64.47-1.15.87-1.51.39-.36.85-.52 1.33-.52.53 0 1.06.22 1.62.64l.75-2.73c-.79-.63-1.56-.93-2.32-.93zm27.72 0c-1.79 0-3.27.757-4.41 2.27-1.14 1.514-1.74 3.788-1.74 6.815 0 3.004.61 5.278 1.74 6.814 1.13 1.533 2.54 2.27 4.29 2.27 1.44 0 2.68-.538 3.71-1.63 1.03-1.092 1.65-2.7 1.91-4.775l-2.21-.35c-.16 1.486-.55 2.553-1.16 3.262-.61.7-1.35 1.04-2.2 1.04-1.09 0-2.03-.51-2.73-1.58-.7-1.06-1.05-2.76-1.05-5.13 0-2.3.37-3.96 1.1-5.01.73-1.06 1.67-1.63 2.78-1.63.74 0 1.38.29 1.91.87.54.58.89 1.5 1.1 2.68l2.203-.47c-.27-1.84-.85-3.22-1.8-4.14-.95-.92-2.1-1.34-3.48-1.34zm12.93 0c-1.81 0-3.34.75-4.53 2.33-1.18 1.577-1.74 3.867-1.74 6.87 0 2.895.57 5.163 1.74 6.7 1.17 1.532 2.69 2.27 4.58 2.27 1.5 0 2.75-.453 3.77-1.398 1.01-.945 1.75-2.335 2.14-4.193l-2.32-.408c-.67 2.382-1.84 3.55-3.54 3.553-1.09 0-2.03-.463-2.79-1.456-.76-.99-1.19-2.47-1.28-4.42h9.97v-.82c0-2.94-.58-5.14-1.74-6.69-1.15-1.55-2.56-2.33-4.29-2.33zm13.39 0c-1.58 0-2.83.467-3.71 1.397-.89.928-1.34 2.126-1.34 3.61 0 .864.13 1.594.46 2.272.32.68.8 1.227 1.39 1.63.59.405 1.77.936 3.53 1.515 1.21.393 2 .727 2.32.99.46.382.69.883.69 1.573 0 .797-.28 1.462-.81 1.98-.54.52-1.28.757-2.26.757-.98 0-1.79-.275-2.38-.874-.59-.598-.97-1.507-1.1-2.737l-2.26.466c.51 3.737 2.36 5.593 5.57 5.59 1.71 0 3.07-.485 4.06-1.513.98-1.03 1.5-2.42 1.5-4.08 0-.9-.16-1.68-.47-2.33-.31-.65-.787-1.14-1.34-1.52-.55-.38-1.72-.88-3.59-1.52-1.36-.48-2.22-.83-2.49-1.05-.46-.37-.697-.88-.697-1.52 0-.66.27-1.22.75-1.63.48-.42 1.224-.64 2.204-.64 1.724 0 2.692.95 2.9 2.85l2.2-.35c-.15-1.2-.41-2.15-.81-2.8-.4-.65-.99-1.19-1.74-1.58-.75-.38-1.62-.53-2.61-.53zm-51.73.35l5.04 17.412h2.14l5.04-17.413h-2.32L152.9 96.08c-.36 1.29-.676 2.4-.87 3.32-.247-1.158-.484-2.374-.812-3.553l-2.9-10.425h-2.378zm14.21 0v17.412h2.26V85.422h-2.26zm-74.34.232c-1.8 0-3.24.81-4.41 2.388-1.17 1.578-1.8 3.868-1.8 6.872 0 2.894.58 5.105 1.74 6.64 1.16 1.533 2.7 2.33 4.58 2.33 1.49 0 2.7-.513 3.71-1.457 1-.945 1.7-2.336 2.09-4.194l-2.26-.35c-.66 2.383-1.86 3.55-3.54 3.553-1.08 0-1.98-.462-2.73-1.455-.75-.996-1.19-2.472-1.28-4.427h9.86l.06-.815c0-2.94-.6-5.203-1.74-6.756-1.15-1.552-2.58-2.33-4.29-2.33zm-25.46.407l4.06 17.414h2.38l2.67-13.396.46 2.97 2.14 10.43h2.32l4.12-17.41h-2.15L74.1 96.147l-.755 3.378-.697-3.377-1.97-10.078h-2.32L66.27 96.26l-.696 3.61-.81-3.727-2.09-10.08h-2.32zm69.47 1.398c1.12 0 2.05.548 2.78 1.63.5.744.82 1.87.93 3.38h-7.48c.07-1.53.5-2.71 1.21-3.612.72-.902 1.54-1.398 2.55-1.398zm54.39 0c1.12 0 2.05.548 2.78 1.63.5.744.82 1.87.92 3.38h-7.48c.07-1.53.5-2.71 1.22-3.612.71-.902 1.54-1.398 2.55-1.398zm-98.4.64c1.11 0 2 .55 2.72 1.632.5.743.83 1.87.93 3.377H82.1c.07-1.53.448-2.77 1.16-3.67.71-.91 1.548-1.34 2.55-1.34zm14.38 0c1 0 1.86.562 2.55 1.632.69 1.07.98 2.723.98 5.008 0 2.23-.33 3.89-1.05 5.01-.72 1.12-1.57 1.687-2.49 1.687-.68 0-1.3-.23-1.86-.698-.56-.47-.97-1.15-1.28-2.04-.31-.9-.47-2.28-.47-4.08 0-2.12.37-3.72 1.1-4.84.72-1.12 1.57-1.69 2.49-1.69z"/>
    <path fill="#F7A80D" d="M27.858 69.64l-8.64 3.726 8.002 3.437 9.278-3.437-8.64-3.727zm-12.99 4.658l-.29 16.773 12.642 5.6V79.25l-12.35-4.952zm25.98 0l-11.424 4.368V95.09l11.423-4.66V74.298zm13.627-52.182l-8.7 3.728 8.062 3.436 9.278-3.436-8.64-3.728zm-12.062 4.95V43.84L53.2 46.983l.347-15.258-11.134-4.66zM66.536 28L56.33 32.365v16.482l10.206-4.66V28zM13.622 45.723l-8.64 3.727 8.002 3.437 9.278-3.437-8.64-3.727zm-12.99 4.66l-.29 16.772 12.642 5.59v-17.41l-12.35-4.95zm25.98 0L15.187 54.75v16.423l11.423-4.66v-16.13zm14.844-5.28l-8.64 3.728 8.002 3.44 9.278-3.43-8.64-3.72zm-12.99 4.66l-.29 16.772 12.642 5.59v-17.41l-12.35-4.95zm25.98 0L43.02 54.13v16.424l11.423-4.66v-16.13zm27.216-27.647l-8.64 3.728 8.002 3.436 9.278-3.436-8.64-3.728zm-12.99 4.66l-.29 16.772 12.642 5.59v-17.41l-12.35-4.95zm25.98 0l-11.424 4.367v16.424l11.423-4.66v-16.13z"/>
  </g>
</svg>
