<svg xmlns="http://www.w3.org/2000/svg" width="158" height="131" viewBox="0 0 158 131">
  <g fill="none" fill-rule="evenodd">
    <path fill="#4285F4" d="M38.927 57.45H20.512v5.416h13.06c-.645 7.592-7.02 10.83-13.038 10.83-7.7 0-14.418-6.002-14.418-14.415 0-8.19 6.405-14.5 14.435-14.5 6.2 0 9.85 3.915 9.85 3.915l3.83-3.925s-4.91-5.42-13.87-5.42C8.956 39.347.13 48.885.13 59.187c0 10.095 8.3 19.94 20.52 19.94 10.747 0 18.615-7.296 18.615-18.083 0-2.275-.333-3.59-.333-3.59z"/>
    <path fill="#EA4335" d="M54.013 53.53c-7.557 0-12.972 5.853-12.972 12.68 0 6.928 5.26 12.89 13.06 12.89 7.07 0 12.86-5.353 12.86-12.74 0-8.47-6.73-12.83-12.94-12.83zm.075 5.022c3.716 0 7.237 2.977 7.237 7.773 0 4.695-3.506 7.756-7.254 7.756-4.11 0-7.36-3.26-7.36-7.79 0-4.43 3.21-7.73 7.386-7.73z"/>
    <path fill="#FBBC05" d="M82.224 53.53c-7.556 0-12.97 5.853-12.97 12.68 0 6.928 5.25 12.89 13.06 12.89 7.067 0 12.858-5.353 12.858-12.74 0-8.47-6.736-12.83-12.948-12.83zm.076 5.022c3.715 0 7.237 2.977 7.237 7.773 0 4.695-3.507 7.756-7.255 7.756-4.118 0-7.366-3.26-7.366-7.79 0-4.43 3.208-7.73 7.384-7.73z"/>
    <path fill="#4285F4" d="M109.896 53.543c-6.936 0-12.388 6.02-12.388 12.775 0 7.695 6.32 12.8 12.268 12.8 3.678 0 5.633-1.448 7.077-3.108v2.52c0 4.412-2.703 7.053-6.783 7.053-3.94 0-5.918-2.903-6.605-4.55l-4.96 2.053c1.76 3.686 5.3 7.53 11.606 7.53 6.9 0 12.16-4.304 12.16-13.33V54.312h-5.41v2.166c-1.662-1.776-3.94-2.934-6.956-2.934zm.502 5.012c3.4 0 6.892 2.877 6.892 7.79 0 4.994-3.484 7.746-6.967 7.746-3.698 0-7.138-2.97-7.138-7.69 0-4.91 3.573-7.837 7.213-7.837z"/>
    <path fill="#EA4335" d="M146.318 53.513c-6.543 0-12.036 5.157-12.036 12.768 0 8.06 6.123 12.83 12.664 12.83 5.46 0 8.81-2.96 10.81-5.61l-4.46-2.94c-1.158 1.78-3.093 3.52-6.322 3.52-3.628 0-5.296-1.97-6.33-3.87l17.303-7.112-.9-2.084c-1.67-4.082-5.57-7.49-10.728-7.49l-.01-.002zm.225 4.917c2.358 0 4.054 1.242 4.775 2.73l-11.554 4.786c-.5-3.705 3.044-7.516 6.78-7.516z"/>
    <path fill="#34A853" d="M126.033 78.35h5.684V40.668h-5.684V78.35"/>
  </g>
</svg>
