<svg xmlns="http://www.w3.org/2000/svg" width="185" height="72" viewBox="0 0 185 72" xmlns:xlink="http://www.w3.org/1999/xlink">
  <defs>
    <polygon id="a" points="133.693 17.564 133.693 .119 .219 .119 .219 17.564"/>
    <polygon id="c" points="0 .285 0 4.298 5.734 4.298 5.734 .285 0 .285"/>
    <polygon id="e" points="1.934 .26 .225 .26 .225 6.595 1.934 6.595 1.934 .26"/>
    <polygon id="g" points=".166 30.477 30.53 30.477 30.53 .224 .166 .224 .166 30.477"/>
  </defs>
  <g fill="none" fill-rule="evenodd" transform="translate(0 15)">
    <g transform="translate(50.702 16.022)">
      <mask id="b" fill="white">
        <use xlink:href="#a"/>
      </mask>
      <path fill="#83CB4B" d="M21.0981832,0.118943283 L23.5038179,0.118943283 L29.4447844,15.1202421 L35.3618664,0.118943283 L37.766663,0.118943283 L37.766663,17.2289909 L36.1312002,17.2289909 L36.1312002,2.44395256 L36.0834311,2.44395256 L30.2145372,17.2289909 L28.6750316,17.2289909 L22.7822532,2.44395256 L22.734065,2.44395256 L22.734065,17.2289909 L21.0981832,17.2289909 L21.0981832,0.118943283 Z M12.4142651,15.8399972 L6.78589281,15.8399972 L6.78589281,9.00942139 L12.4142651,9.00942139 C15.3005239,9.00942139 16.9364058,10.1115985 16.9364058,12.3172053 C16.9364058,15.0964451 14.8433653,15.8399972 12.4142651,15.8399972 L12.4142651,15.8399972 Z M6.78589281,1.50918945 L12.4142651,1.50918945 C14.9879297,1.50918945 16.2869138,2.58756958 16.2869138,4.72011535 C16.2869138,6.32536956 15.0118142,7.6204277 12.4142651,7.6204277 L6.78589281,7.6204277 L6.78589281,1.50918945 Z M14.9401606,8.19531327 L14.9401606,8.14604929 C16.7197688,7.76362723 17.9219576,6.11036152 17.9219576,4.31222631 C17.9219576,1.12551491 15.3005239,0.118943283 12.4142651,0.118943283 L5.15084898,0.118943283 L5.15084898,17.2289909 L12.4142651,17.2289909 C17.9948683,17.2289909 18.5718686,13.994268 18.5718686,12.3647993 C18.5718686,10.1353955 17.1526238,8.4833823 14.9401606,8.19531327 L14.9401606,8.19531327 Z M0.219318795,17.2289909 L1.85478165,17.2289909 L1.85478165,0.118943283 L0.219318795,0.118943283 L0.219318795,17.2289909 Z M115.745515,4.84077035 L118.992137,4.84077035 L118.992137,6.56542708 L119.065467,6.56542708 C119.930339,5.15138391 121.421657,4.50468982 122.864786,4.50468982 C126.496494,4.50468982 127.410811,6.54163007 127.410811,9.60893895 L127.410811,17.2294084 L123.994902,17.2294084 L123.994902,10.231836 C123.994902,8.19489578 123.417902,7.18832416 121.806742,7.18832416 C119.954224,7.18832416 119.161424,8.21869279 119.161424,10.7361656 L119.161424,17.2294084 L115.745515,17.2294084 L115.745515,4.84077035 Z M107.664158,4.50468982 C111.583738,4.50468982 114.109214,7.09271864 114.109214,11.0467791 C114.109214,14.9774601 111.583738,17.563819 107.664158,17.563819 C103.767206,17.563819 101.241729,14.9774601 101.241729,11.0467791 C101.241729,7.09271864 103.767206,4.50468982 107.664158,4.50468982 L107.664158,4.50468982 Z M91.8127811,13.2035394 C91.8127811,14.6651766 93.1121842,15.2880737 94.4342148,15.2880737 C95.3963011,15.2880737 96.6718196,14.9056516 96.6718196,13.7066165 C96.6718196,12.6762478 95.2286902,12.2925733 92.799171,11.7903312 C90.8025067,11.3335957 88.8552877,10.6873191 88.8552877,8.48296481 C88.8552877,5.31879793 91.5969821,4.50468982 94.2661849,4.50468982 C96.9596912,4.50468982 99.4851677,5.41565593 99.7504119,8.4591678 L96.5025327,8.4591678 C96.4065754,7.14031265 95.3963011,6.78210508 94.1702277,6.78210508 C93.4000558,6.78210508 92.2699397,6.90150761 92.2699397,7.93187624 C92.2699397,9.1534559 94.2184158,9.32086993 96.1425884,9.77760546 C98.1392526,10.231836 100.086053,10.9511736 100.086053,13.2511334 C100.086053,16.5096533 97.2249354,17.563819 94.4103302,17.563819 C91.5249095,17.563819 88.6864198,16.4858563 88.566159,13.2035394 L91.8127811,13.2035394 Z M84.9105664,4.84077035 L87.4109012,4.84077035 L87.4109012,7.11651565 L84.9105664,7.11651565 L84.9105664,13.2511334 C84.9105664,14.4009046 85.198438,14.6893911 86.3524387,14.6893911 C86.7379436,14.6893911 87.099145,14.6651766 87.4109012,14.5937856 L87.4109012,17.2532054 C86.8339009,17.3488109 86.0888706,17.3726079 85.4159131,17.3726079 C83.29815,17.3726079 81.4950763,16.9187948 81.4950763,14.4251191 L81.4950763,7.11651565 L79.4263394,7.11651565 L79.4263394,4.84077035 L81.4950763,4.84077035 L81.4950763,1.12551491 L84.9105664,1.12551491 L84.9105664,4.84077035 Z M67.0151751,8.65037883 C67.2070895,5.48746444 70.0694638,4.50468982 72.8589273,4.50468982 C75.3366347,4.50468982 78.3188507,5.05577839 78.3188507,8.02748175 L78.3188507,14.4727131 C78.3188507,15.5999397 78.4391115,16.7259138 78.7521248,17.2294084 L75.2884466,17.2294084 C75.1686048,16.8457339 75.0726476,16.4378448 75.0487631,16.0316257 C73.9651589,17.1575999 72.4017687,17.563819 70.8626821,17.563819 C68.4821891,17.563819 66.6296702,16.3902508 66.6296702,13.851486 C66.6778583,8.21869279 75.0487631,11.2379902 74.9033607,8.4591678 C74.9033607,7.02091013 73.8930863,6.78210508 72.6908975,6.78210508 C71.3676098,6.78210508 70.5505069,7.30772668 70.4306652,8.65037883 L67.0151751,8.65037883 Z M62.4435892,17.2294084 L58.6907823,17.2294084 L55.781477,5.58306995 L55.7337079,5.58306995 L52.8709146,17.2294084 L49.0472921,17.2294084 L44.5012669,0.118943283 L48.2771203,0.118943283 L50.9945112,11.7665342 L51.0422803,11.7665342 L54.0249153,0.118943283 L57.5606662,0.118943283 L60.4955321,11.9101512 L60.5433012,11.9101512 L63.3566493,0.118943283 L67.0616871,0.118943283 L62.4435892,17.2294084 Z" mask="url(#b)"/>
    </g>
    <g transform="translate(0 .158)">
      <g transform="translate(0 11.69)">
        <mask id="d" fill="white">
          <use xlink:href="#c"/>
        </mask>
        <path fill="#00CAF7" d="M4.88447344,4.2981151 C4.73655687,4.2981151 4.58989738,4.25887092 4.46083702,4.18455746 L0.424767793,1.86288811 C0.228244073,1.75016545 0.0878699873,1.56772173 0.0292061903,1.34937376 C-0.0294576066,1.13144328 0.000712346105,0.903493011 0.114268696,0.707689572 C0.26511846,0.446757484 0.547123712,0.284770844 0.850080321,0.284770844 C0.997996895,0.284770844 1.14465639,0.32401503 1.27329771,0.398328488 L5.30978597,2.71999784 C5.50589066,2.83313799 5.64626475,3.01516421 5.70492855,3.23351218 C5.76359234,3.45186016 5.73384142,3.67939294 5.62028507,3.87519638 C5.46901628,4.13612846 5.18701103,4.2981151 4.88447344,4.2981151" mask="url(#d)"/>
      </g>
      <path fill="#00CAF7" d="M11.7875681,9.11162327 C11.4850306,9.11162327 11.2030253,8.94963663 11.0517565,8.68870454 L8.7215467,4.66742794 C8.48731053,4.26329633 8.62684657,3.74518957 9.03204579,3.5122294 C9.16110615,3.43791595 9.30776564,3.39867176 9.45568221,3.39867176 C9.75863882,3.39867176 10.040225,3.5606584 10.1914938,3.82159049 L12.5217037,7.84286708 C12.63526,8.03867052 12.66543,8.26662079 12.6067662,8.48455127 C12.5481024,8.70289925 12.4073093,8.88534296 12.2112046,8.99806562 C12.0821442,9.07237908 11.9354847,9.11162327 11.7875681,9.11162327"/>
      <g transform="translate(20.113)">
        <mask id="f" fill="white">
          <use xlink:href="#e"/>
        </mask>
        <path fill="#00CAF7" d="M1.07924625,6.59460972 C0.608259769,6.59460972 0.224849953,6.21511009 0.224849953,5.74877227 L0.224849953,1.10543357 C0.224849953,0.639095745 0.608259769,0.260013607 1.07924625,0.260013607 C1.55023274,0.260013607 1.93364255,0.639095745 1.93364255,1.10543357 L1.93364255,5.74877227 C1.93364255,6.21511009 1.55023274,6.59460972 1.07924625,6.59460972" mask="url(#f)"/>
      </g>
      <path fill="#00CAF7" d="M30.6413163 9.11162327C30.4933998 9.11162327 30.3467403 9.07237908 30.2176799 8.99806562 29.8124807 8.76510546 29.6729447 8.2469987 29.9071808 7.84286708L32.2373906 3.82159049C32.3886594 3.5606584 32.6706647 3.39867176 32.9732023 3.39867176 33.1211188 3.39867176 33.2677783 3.43791595 33.3968387 3.5122294 33.8020379 3.74518957 33.9415739 4.26329633 33.7073378 4.66742794L31.377128 8.68870454C31.2258592 8.94963663 30.9438539 9.11162327 30.6413163 9.11162327M37.544411 15.9878726C37.2418735 15.9878726 36.9598682 15.825886 36.8085994 15.5649539 36.6950431 15.3691505 36.6652921 15.1412002 36.7239559 14.9232697 36.7826197 14.7049218 36.9229938 14.5228955 37.1190985 14.4097554L41.1555868 12.088086C41.2842281 12.0137726 41.4308876 11.9745284 41.5788042 11.9745284 41.8817608 11.9745284 42.163766 12.136515 42.3146158 12.3974471 42.4281721 12.5932506 42.4583421 12.8212008 42.3996783 13.0391313 42.3410145 13.2574793 42.2006404 13.439923 42.0041167 13.5526457L37.9680475 15.874315C37.8389871 15.9486285 37.6923276 15.9878726 37.544411 15.9878726"/>
      <g transform="translate(5.866 9.185)">
        <mask id="h" fill="white">
          <use xlink:href="#g"/>
        </mask>
        <path fill="#00CAF7" d="M10.9097063,3.5608254 C12.2191661,3.5608254 13.5847755,3.72990939 14.968822,4.06390246 C15.2273618,3.86392411 15.4879966,3.67396555 15.7440222,3.49903668 C16.5556778,2.94377319 17.3593718,2.50791223 18.1324768,2.20439603 C17.3694284,2.04324437 16.5854287,1.94847384 15.801848,1.92258937 C15.6518363,1.91757948 15.4997294,1.91507453 15.3505558,1.91507453 C13.7641191,1.91507453 12.1994718,2.19354125 10.6993547,2.74254237 C9.94762005,3.01766916 9.21976994,3.35875959 8.53591768,3.75662883 C8.98050546,3.68022792 9.44394945,3.62553655 9.91409788,3.59380721 C10.240939,3.57209766 10.5757417,3.5608254 10.9097063,3.5608254 M17.0283403,4.67886721 C17.4004364,4.81162945 17.7754657,4.95775142 18.1437905,5.11347569 C19.2500221,4.87550563 20.329436,4.74107342 21.3522812,4.71393648 C21.4805035,4.71059655 21.6095639,4.70892658 21.735272,4.70892658 C22.2091917,4.70892658 22.6722166,4.73314108 23.1121951,4.78073509 C22.8444368,4.31147483 22.5004155,3.95368475 22.0889309,3.71738465 C21.6837317,3.48400699 21.2085549,3.36585694 20.6772285,3.36585694 C20.4052799,3.36585694 20.1148941,3.39716879 19.8131946,3.45854002 C18.969693,3.62971147 18.0067687,4.05179521 17.0283403,4.67886721 M20.7706716,6.43567077 C21.8463142,7.06817015 22.8595218,7.7841678 23.7834766,8.56487661 C23.8178368,7.84846147 23.7880859,7.18005783 23.6950618,6.57803532 C23.0979482,6.45988527 22.4400756,6.40018401 21.7390432,6.40018401 C21.626744,6.40018401 21.5119305,6.40143648 21.3971171,6.40477641 C21.1930509,6.40978631 20.9822803,6.42022359 20.7706716,6.43567077 M25.3477048,10.0340286 C26.0491562,10.7675609 26.6764398,11.5395024 27.2132136,12.329396 C27.3259318,11.9678485 27.4072231,11.6104759 27.4554112,11.2668806 C27.5966234,10.258639 27.451221,9.37313984 27.0229752,8.63459766 C26.6781159,8.03925501 26.1555891,7.55204262 25.4696417,7.1863202 C25.5094493,7.77999289 25.5035829,8.41833715 25.4512045,9.08298336 C25.4269009,9.39150946 25.3921217,9.71130783 25.3477048,10.0340286 M10.9101253,5.25208282 C10.6142922,5.25208282 10.317202,5.26210261 10.0284923,5.28130721 C8.56608763,5.37941768 7.27129383,5.71967312 6.17930915,6.29247124 C5.08355323,6.86735682 4.24047066,7.65516298 3.67310794,8.63459766 C3.10532619,9.61361486 2.84217716,10.7354141 2.89036528,11.968266 C2.92430647,12.8399879 3.11328771,13.7484491 3.45144259,14.6690175 C4.22622374,13.5221688 5.20381401,12.3982821 6.3578147,11.3290868 C7.73180464,10.0557382 9.30608953,8.90554954 11.0366715,7.90983269 C11.0991066,7.87392844 11.1615416,7.83844167 11.2239767,7.8033724 C11.9074099,6.95210756 12.6252034,6.16388391 13.3564057,5.45999351 C12.5250559,5.32222136 11.7020866,5.25208282 10.9101253,5.25208282 M28.2997509,14.1934949 C28.5013029,14.6055588 28.6806465,15.0230502 28.8323344,15.4342791 C28.8365246,14.7216214 28.7833082,14.0047888 28.6739421,13.3021509 C28.5658331,13.5964822 28.4397059,13.896241 28.2997509,14.1934949 M1.8633298,15.2664476 C1.85913953,15.9791053 1.91235598,16.6963555 2.02172205,17.3989934 C2.13025008,17.1042445 2.25637724,16.8044857 2.3963323,16.5072319 C2.19436123,16.0947504 2.01543665,15.6776766 1.8633298,15.2664476 M4.31044819,16.4988821 C4.71522839,17.2073649 5.20171888,17.9066629 5.75567273,18.5771539 C6.32513059,16.2984862 7.3249293,13.8824638 8.64779792,11.5862614 C8.25558854,11.9035549 7.87427386,12.2337905 7.51391053,12.5673661 C6.2882562,13.7029425 5.2901336,14.8907054 4.54761754,16.0968379 C4.46674531,16.2287652 4.38671113,16.3640323 4.31044819,16.4988821 M24.9404104,12.1235728 C24.3705336,14.4022405 23.3707349,16.8182629 22.0478662,19.1148828 C22.4404946,18.7971719 22.8218093,18.4673537 23.1821726,18.1333607 C24.407827,16.9973667 25.4059496,15.8100213 26.1484656,14.6034714 C26.2293379,14.4719616 26.308953,14.3371119 26.385635,14.2022622 C25.9804358,13.4933619 25.4943643,12.7940639 24.9404104,12.1235728 M3.48286963,18.3713307 C3.37015133,18.7332957 3.28886007,19.0902508 3.24067195,19.4338462 C3.09987884,20.4420878 3.24528125,21.3275869 3.67310794,22.0661291 C4.01796726,22.6610542 4.54049408,23.1482666 5.22644148,23.5139891 C5.18621487,22.9203164 5.19250028,22.2823896 5.24487867,21.6173259 C5.26876322,21.3092173 5.30354247,20.9894189 5.34795934,20.6662806 C4.64692697,19.9331658 4.01964337,19.1612243 3.48286963,18.3713307 M7.16192775,20.0842977 C8.27989211,21.151823 9.55960094,22.1032858 10.965856,22.912384 C11.537828,23.2413672 12.1278182,23.5444659 12.7194845,23.8133303 C13.0919996,23.7218997 13.4724762,23.6171094 13.8500196,23.5014643 C15.3606124,23.0388839 16.8741384,22.3946948 18.3474377,21.5864315 C19.1326945,20.5844523 19.8697633,19.4910425 20.5389496,18.3362614 C21.4779893,16.7155601 22.2364284,15.0577019 22.7928965,13.4086111 C23.1163854,12.450051 23.3657065,11.510278 23.5337364,10.6160116 C22.415772,9.54848621 21.1360632,8.59744093 19.7298082,7.78834271 C19.1578362,7.45935954 18.568265,7.15626082 17.9765987,6.8873964 C17.6036646,6.978827 17.223607,7.08361733 16.8460635,7.19926243 C15.3354708,7.66142535 13.8219448,8.30603198 12.3482264,9.1147127 C11.5629696,10.1162744 10.8259009,11.2096843 10.1567146,12.3644653 C9.21767481,13.9851667 8.45923572,15.6430248 7.90318673,17.2921156 C7.57927876,18.2506757 7.33037665,19.1904487 7.16192775,20.0842977 M7.00102134,24.1226914 C7.59813498,24.2408415 8.25642659,24.3005427 8.95829702,24.3005427 C9.07017726,24.3005427 9.18457166,24.2988728 9.29896607,24.2959503 C9.50303228,24.2905229 9.71338389,24.2800857 9.92499259,24.265056 C8.84976899,23.6325566 7.83614239,22.9161415 6.91260661,22.1358501 C6.87782736,22.8522653 6.90757829,23.5202514 7.00102134,24.1226914 M17.3392585,25.2403157 C18.1706083,25.3785054 18.9935775,25.4486439 19.7855388,25.4486439 C20.081791,25.4486439 20.3784622,25.4386241 20.6675909,25.4194195 C22.1295765,25.3213091 23.4247894,24.9810536 24.516355,24.4082555 C25.6121109,23.8333699 26.4556125,23.0455638 27.0229752,22.0661291 C27.590338,21.0866944 27.853487,19.9653127 27.8052989,18.7324607 C27.7713577,17.8607388 27.5823764,16.9522776 27.2442216,16.0317092 C26.4698594,17.178558 25.4922692,18.3024446 24.3382685,19.37164 C22.9642785,20.6449886 21.3899937,21.7951772 19.6594116,22.7904766 C19.5969766,22.8267983 19.5345416,22.8622851 19.4716875,22.8977718 C18.7882543,23.7490367 18.0704608,24.5372603 17.3392585,25.2403157 M7.58388806,25.9199917 C7.85164639,26.3888344 8.19566766,26.7466245 8.60673326,26.9833421 C9.01235152,27.2163023 9.48710925,27.3344523 10.0188547,27.3344523 C10.2903842,27.3344523 10.5811891,27.303558 10.8824696,27.2421867 C11.7263902,27.0705978 12.6888955,26.6489315 13.6673238,26.021442 C13.2956468,25.8890973 12.9206175,25.7429753 12.5522926,25.5872511 C11.446061,25.8252211 10.3666472,25.9596533 9.34380197,25.9867903 C9.21474162,25.9901302 9.08526224,25.9918002 8.95913507,25.9918002 C8.48605345,25.9918002 8.02344751,25.9675857 7.58388806,25.9199917 M12.5636064,28.4963307 C13.3262357,28.6574824 14.1102355,28.7522529 14.8938162,28.7781374 C15.0438279,28.7831473 15.1959347,28.7856522 15.3459465,28.7856522 C16.9319641,28.7856522 18.4966114,28.5071855 19.9967285,27.9581844 C20.7484631,27.6830576 21.4758942,27.3419672 22.1601655,26.9440979 C21.7155777,27.0204988 21.2517147,27.0751902 20.7815663,27.1069195 C20.4547251,27.1286291 20.1199224,27.1399013 19.7859578,27.1399013 C18.4764981,27.1399013 17.1113077,26.9703999 15.7272611,26.6368243 C15.4687214,26.8363851 15.2080865,27.0263437 14.952061,27.2012726 C14.1399864,27.7569536 13.3367114,28.192397 12.5636064,28.4963307 M15.3463655,30.4769096 C15.1774976,30.4769096 15.0065345,30.4739872 14.8376666,30.4685598 C12.8062231,30.4013437 10.8334434,29.9325009 8.97422005,29.0753912 C7.11499671,28.2182815 5.47953386,27.0234213 4.11308642,25.5246274 C2.79357001,24.0771849 1.77994341,22.408472 1.10028141,20.5652477 C0.420619424,18.721606 0.108863246,16.7961359 0.174231477,14.8418589 C0.241694844,12.8178609 0.711843274,10.8523117 1.57252498,8.99990259 C2.43278766,7.14749351 3.63162425,5.5180248 5.13635065,4.15658554 C6.58911768,2.84190531 8.26396908,1.83199375 10.1139738,1.1548228 C11.8018151,0.536935614 13.5634051,0.223817108 15.3497177,0.223817108 C15.5181666,0.223817108 15.6895487,0.226739547 15.8584166,0.232166935 C17.8894411,0.299383041 19.8622208,0.768225816 21.7214441,1.62533554 C23.5810865,2.48244526 25.2165493,3.67688799 26.5829968,5.17609939 C27.9025132,6.62354187 28.9161398,8.29225476 29.5958018,10.135479 C30.2754638,11.9787033 30.5868009,13.9045909 30.5218517,15.8588678 C30.4543883,17.8824484 29.9838209,19.8479976 29.1235582,21.7008242 C28.2632955,23.5532332 27.0640399,25.1827019 25.5597325,26.5441412 C24.1069655,27.8588214 22.4321141,28.868733 20.5816903,29.5459039 C18.8938491,30.1637911 17.1322591,30.4769096 15.3463655,30.4769096" mask="url(#h)"/>
      </g>
    </g>
    <g transform="translate(95 16)">
      <path fill="#00455F" d="M71.4477968 4.86304429L74.6944189 4.86304429 74.6944189 6.58770101 74.7677487 6.58770101C75.6326207 5.17365784 77.1239382 4.52696376 78.5670676 4.52696376 82.1987757 4.52696376 83.1130928 6.56390401 83.1130928 9.63121289L83.1130928 17.2516823 79.6971837 17.2516823 79.6971837 10.25411C79.6971837 8.21716972 79.1201834 7.2105981 77.5090241 7.2105981 75.6565052 7.2105981 74.8637059 8.24096672 74.8637059 10.7584395L74.8637059 17.2516823 71.4477968 17.2516823 71.4477968 4.86304429zM63.3664397 4.52696376C67.2860194 4.52696376 69.8114959 7.11499258 69.8114959 11.0690531 69.8114959 14.999734 67.2860194 17.5860929 63.3664397 17.5860929 59.4694875 17.5860929 56.9440111 14.999734 56.9440111 11.0690531 56.9440111 7.11499258 59.4694875 4.52696376 63.3664397 4.52696376L63.3664397 4.52696376zM47.5150628 13.2258133C47.5150628 14.6874505 48.8144659 15.3103476 50.1364964 15.3103476 51.0985827 15.3103476 52.3741013 14.9279255 52.3741013 13.7288904 52.3741013 12.6985218 50.9309719 12.3148472 48.5014526 11.8126051 46.5047884 11.3558696 44.5575694 10.709593 44.5575694 8.50523874 44.5575694 5.34107187 47.2992638 4.52696376 49.9684666 4.52696376 52.6619729 4.52696376 55.1874494 5.43792986 55.4526935 8.48144174L52.2048143 8.48144174C52.1088571 7.16258659 51.0985827 6.80437902 49.8725094 6.80437902 49.1023375 6.80437902 47.9722214 6.92378154 47.9722214 7.95415017 47.9722214 9.17572984 49.9206975 9.34314386 51.84487 9.79987939 53.8415343 10.25411 55.7883343 10.9734476 55.7883343 13.2734073 55.7883343 16.5319273 52.9272171 17.5860929 50.1126119 17.5860929 47.2271911 17.5860929 44.3887014 16.5081303 44.2684406 13.2258133L47.5150628 13.2258133zM40.612848 4.86304429L43.1131829 4.86304429 43.1131829 7.13878958 40.612848 7.13878958 40.612848 13.2734073C40.612848 14.4231785 40.9007197 14.711665 42.0547204 14.711665 42.4402253 14.711665 42.8014267 14.6874505 43.1131829 14.6160595L43.1131829 17.2754793C42.5361825 17.3710849 41.7911523 17.3948819 41.1181947 17.3948819 39.0004317 17.3948819 37.197358 16.9410688 37.197358 14.447393L37.197358 7.13878958 35.1286211 7.13878958 35.1286211 4.86304429 37.197358 4.86304429 37.197358 1.14778884 40.612848 1.14778884 40.612848 4.86304429zM22.7174568 8.67265277C22.9093712 5.50973837 25.7717455 4.52696376 28.561209 4.52696376 31.0389164 4.52696376 34.0211324 5.07805233 34.0211324 8.04975569L34.0211324 14.494987C34.0211324 15.6222136 34.1413932 16.7481878 34.4544064 17.2516823L30.9907283 17.2516823C30.8708865 16.8680078 30.7749293 16.4601188 30.7510447 16.0538997 29.6674406 17.1798738 28.1040504 17.5860929 26.5649638 17.5860929 24.1844707 17.5860929 22.3319518 16.4125247 22.3319518 13.8737599 22.3801399 8.24096672 30.7510447 11.2602641 30.6056423 8.48144174 30.6056423 7.04318407 29.5953679 6.80437902 28.3931791 6.80437902 27.0698915 6.80437902 26.2527886 7.33000062 26.1329468 8.67265277L22.7174568 8.67265277z"/>
      <polygon fill="#00455F" points="18.146 17.252 14.393 17.252 11.484 5.605 11.436 5.605 8.573 17.252 4.75 17.252 .204 .141 3.979 .141 6.697 11.789 6.745 11.789 9.727 .141 13.263 .141 16.198 11.932 16.246 11.932 19.059 .141 22.764 .141"/>
      <path fill="#FFFFFF" d="M30.6056423 11.1888731C30.028642 11.6919501 28.8264532 11.7157472 27.7684097 11.9082107 26.7099472 12.0994217 25.7478609 12.4818438 25.7478609 13.7288904 25.7478609 14.9755195 26.7342508 15.3103476 27.8400633 15.3103476 30.5096851 15.3103476 30.6056423 13.2258133 30.6056423 12.4580468L30.6056423 11.1888731zM63.3664397 15.023531C65.6987447 15.023531 66.3968439 13.0583993 66.3968439 11.0690531 66.3968439 9.08012432 65.6987447 7.09119557 63.3664397 7.09119557 61.0567623 7.09119557 60.3599202 9.08012432 60.3599202 11.0690531 60.3599202 13.0583993 61.0567623 15.023531 63.3664397 15.023531L63.3664397 15.023531z"/>
    </g>
    <polygon fill="#00455F" points="184.395 20.863 183.933 20.863 183.933 18.537 183.92 18.537 183.003 20.863 182.711 20.863 181.794 18.537 181.78 18.537 181.78 20.863 181.319 20.863 181.319 18.077 182.032 18.077 182.867 20.193 183.689 18.077 184.395 18.077"/>
    <polygon fill="#00455F" points="180.822 18.449 179.946 18.449 179.946 20.863 179.484 20.863 179.484 18.449 178.608 18.449 178.608 18.077 180.822 18.077"/>
  </g>
</svg>
