<?xml version="1.0" encoding="UTF-8"?>
<svg width="300px" height="150px" viewBox="0 0 300 150" version="1.1" xmlns="http://www.w3.org/2000/svg" xmlns:xlink="http://www.w3.org/1999/xlink">
    <!-- Generator: Sketch 40.1 (33804) - http://www.bohemiancoding.com/sketch -->
    <title>logo_color_didi</title>
    <desc>Created with Sketch.</desc>
    <defs>
        <linearGradient x1="50.0009287%" y1="100.0014%" x2="50.0009287%" y2="-0.000233372229%" id="linearGradient-1">
            <stop stop-color="#E58313" offset="0%"></stop>
            <stop stop-color="#EAA82D" offset="100%"></stop>
        </linearGradient>
        <linearGradient x1="50.0009365%" y1="99.9990665%" x2="50.0009365%" y2="-0.000233366783%" id="linearGradient-2">
            <stop stop-color="#E07D12" offset="0%"></stop>
            <stop stop-color="#EAA017" offset="100%"></stop>
        </linearGradient>
        <linearGradient x1="0.000911540507%" y1="50.0007001%" x2="100.000946%" y2="50.0007001%" id="linearGradient-3">
            <stop stop-color="#ECCC49" stop-opacity="0.1" offset="0%"></stop>
            <stop stop-color="#ECCC49" stop-opacity="0.0859" offset="14.13%"></stop>
            <stop stop-color="#ECCC49" stop-opacity="0" offset="100%"></stop>
        </linearGradient>
    </defs>
    <g id="Page-1" stroke="none" stroke-width="1" fill="none" fill-rule="evenodd">
        <g id="logo_color_didi" transform="translate(17.000000, 31.000000)">
            <g id="Page-1">
                <g id="滴滴logo-svg">
                    <g id="Group">
                        <g id="Shape" transform="translate(126.000000, 0.000000)">
                            <g id="Group" fill="#666767">
                                <path d="M4.782,20.778 C4.74,20.75 4.692,20.736 4.646,20.736 C4.578,20.736 4.514,20.764 4.464,20.816 L1.448,24.27 C1.402,24.324 1.382,24.388 1.386,24.458 C1.39,24.528 1.428,24.584 1.484,24.628 C3.87,26.406 7.164,29.204 11.55,33.18 C11.598,33.22 11.658,33.244 11.716,33.244 C11.778,33.244 11.848,33.214 11.896,33.162 C12.826,32.14 13.974,30.882 15.4,29.296 C15.444,29.248 15.468,29.182 15.458,29.116 C15.456,29.052 15.424,28.988 15.376,28.944 C11.182,25.466 7.614,22.716 4.782,20.778 L4.782,20.778 L4.782,20.778 Z" id="Shape"></path>
                                <path d="M13.776,40.194 C12.176,39.658 10.55,38.992 8.92,38.208 C8.89,38.194 8.852,38.186 8.816,38.186 C8.782,38.186 8.742,38.194 8.708,38.208 C8.642,38.244 8.592,38.304 8.578,38.38 C6.734,47.472 4.786,55.248 2.788,61.486 C2.766,61.548 2.778,61.616 2.802,61.678 C2.832,61.734 2.888,61.776 2.948,61.798 L8.262,63.364 C8.28,63.374 8.308,63.376 8.332,63.376 C8.374,63.376 8.416,63.364 8.456,63.344 C8.514,63.31 8.556,63.252 8.568,63.188 C10.74,53.872 12.444,46.658 13.934,40.486 C13.966,40.36 13.898,40.234 13.776,40.194 L13.776,40.194 L13.776,40.194 Z" id="Shape"></path>
                                <path d="M7.15,4.73 C7.11,4.694 7.054,4.678 6.998,4.678 C6.932,4.678 6.866,4.702 6.82,4.758 L3.75,8.074 C3.704,8.122 3.68,8.19 3.686,8.258 C3.688,8.322 3.722,8.386 3.776,8.43 C7.012,11.106 10.088,14 12.924,17.032 C12.972,17.084 13.034,17.112 13.104,17.112 L13.104,17.112 C13.172,17.112 13.238,17.084 13.286,17.032 L16.79,13.298 C16.832,13.248 16.858,13.184 16.852,13.12 C16.852,13.052 16.822,12.992 16.772,12.948 C12.88,9.434 9.736,6.748 7.15,4.73 L7.15,4.73 L7.15,4.73 Z" id="Shape"></path>
                                <path d="M65.07,8.684 L44.616,8.684 L44.602,1.76 C44.602,1.624 44.488,1.516 44.352,1.516 L38.692,1.516 C38.632,1.516 38.57,1.542 38.52,1.59 C38.48,1.634 38.45,1.696 38.45,1.762 L38.466,8.684 L17.868,8.684 C17.736,8.684 17.628,8.792 17.628,8.928 L17.628,12.482 C17.628,12.618 17.736,12.726 17.868,12.726 L26.608,12.726 C26.904,13.446 27.232,14.332 27.584,15.268 C28.258,17.082 29.018,19.124 29.894,21.014 L24.946,21.014 C21.338,20.93 19.738,22.336 19.792,26.376 L19.792,63.832 C19.792,63.968 19.9,64.076 20.036,64.076 L25.156,64.076 C25.288,64.076 25.398,63.968 25.398,63.832 L25.398,27.354 C25.432,25.878 26.016,25.27 27.488,25.248 L38.662,25.248 L38.662,31.176 L28.386,31.176 C28.25,31.176 28.142,31.282 28.142,31.42 L28.142,34.642 C28.142,34.776 28.25,34.888 28.386,34.888 L38.662,34.888 L38.662,41.182 L30.698,41.182 C30.56,41.182 30.452,41.294 30.452,41.426 L30.452,56.764 C30.452,56.896 30.56,57.01 30.698,57.01 L46.098,57.01 C46.534,57.026 46.922,57.034 47.286,57.034 C49.466,57.034 50.666,56.704 51.45,55.892 C52.26,55.052 52.566,53.698 52.478,51.376 L52.478,41.428 C52.478,41.294 52.37,41.184 52.234,41.184 L44.008,41.184 L44.008,34.89 L54.546,34.89 C54.684,34.89 54.792,34.778 54.792,34.644 L54.792,31.42 C54.792,31.28 54.684,31.176 54.546,31.176 L44.008,31.176 L44.008,25.248 L55.204,25.248 C56.926,25.246 57.35,26.158 57.272,27.948 L57.272,57.13 C57.272,58.804 55.938,59.156 54.814,59.156 L48.608,59.156 C48.544,59.156 48.484,59.184 48.438,59.228 C48.392,59.274 48.37,59.336 48.37,59.404 L48.386,63.456 C48.386,63.59 48.496,63.702 48.628,63.702 L56.902,63.702 C60.824,63.702 62.816,61.814 62.816,58.098 L62.882,26.654 C62.928,22.654 61.702,20.966 56.926,21.014 L52.8,21.014 C53.932,18.806 54.894,16.07 55.674,13.848 C55.814,13.458 55.944,13.082 56.072,12.728 L65.07,12.728 C65.208,12.728 65.314,12.62 65.314,12.484 L65.314,8.93 C65.314,8.792 65.208,8.684 65.07,8.684 L65.07,8.684 L65.07,8.684 Z M50.126,12.726 C49.62,13.92 48.246,17.414 47.384,19.608 C47.14,20.234 46.938,20.736 46.828,21.014 L36.106,21.014 C35.936,20.598 35.486,19.574 34.824,18.068 C33.956,16.098 32.904,13.704 32.522,12.726 L50.126,12.726 L50.126,12.726 L50.126,12.726 Z M35.818,53.572 L35.818,45.12 L47.104,45.12 L47.104,50.876 C47.06,53.46 47.022,53.462 44.774,53.556 L44.432,53.57 L35.818,53.57 L35.818,53.572 L35.818,53.572 Z" id="Shape"></path>
                            </g>
                            <g id="Group" transform="translate(74.000000, 0.000000)" fill="#666767">
                                <path d="M4.132,20.33 C4.09,20.3 4.04,20.288 3.994,20.288 C3.928,20.288 3.86,20.314 3.81,20.37 L0.792,23.824 C0.75,23.876 0.726,23.944 0.738,24.014 C0.746,24.082 0.782,24.138 0.832,24.182 C3.216,25.962 6.51,28.758 10.902,32.734 C10.944,32.774 11.006,32.796 11.064,32.796 C11.13,32.796 11.196,32.766 11.246,32.716 C12.176,31.694 13.326,30.436 14.746,28.848 C14.792,28.802 14.818,28.738 14.812,28.668 C14.808,28.602 14.774,28.542 14.724,28.498 C10.526,25.018 6.962,22.266 4.132,20.33 L4.132,20.33 L4.132,20.33 Z" id="Shape"></path>
                                <path d="M13.126,39.746 C11.528,39.208 9.894,38.542 8.274,37.76 C8.24,37.742 8.206,37.736 8.166,37.736 C8.126,37.736 8.092,37.744 8.06,37.76 C7.992,37.794 7.942,37.856 7.924,37.93 C6.086,47.022 4.138,54.798 2.136,61.036 C2.116,61.098 2.124,61.166 2.154,61.228 C2.184,61.284 2.238,61.324 2.302,61.348 L7.616,62.912 C7.634,62.922 7.658,62.924 7.684,62.924 C7.722,62.924 7.766,62.912 7.806,62.892 C7.864,62.86 7.908,62.8 7.922,62.736 C10.094,53.42 11.796,46.208 13.286,40.036 C13.312,39.91 13.25,39.786 13.126,39.746 L13.126,39.746 L13.126,39.746 Z" id="Shape"></path>
                                <path d="M6.498,4.28 C6.456,4.246 6.402,4.228 6.346,4.228 C6.278,4.228 6.218,4.254 6.168,4.31 L3.096,7.626 C3.046,7.676 3.026,7.74 3.03,7.808 C3.036,7.874 3.068,7.938 3.118,7.982 C6.354,10.66 9.434,13.554 12.272,16.584 C12.318,16.636 12.38,16.664 12.448,16.664 L12.448,16.664 C12.518,16.664 12.582,16.636 12.628,16.584 L16.132,12.848 C16.176,12.8 16.2,12.738 16.2,12.672 C16.198,12.604 16.164,12.544 16.12,12.502 C12.232,8.986 9.082,6.298 6.498,4.28 L6.498,4.28 L6.498,4.28 Z" id="Shape"></path>
                                <path d="M64.42,8.234 L43.964,8.234 L43.948,1.31 C43.948,1.176 43.84,1.068 43.704,1.068 L38.044,1.068 C37.978,1.068 37.92,1.094 37.87,1.142 C37.826,1.186 37.798,1.248 37.798,1.312 L37.816,8.234 L17.218,8.234 C17.086,8.234 16.974,8.342 16.974,8.478 L16.974,12.034 C16.974,12.168 17.086,12.276 17.218,12.276 L25.96,12.276 C26.256,12.998 26.586,13.882 26.934,14.818 C27.604,16.632 28.368,18.676 29.242,20.566 L24.29,20.566 C20.68,20.482 19.082,21.886 19.14,25.926 L19.14,63.382 C19.14,63.52 19.246,63.626 19.38,63.626 L24.5,63.626 C24.636,63.626 24.748,63.518 24.748,63.382 L24.748,26.906 C24.778,25.432 25.358,24.822 26.836,24.8 L38.012,24.8 L38.012,30.728 L27.732,30.728 C27.598,30.728 27.488,30.834 27.488,30.974 L27.488,34.196 C27.488,34.328 27.596,34.44 27.732,34.44 L38.012,34.44 L38.012,40.732 L30.046,40.732 C29.912,40.732 29.8,40.844 29.8,40.978 L29.8,56.316 C29.8,56.448 29.914,56.562 30.046,56.562 L45.446,56.562 C45.88,56.578 46.272,56.584 46.632,56.584 C48.812,56.584 50.018,56.256 50.796,55.442 C51.608,54.602 51.918,53.248 51.826,50.926 L51.826,40.978 C51.826,40.844 51.718,40.732 51.584,40.732 L43.354,40.732 L43.354,34.44 L53.9,34.44 C54.032,34.44 54.142,34.328 54.142,34.196 L54.142,30.974 C54.142,30.836 54.032,30.728 53.9,30.728 L43.354,30.728 L43.354,24.8 L54.552,24.8 C56.274,24.798 56.698,25.71 56.62,27.5 L56.62,56.68 C56.62,58.354 55.282,58.704 54.158,58.704 L47.958,58.704 C47.892,58.704 47.828,58.732 47.784,58.778 C47.74,58.824 47.714,58.886 47.714,58.954 L47.736,63.004 C47.74,63.14 47.842,63.248 47.978,63.248 L56.258,63.248 C60.178,63.248 62.164,61.362 62.164,57.646 L62.234,26.202 C62.28,22.2 61.046,20.514 56.272,20.564 L52.142,20.564 C53.278,18.356 54.238,15.618 55.02,13.396 C55.156,13.008 55.288,12.632 55.42,12.276 L64.416,12.276 C64.548,12.276 64.658,12.168 64.658,12.034 L64.658,8.48 C64.66,8.342 64.552,8.234 64.42,8.234 L64.42,8.234 L64.42,8.234 Z M49.472,12.276 C48.964,13.47 47.596,16.964 46.728,19.16 C46.486,19.782 46.288,20.286 46.176,20.564 L35.45,20.564 C35.286,20.148 34.836,19.124 34.174,17.618 C33.3,15.648 32.25,13.256 31.864,12.276 L49.472,12.276 L49.472,12.276 L49.472,12.276 Z M35.17,53.122 L35.17,44.672 L46.454,44.672 L46.454,50.43 C46.412,53.014 46.366,53.014 44.122,53.11 L43.784,53.124 L35.17,53.124 L35.17,53.122 L35.17,53.122 Z" id="Shape"></path>
                            </g>
                            <g id="Group" transform="translate(0.000000, 74.000000)" fill="#999999">
                                <path d="M53.022,2.136 L53.022,1.194 L65.498,1.194 L65.498,2.136 L59.226,2.136 L59.226,12.782 L57.996,12.782 L57.996,2.136 L53.022,2.136 L53.022,2.136 L53.022,2.136 Z M64.366,8 C62.868,6.97 61.346,6.14 59.816,5.528 L59.854,4.522 C61.642,5.088 63.124,5.928 64.366,6.71 L64.366,8 L64.366,8 L64.366,8 Z" id="Shape"></path>
                                <path d="M81.67,9.248 L86.518,9.248 L86.518,8.516 L81.396,8.516 C81.364,8.408 81.348,8.282 81.348,8.142 L81.348,6.922 L86.68,6.922 L86.68,6.2 L81.296,6.2 L81.296,4.6 L85.732,4.6 L85.732,3.864 L81.296,3.864 L81.296,2.39 L86.308,2.39 L86.308,1.7 L83.722,1.7 C83.894,1.386 84.006,0.998 84.04,0.54 L82.934,0.54 C82.896,0.96 82.788,1.352 82.616,1.7 L78.87,1.7 C78.722,1.352 78.636,0.96 78.6,0.54 L77.486,0.54 C77.56,0.998 77.654,1.386 77.766,1.7 L75.174,1.7 L75.174,2.39 L80.134,2.39 L80.134,3.864 L75.862,3.864 L75.862,4.6 L80.134,4.6 L80.134,6.198 L74.854,6.198 L74.854,6.92 L80.188,6.92 L80.188,8.14 C80.188,8.21 80.134,8.476 80.134,8.514 L75.008,8.514 L75.008,9.246 L79.87,9.246 C79.204,10.412 77.368,11.244 74.7,11.664 L74.7,12.576 C77.512,12.15 79.538,11.254 80.774,9.878 C81.966,11.254 83.998,12.15 86.844,12.576 L86.844,11.602 C84.058,10.964 82.336,10.414 81.67,9.248 L81.67,9.248 L81.67,9.248 Z" id="Shape"></path>
                                <g id="Shape">
                                    <g>
                                        <path d="M1.98,3.934 C2.542,4.318 3.244,4.868 4.104,5.576 C3.802,5.902 3.57,6.154 3.386,6.342 C2.538,5.56 1.868,4.986 1.384,4.628 L1.98,3.934 L1.98,3.934 L1.98,3.934 Z"></path>
                                        <path d="M2.824,7.432 C3.162,7.594 3.486,7.722 3.802,7.83 C3.476,9.162 3.12,10.67 2.724,12.366 L1.668,12.05 C2.058,10.796 2.45,9.26 2.824,7.432 L2.824,7.432 L2.824,7.432 Z"></path>
                                        <path d="M2.458,0.73 C2.974,1.136 3.612,1.682 4.376,2.374 L3.676,3.12 C3.106,2.51 2.498,1.938 1.834,1.396 L2.458,0.73 L2.458,0.73 L2.458,0.73 Z"></path>
                                    </g>
                                    <path d="M11.5,8.032 L7.204,8.032 L7.204,11.092 L10.282,11.092 C11.236,11.122 11.538,10.978 11.5,10.024 L11.5,8.032 L11.5,8.032 L11.5,8.032 Z M9.944,10.502 L8.17,10.502 L8.17,8.714 L10.522,8.714 L10.522,9.92 C10.514,10.502 10.466,10.482 9.944,10.502 L9.944,10.502 L9.944,10.502 Z"></path>
                                    <path d="M14.072,2.232 L14.072,1.534 L10.016,1.534 L10.044,0.27 L8.908,0.27 L8.89,1.534 L4.632,1.534 L4.632,2.232 L6.408,2.232 C6.592,2.674 6.812,3.392 7.108,3.986 L6.04,3.986 C5.294,4.03 5.102,4.27 5.066,5.022 L5.066,12.508 L6.08,12.508 L6.08,5.33 C6.122,4.978 6.318,4.782 6.68,4.748 L8.842,4.748 L8.842,6.032 L6.728,6.032 L6.728,6.67 L8.842,6.67 L8.842,8.046 L9.804,8.046 L9.804,6.67 L11.972,6.67 L11.972,6.032 L9.804,6.032 L9.804,4.748 L12.02,4.748 C12.374,4.748 12.562,4.938 12.562,5.33 L12.562,11.176 C12.562,11.454 12.376,11.62 12.02,11.62 L10.778,11.62 L10.778,12.434 L12.436,12.434 C13.194,12.434 13.576,12.07 13.576,11.356 L13.586,5.078 C13.586,4.258 13.296,3.986 12.436,3.986 L11.534,3.986 C11.814,3.458 12.058,2.744 12.234,2.232 L14.072,2.232 L14.072,2.232 L14.072,2.232 Z M10.458,3.986 L8.242,3.986 C8.204,3.886 7.556,2.46 7.486,2.232 L11.152,2.232 C11.084,2.384 10.526,3.82 10.458,3.986 L10.458,3.986 L10.458,3.986 Z"></path>
                                </g>
                                <g transform="translate(18.000000, 0.000000)" id="Shape">
                                    <g>
                                        <path d="M1.706,3.934 C2.25,4.318 2.956,4.868 3.812,5.576 C3.52,5.902 3.284,6.154 3.116,6.342 C2.252,5.56 1.582,4.986 1.098,4.628 L1.706,3.934 L1.706,3.934 L1.706,3.934 Z"></path>
                                        <path d="M2.532,7.432 C2.868,7.594 3.196,7.722 3.506,7.83 C3.186,9.162 2.83,10.67 2.436,12.366 L1.378,12.05 C1.774,10.796 2.164,9.26 2.532,7.432 L2.532,7.432 L2.532,7.432 Z"></path>
                                        <path d="M2.166,0.73 C2.676,1.136 3.326,1.682 4.08,2.374 L3.388,3.12 C2.814,2.51 2.208,1.938 1.554,1.396 L2.166,0.73 L2.166,0.73 L2.166,0.73 Z"></path>
                                    </g>
                                    <path d="M11.206,8.032 L6.91,8.032 L6.91,11.092 L9.984,11.092 C10.936,11.122 11.25,10.978 11.206,10.024 L11.206,8.032 L11.206,8.032 L11.206,8.032 Z M9.656,10.502 L7.884,10.502 L7.884,8.714 L10.238,8.714 L10.238,9.92 C10.224,10.502 10.172,10.482 9.656,10.502 L9.656,10.502 L9.656,10.502 Z"></path>
                                    <path d="M13.774,2.232 L13.774,1.534 L9.736,1.534 L9.748,0.262 L8.62,0.262 L8.598,1.534 L4.336,1.534 L4.336,2.232 L6.118,2.232 C6.294,2.674 6.542,3.392 6.826,3.986 L5.756,3.986 C5.008,4.03 4.808,4.27 4.774,5.022 L4.774,12.508 L5.798,12.508 L5.798,5.33 C5.834,4.978 6.03,4.782 6.396,4.748 L8.55,4.748 L8.55,6.032 L6.448,6.032 L6.448,6.67 L8.55,6.67 L8.55,8.046 L9.516,8.046 L9.516,6.67 L11.674,6.67 L11.674,6.032 L9.516,6.032 L9.516,4.748 L11.728,4.748 C12.086,4.748 12.258,4.938 12.258,5.33 L12.258,11.176 C12.258,11.454 12.086,11.62 11.728,11.62 L10.48,11.62 L10.486,12.434 L12.142,12.434 C12.9,12.434 13.28,12.07 13.28,11.356 L13.288,5.074 C13.288,4.256 13.01,3.986 12.148,3.986 L11.238,3.986 C11.526,3.458 11.764,2.744 11.934,2.232 L13.774,2.232 L13.774,2.232 L13.774,2.232 Z M10.168,3.986 L7.96,3.986 C7.918,3.886 7.272,2.46 7.204,2.232 L10.862,2.232 C10.792,2.384 10.238,3.82 10.168,3.986 L10.168,3.986 L10.168,3.986 Z"></path>
                                </g>
                                <path d="M108.992,12.438 L108.992,7.168 L110.14,7.168 L110.182,11.618 L114.354,11.618 L114.354,6.2 L109.484,6.2 L109.516,1.244 L110.606,1.244 L110.626,5.324 L114.356,5.324 L114.356,0.406 L115.636,0.406 L115.636,5.324 L118.97,5.324 C119.322,5.292 119.502,5.092 119.502,4.738 L119.502,1.244 L120.606,1.244 L120.606,5.22 C120.54,5.808 120.216,6.128 119.63,6.2 L115.636,6.2 L115.636,11.618 L119.358,11.618 C119.718,11.618 119.894,11.428 119.894,11.07 L119.894,7.168 L121.044,7.168 L121.044,11.41 C121.006,12.056 120.592,12.4 119.778,12.436 L108.992,12.436 L108.992,12.438 L108.992,12.438 Z" id="Shape"></path>
                                <polygon id="Shape" points="36.746 5.732 36.746 4.75 48.066 4.75 48.066 5.746"></polygon>
                                <path d="M92.536,12.574 L91.708,11.982 C92.574,11.246 93.388,10.422 94.01,9.41 C93.574,8.974 92.094,7.454 92.094,7.454 L93.026,3.082 L91.938,3.082 L91.938,2.26 L93.19,2.26 L93.516,0.412 L94.604,0.412 L94.228,2.26 L95.748,2.252 C96.664,2.224 96.778,2.534 96.79,3.408 C96.802,4.396 96.622,5.448 96.374,6.35 C95.93,7.966 95.264,9.218 95.264,9.218 L97.234,11.192 L96.518,11.854 C95.972,11.342 95.366,10.778 94.716,10.166 C94.278,10.934 93.554,11.726 92.536,12.574 L92.536,12.574 L92.536,12.574 Z M94.552,8.38 C95.274,7.04 95.87,5.47 95.87,3.438 C95.87,3.146 95.668,3.084 95.426,3.082 L94.118,3.082 L93.306,7.064 C93.308,7.064 94.448,8.28 94.552,8.38 L94.552,8.38 L94.552,8.38 Z M104.204,6.678 L101.15,6.678 L101.15,11.42 C101.15,12.112 100.676,12.458 99.734,12.458 L97.31,12.494 L97.334,11.644 L99.134,11.644 C99.714,11.672 99.938,11.47 99.948,10.934 L99.948,6.678 L96.732,6.678 L96.732,5.864 L99.948,5.864 L99.948,4.824 C101.06,3.772 101.872,2.968 102.658,2.146 L97.388,2.166 L97.388,1.28 L103.236,1.282 C103.774,1.262 104.24,1.852 103.676,2.438 C102.994,3.142 102.304,3.876 101.136,5.018 L101.15,5.864 L104.204,5.864 L104.204,6.678 L104.204,6.678 L104.204,6.678 Z" id="Shape"></path>
                                <path d="M127.606,12.806 L127.606,7.31 C127.454,7.526 127.202,7.834 126.842,8.23 C126.804,8.314 126.768,8.366 126.736,8.402 L125.924,7.852 C126.932,6.684 127.786,5.42 128.476,4.038 L129.512,4.038 C129.08,5.014 128.654,5.954 128.654,5.954 L128.752,12.808 L127.606,12.808 L127.606,12.806 L127.606,12.806 Z M126.89,4.48 L126.076,3.994 C126.954,2.976 127.714,1.81 128.364,0.512 L129.456,0.512 C128.72,1.984 127.872,3.316 126.89,4.48 L126.89,4.48 L126.89,4.48 Z M132.738,12.64 L132.722,11.828 L134.678,11.828 C135.078,11.862 135.274,11.678 135.274,11.286 L135.274,5.568 L130.1,5.568 L130.1,4.754 L138.596,4.754 L138.596,5.568 L136.424,5.568 L136.424,11.668 C136.346,12.246 136,12.568 135.382,12.64 L132.738,12.64 L132.738,12.64 L132.738,12.64 Z M130.818,1.808 L130.818,0.936 L138.052,0.936 L138.052,1.808 L130.818,1.808 L130.818,1.808 L130.818,1.808 Z" id="Shape"></path>
                            </g>
                        </g>
                        <g id="Shape">
                            <path d="M54.098,67.988 C72.184,67.42 86.524,53.032 86.734,35.164 L86.732,19.798 L106.632,19.798 L106.632,36.786 C106.244,64.416 82.222,86.214 54.098,86.84 L54.098,86.836 C25.508,86.66 1.308,64.706 0.914,36.784 L0.914,6.246 C0.868,3.122 2.904,1.096 5.972,1.144 L86.722,1.14 L86.722,19.792 L23.402,19.808 C21.776,19.808 20.804,20.798 20.804,22.408 L20.804,34.852 C21.018,52.96 35.604,67.804 54.096,67.988 L54.098,67.988 L54.098,67.988 L54.098,67.988 Z" fill="url(#linearGradient-1)"></path>
                            <path d="M85.264,2.598 L85.264,18.334 L23.404,18.348 C20.976,18.348 19.346,19.978 19.346,22.406 L19.346,34.868 C19.454,44.044 23.084,52.676 29.564,59.17 C36.054,65.674 44.712,69.32 53.954,69.444 L53.988,69.45 L54.144,69.446 C73.018,68.854 87.974,53.802 88.194,35.164 L88.192,21.256 L105.174,21.256 L105.174,36.766 C104.994,49.608 99.522,61.722 89.768,70.876 C80.16,79.894 67.548,85.04 54.238,85.378 L54.108,85.378 C40.548,85.294 27.7,80.24 17.928,71.148 C8.082,61.986 2.558,49.774 2.374,36.786 L2.374,6.226 C2.358,5.106 2.678,4.18 3.3,3.546 C3.908,2.928 4.798,2.602 5.87,2.602 L5.974,2.602 L85.264,2.598 L85.264,2.598 L85.264,2.598 Z M86.724,1.14 L5.974,1.144 L5.87,1.144 C2.86,1.144 0.868,3.16 0.914,6.248 L0.914,36.786 C1.308,64.706 25.508,86.662 54.098,86.838 L54.098,86.842 C82.222,86.214 106.244,64.418 106.632,36.788 L106.632,19.8 L86.732,19.8 L86.734,35.166 C86.524,53.032 72.182,67.422 54.098,67.99 L54.096,67.99 C35.604,67.806 21.02,52.962 20.804,34.854 L20.804,22.41 C20.804,20.802 21.778,19.81 23.402,19.81 L86.722,19.794 L86.722,1.14 L86.724,1.14 L86.724,1.14 L86.724,1.14 Z" fill="url(#linearGradient-2)"></path>
                            <path d="M54.098,67.988 C72.184,67.42 86.524,53.032 86.734,35.164 L86.732,19.798 L106.632,19.798 L106.632,36.786 C106.244,64.416 82.222,86.214 54.098,86.84 L54.098,86.836 C25.508,86.66 1.308,64.706 0.914,36.784 L0.914,6.246 C0.868,3.122 2.904,1.096 5.972,1.144 L86.722,1.14 L86.722,19.792 L23.402,19.808 C21.776,19.808 20.804,20.798 20.804,22.408 L20.804,34.852 C21.018,52.96 35.604,67.804 54.096,67.988 L54.098,67.988 L54.098,67.988 L54.098,67.988 Z" fill="url(#linearGradient-3)"></path>
                        </g>
                    </g>
                </g>
            </g>
        </g>
    </g>
</svg>