<svg id="Layer_1" data-name="Layer 1" xmlns="http://www.w3.org/2000/svg" viewBox="0 0 600 300"><defs><style>.cls-1{fill:#d8d8d8;fill-opacity:0;}.cls-2{fill:#3b5998;}</style></defs><title>facebook</title><g id="color"><g id="logo_color_facebook" data-name="logo color facebook"><g id="facebook"><rect id="bounds" class="cls-1" width="600" height="300"/><g id="Facebook-2" data-name="Facebook"><g id="Layer_1-2" data-name="Layer 1"><g id="Group"><path id="Shape" class="cls-2" d="M238.345,38.625c-27.7,0-35.686,14.675-35.686,32.584V87.977c0,20.475,10.753,34.646,37.793,34.646a132.514,132.514,0,0,0,31.461-3.233V98.975c-13.035,2.241-19.225,2.735-29.374,2.735-11.285,0-14.7-2.488-14.7-12.044V87.977H274.02V71.208c0-18.081-7.966-32.583-35.675-32.583h0Zm10.5,32.583h-21V67.955c0-5.795,1.948-10.474,10.5-10.474s10.5,4.679,10.5,10.474v3.253h0Z" transform="translate(0 89)"/><path id="Shape-2" data-name="Shape" class="cls-2" d="M37.768,39.8L37.8,29.325c0-5.459.522-8.386,8.381-8.386h10.5V0H39.875C19.692,0,12.587,10.159,12.587,27.238V39.8H0V60.743H12.587v60.749h25.18V60.743H54.574L56.8,39.8H37.768Z" transform="translate(0 89)"/><path id="Shape-3" data-name="Shape" class="cls-2" d="M132.236,73.311V87.976c0,20.475,10.742,34.646,37.783,34.646,6.3,0,13.749-.671,25.192-3.233V98.974c-13.062,2.241-16.811,2.735-23.1,2.735-11.289,0-14.7-2.488-14.7-12.044V71.588c0-9.547,3.41-12.034,14.7-12.034,6.284,0,10.033.493,23.1,2.725V41.866c-11.443-2.561-18.894-3.241-25.192-3.241-27.04,0-37.783,14.2-37.783,34.686h0Z" transform="translate(0 89)"/><path id="Shape-4" data-name="Shape" class="cls-2" d="M88.6,39.8H65.067L62.96,60.743H84.495c13.169,0,14.151,2.5,14.151,11.042V75.4H81.238c-17.1,0-26.664,5.968-26.664,22.687,0,14.176,8.193,24.424,23.59,24.424a48.251,48.251,0,0,0,23.78-6.151l0.905,5.291h20.989v-49.7C123.838,48.907,117.5,39.8,88.6,39.8h0Zm10.042,61.528c-3.752,1.718-6.791,3.386-11.932,3.386-4.79,0-6.959-2.38-6.959-6.96,0-4.615,2.334-5.6,7.654-5.6H98.645v9.171h0Z" transform="translate(0 89)"/><path id="Shape-5" data-name="Shape" class="cls-2" d="M600,39.8H572.7L549.625,76.268V2.1l-25.18,4.184V121.492h25.18V83.1L572.7,121.492H600l-25.2-41.9Z" transform="translate(0 89)"/><path id="Shape-6" data-name="Shape" class="cls-2" d="M399.935,38.682c-29.6,0-36.8,16.558-36.8,33.632V88.8c0,17.069,7.2,33.625,36.8,33.625,29.582,0,36.655-16.556,36.655-33.625V72.314c0-17.074-7.073-33.632-36.655-33.632h0Zm11.45,52.542c0,5.815-2.993,10.484-11.534,10.484-8.567,0-11.534-4.67-11.534-10.484V70.048c0-5.795,2.968-10.454,11.534-10.454,8.541,0,11.534,4.66,11.534,10.454V91.224h0Z" transform="translate(0 89)"/><path id="Shape-7" data-name="Shape" class="cls-2" d="M480.579,38.682c-29.6,0-36.808,16.558-36.808,33.632V88.8c0,17.069,7.206,33.625,36.808,33.625,29.572,0,36.65-16.556,36.65-33.625V72.314c0-17.074-7.078-33.632-36.65-33.632h0Zm11.475,52.542c0,5.815-3.022,10.484-11.564,10.484s-11.519-4.67-11.519-10.484V70.048c0-5.795,2.968-10.454,11.519-10.454s11.564,4.66,11.564,10.454V91.224h0Z" transform="translate(0 89)"/><path id="Shape-8" data-name="Shape" class="cls-2" d="M326.512,38.625a57.274,57.274,0,0,0-18.893,3.038V2.1L282.443,6.286v113.1c13.7,2.1,20.991,3.194,33.4,3.194,34.374,0,40.047-14.433,40.047-34.222V67.954c0-18.075-4.189-29.329-29.374-29.329h0Zm4.194,49.909c0,7.853-1.686,13.486-14.017,13.486a80.09,80.09,0,0,1-9.07-.35V62.98c3.754-1.708,7.454-3.386,12.592-3.386,8.567,0,10.5,4.66,10.5,10.454V88.534h0Z" transform="translate(0 89)"/></g></g></g></g></g></g></svg>