<svg xmlns="http://www.w3.org/2000/svg" width="234" height="130" viewBox="0 0 234 130" xmlns:xlink="http://www.w3.org/1999/xlink">
  <defs>
    <path id="a" d="M5.43.04L3.698.61s.22 8.746-2.94 9.358c-2.084 2.41.32 102.933 7.893.344 0 0-2.59-1.298-3.08-3.503C5.08 4.6 5.43.04 5.43.04z"/>
    <linearGradient id="b" x1="-70.443%" x2="160.736%" y1="56.045%" y2="44.147%">
      <stop stop-color="#929669" offset="0%"/>
      <stop stop-color="#929669" offset="23.077%"/>
      <stop stop-color="#FDFCF1" offset="100%"/>
    </linearGradient>
    <path id="d" d="M2.664.006s15.048 9.89 11.523 30.425c-3.395 14.92-11.41 19.83-12.272 21.7C.967 53.46.012 55.81.012 55.81l.64-41.57S-.672 1.538 2.664.008z"/>
    <linearGradient id="e" x1="-16.607%" x2="78.15%" y1="99.299%" y2="2.536%">
      <stop stop-color="#45AA3A" offset="0%"/>
      <stop stop-color="#3D9439" offset="100%"/>
    </linearGradient>
    <path id="g" d="M13.394.03S-.72 9.638.09 26.59c.814 16.95 10.783 25.286 12.725 26.798 1.255 1.335 1.307 1.85 1.404 3.167.88-1.886.73-28.167.82-31.24C15.4 13.36 14.37 2.287 13.39.03z"/>
    <linearGradient id="h" x1="-9.624%" x2="152.344%" y1="43.904%" y2="53.689%">
      <stop stop-color="#41A83B" offset="0%"/>
      <stop stop-color="#5EBC44" offset="100%"/>
    </linearGradient>
  </defs>
  <g fill="none" fill-rule="evenodd">
    <g transform="matrix(1 0 0 -1 11.635 88.385)">
      <mask id="c" fill="#fff">
        <use xlink:href="#a"/>
      </mask>
      <path fill="url(#b)" d="M5.43.04L3.698.61s.22 8.746-2.94 9.358c-2.084 2.41.32 102.933 7.893.344 0 0-2.59-1.298-3.08-3.503C5.08 4.6 5.43.04 5.43.04" mask="url(#c)"/>
    </g>
    <g transform="matrix(1 0 0 -1 15.334 79.908)">
      <mask id="f" fill="#fff">
        <use xlink:href="#d"/>
      </mask>
      <path fill="url(#e)" d="M2.664.006s15.048 9.89 11.523 30.425c-3.395 14.92-11.41 19.83-12.272 21.7C.967 53.46.012 55.81.012 55.81l.64-41.57S-.672 1.538 2.664.008" mask="url(#f)"/>
    </g>
    <g transform="matrix(1 0 0 -1 1.058 80.485)">
      <mask id="i" fill="#fff">
        <use xlink:href="#g"/>
      </mask>
      <path fill="url(#h)" d="M13.394.03S-.72 9.638.09 26.59c.814 16.95 10.783 25.286 12.725 26.798 1.255 1.335 1.307 1.85 1.404 3.167.88-1.886.73-28.167.82-31.24C15.4 13.36 14.37 2.287 13.39.03" mask="url(#i)"/>
    </g>
    <path fill="#C0BDBA" d="M185.008 74.983c.998.796 2.995 1.124 4.755 1.124 2.28 0 4.516-.422 6.702-2.39 2.234-2.014 3.756-5.106 3.756-10.025 0-4.73-1.8-8.573-5.51-10.82-2.09-1.313-4.8-1.828-7.89-1.828-.9 0-1.8.047-2.33.28-.14.095-.43.47-.43.657-.09.85-.09 7.27-.09 11.06 0 3.89 0 9.33.1 9.98.05.56.33 1.55.95 1.97zm-9.49-26.047c.81 0 3.88.14 5.307.14 2.662 0 4.515-.14 9.507-.14 4.184 0 7.703 1.124 10.222 3.28 3.043 2.623 4.66 6.277 4.66 10.727 0 6.324-2.9 9.978-5.8 12.04-2.9 2.154-6.657 3.372-12.03 3.372-2.852 0-7.75-.093-11.838-.14h-.056c-.19-.375.35-1.836.685-1.874 1.105-.12 1.405-.16 1.918-.37.863-.35 1.067-.79 1.163-2.34.142-2.9.095-6.37.095-10.3 0-2.81.05-8.29-.04-10.02-.14-1.45-.76-1.82-1.99-2.11-.62-.14-1.47-.28-2.66-.42-.09-.28.64-1.54.88-1.83zm42.285 2.296c-.19.047-.428.515-.428.75-.047 1.685-.094 6.09-.094 9.134 0 .093.15.234.24.234.62.047 2.14.094 3.42.094 1.81 0 2.86-.235 3.43-.516 1.52-.75 2.24-2.39 2.24-4.17 0-4.074-2.85-5.62-7.08-5.62-.28 0-1.09 0-1.71.094zm10.792 18.738c0-4.122-3.042-6.465-8.605-6.465-.238 0-1.997-.047-2.425.047-.142.047-.284.14-.284.234 0 2.952-.04 7.683.1 9.557.1.796.67 1.92 1.38 2.248.76.43 2.47.52 3.66.52 3.28 0 6.18-1.82 6.18-6.13zm-19.378-21.034c.428 0 1.693.14 4.926.14 3.043 0 5.514-.093 8.462-.093 3.66 0 8.7 1.312 8.7 6.746 0 2.67-1.9 4.82-4.373 5.85-.143.04-.143.14 0 .18 3.518.89 6.608 3.04 6.608 7.16 0 4.03-2.52 6.56-6.18 8.15-2.235.98-4.992 1.31-7.798 1.31-2.14 0-7.872-.24-11.058-.19-.333-.14.305-1.64.59-1.88.76-.05 1.348-.1 2.156-.34 1.14-.28 1.276-.65 1.42-2.34.095-1.45.095-6.65.095-10.36 0-5.06.046-8.48 0-10.17-.05-1.31-.524-1.73-1.427-1.97-.713-.14-1.9-.28-2.852-.42-.24-.24.493-1.64.73-1.83z"/>
    <path fill="#414044" d="M39.137 78.335c-.08-.126-.163-.5-.146-.947.02-.34.09-.558.15-.632.9-.14 1.32-.236 1.83-.37.84-.21 1.16-.662 1.21-1.734.14-2.527.15-7.264.1-10.596v-.1c.01-.356.01-.845-.44-1.19-.66-.433-1.48-.79-2.52-1.103-.4-.117-.62-.326-.6-.57.01-.235.26-.533.78-.633 1.38-.142 4.99-1 6.41-1.65.09.1.22.32.19.672l-.03.462c-.04.47-.08 1.005-.08 1.537 0 .16.17.31.35.31.09 0 .18-.03.25-.1 2.7-2.1 5.12-2.86 6.36-2.86 2.04 0 3.63.98 4.86 2.98.07.11.17.16.28.16.11 0 .2-.05.26-.13 2.49-1.87 4.95-2.99 6.59-2.99 3.89 0 6.22 2.91 6.22 7.77 0 1.4-.02 3.17-.03 4.82-.01 1.45-.02 2.81-.02 3.75 0 .23.31.86.77.99.57.28 1.39.42 2.43.6l.04.01c.08.28-.09 1.37-.25 1.59-.25 0-.61-.02-1.06-.04-.8-.04-1.91-.09-3.2-.09-2.58 0-3.94.05-5.23.14-.09-.32-.13-1.36-.01-1.575.75-.14 1.13-.24 1.58-.37.83-.27 1.06-.64 1.11-1.73.02-.78.17-7.597-.09-9.216-.25-1.68-1.52-3.64-4.29-3.64-1.03 0-2.7.43-4.28 1.62-.1.1-.16.28-.16.4l.006.03c.187.88.187 1.9.187 3.44 0 .88-.006 1.81-.01 2.74-.01 1.88-.02 3.66.01 5 0 .92.554 1.13 1 1.31.24.057.435.1.63.15.37.09.76.187 1.33.28.08.18.09.72-.02 1.18-.06.25-.125.363-.16.4-1.44-.05-2.917-.09-5.046-.09-.64 0-1.7.03-2.625.053-.76.02-1.47.04-1.88.04-.057-.09-.14-.386-.14-.81 0-.4.074-.68.15-.76l.57-.11c.5-.09.93-.17 1.346-.27.703-.213.97-.604 1.02-1.5.137-2.08.244-8.09-.05-9.59-.505-2.415-1.884-3.64-4.1-3.64-1.3 0-2.937.62-4.277 1.62-.226.17-.396.585-.396.97 0 .71-.005 1.56-.01 2.48-.01 3.01-.02 6.77.05 8.39.05.5.22 1.09 1.168 1.31.204.06.56.114.98.18l.76.13c.097.26.04 1.27-.13 1.59-.412-.003-.92-.03-1.504-.05-.89-.04-1.995-.09-3.26-.09-1.484 0-2.52.05-3.35.09-.556.024-1.04.05-1.52.05M86.3 60.82c-.863 0-1.67.225-2.272.635-1.65 1-2.49 3-2.49 5.93 0 5.497 2.76 9.335 6.712 9.335 1.167 0 2.118-.334 2.908-1.022 1.216-.988 1.86-3.005 1.86-5.83 0-5.414-2.7-9.052-6.716-9.052zm.764 17.942c-7.143 0-9.688-5.222-9.688-10.108 0-3.416 1.4-6.085 4.164-7.934 1.96-1.204 4.305-1.896 6.423-1.896 5.45 0 9.26 3.904 9.26 9.5 0 3.8-1.523 6.8-4.4 8.68-1.38.84-3.776 1.753-5.763 1.753zM160.27 60.82c-.865 0-1.674.225-2.275.635-1.65 1-2.49 2.995-2.49 5.93 0 5.497 2.76 9.335 6.714 9.335 1.16 0 2.11-.334 2.9-1.022 1.21-.988 1.86-3.005 1.86-5.83 0-5.414-2.7-9.052-6.72-9.052zm.76 17.942c-7.142 0-9.687-5.222-9.687-10.108 0-3.417 1.402-6.086 4.165-7.935 1.964-1.21 4.31-1.9 6.426-1.9 5.457 0 9.26 3.9 9.26 9.5 0 3.8-1.52 6.8-4.4 8.68-1.38.84-3.77 1.75-5.76 1.75zm-24.662-18.13c-2.2 0-3.624 1.733-3.624 4.415 0 2.71 1.228 5.87 4.676 5.87.592 0 1.665-.264 2.197-.85.8-.732 1.324-2.25 1.324-3.85 0-3.496-1.7-5.584-4.56-5.584zm-.284 18.504c-.822 0-1.424.24-1.783.444-1.74 1.113-2.55 2.225-2.55 3.505 0 1.207.47 2.166 1.48 3.02 1.23 1.032 2.88 1.535 5.05 1.535 4.27 0 6.19-2.288 6.19-4.556 0-1.58-.79-2.636-2.43-3.235-1.26-.46-3.36-.72-5.94-.72zm.29 10.87c-2.564 0-4.41-.54-5.99-1.75-1.535-1.18-2.223-2.93-2.223-4.14 0-.348.09-1.248.84-2.107.45-.51 1.49-1.46 3.88-3.09.08-.03.13-.1.13-.19 0-.1-.06-.18-.15-.2-1.97-.76-2.56-1.99-2.74-2.66 0-.03-.01-.06-.02-.11-.05-.26-.11-.51.25-.76.28-.2.72-.46 1.19-.74.69-.41 1.48-.87 1.91-1.24.07-.07.1-.17.08-.27-.01-.1-.07-.18-.16-.23-2.91-.98-4.38-3.14-4.38-6.42 0-2.12.99-4.04 2.7-5.27 1.18-.93 4.12-2.04 6.03-2.04h.11c1.96.05 3.07.45 4.6 1.02.83.31 1.62.43 2.72.43 1.62 0 2.33-.51 2.94-1.1.04.07.12.3.16.84.04.54-.11 1.35-.53 1.92-.33.46-1.1.79-1.83.79-.07 0-.14 0-.21-.01-.75-.07-1.1-.18-1.1-.18l-.18.06c-.06.09-.02.18.03.3.01.03.03.06.03.07.1.38.27 1.49.27 1.8 0 3.45-1.36 4.95-2.84 6.06-1.41 1.06-3.05 1.69-4.9 1.89-.03 0-.21.01-.56.04-.222.02-.51.05-.55.05l-.04.01c-.324.09-1.16.49-1.16 1.225 0 .616.38 1.376 2.187 1.51.37.03.76.057 1.17.08 2.388.16 5.37.37 6.77.84 1.93.7 3.13 2.43 3.13 4.5 0 3.09-2.21 6-5.902 7.78-1.79.84-3.61 1.25-5.58 1.25zm-11.73-13.314c-1.047-.14-1.808-.28-2.71-.703-.143-.1-.334-.52-.334-.66-.095-1.45-.095-5.67-.095-8.43 0-2.25-.38-4.22-1.33-5.62-1.14-1.6-2.755-2.53-4.85-2.53-1.85 0-4.323 1.26-6.37 3-.045.04-.36.34-.352-.12.007-.46.08-1.4.12-1.99.045-.59-.31-.87-.31-.87-1.33.65-5.08 1.54-6.464 1.68-1.01.19-1.27 1.16-.19 1.49l.01.01c1.13.34 1.89.7 2.45 1.07.43.33.38.8.38 1.17.04 3.14.04 7.96-.1 10.59-.05 1.03-.34 1.4-1.1 1.59l.07-.02c-.57.14-1.05.23-1.76.33-.24.23-.24 1.59 0 1.87.47 0 2.9-.15 4.9-.15 2.75 0 4.18.14 4.89.14.28-.33.38-1.59.19-1.88-.81-.05-1.38-.14-1.95-.28-.76-.19-.95-.57-1-1.41-.1-2.2-.1-6.89-.1-10.08 0-.89.23-1.31.52-1.54.95-.85 2.52-1.41 3.9-1.41 1.33 0 2.23.42 2.9.98.9.74 1.23 1.82 1.33 2.62.19 1.78.14 5.34.14 8.43 0 1.68-.15 2.11-.76 2.29-.29.14-1.05.28-1.95.38-.29.28-.19 1.59 0 1.87 1.23 0 2.66-.14 4.75-.14 2.61 0 4.28.14 4.94.14.28-.33.38-1.55.19-1.87"/>
  </g>
</svg>
