<svg xmlns="http://www.w3.org/2000/svg" width="162" height="130" viewBox="0 0 162 130" xmlns:xlink="http://www.w3.org/1999/xlink">
  <defs>
    <path id="a" d="M72.67 36.548c0 20.067-16.268 36.333-36.334 36.333C16.27 72.88.004 56.62.004 36.55.004 16.474 16.27.208 36.336.208c20.066 0 36.334 16.266 36.334 36.34z"/>
  </defs>
  <g fill="none" fill-rule="evenodd">
    <g transform="translate(0 28)">
      <mask id="b" fill="#fff">
        <use xlink:href="#a"/>
      </mask>
      <g mask="url(#b)">
        <path fill="#B2B4B6" d="M73.62 36.48c0 20.33-16.48 36.813-36.81 36.813C16.48 73.293 0 56.81 0 36.48 0 16.14 16.48-.34 36.81-.34c20.33 0 36.81 16.482 36.81 36.82z"/>
        <path fill="#B2B4B7" d="M73.55 36.457c0 20.27-16.43 36.705-36.7 36.705C16.58 73.162.146 56.728.146 36.457.146 16.18 16.58-.253 36.85-.253s36.7 16.433 36.7 36.71z"/>
        <path fill="#B2B4B7" d="M73.48 36.435c0 20.21-16.382 36.597-36.593 36.597-20.21 0-36.592-16.386-36.592-36.597 0-20.217 16.383-36.6 36.592-36.6 20.21 0 36.594 16.383 36.594 36.6z"/>
        <path fill="#B3B5B8" d="M73.41 36.413c0 20.152-16.333 36.488-36.483 36.488S.442 56.57.442 36.42c0-20.162 16.334-36.5 36.485-36.5 20.15 0 36.484 16.336 36.484 36.493z"/>
        <path fill="#B4B6B8" d="M73.342 36.39c0 20.092-16.286 36.38-36.377 36.38C16.875 72.77.59 56.482.59 36.39.59 16.295 16.873.007 36.964.007c20.09 0 36.377 16.288 36.377 36.385z"/>
        <path fill="#B5B7B9" d="M73.272 36.37c0 20.03-16.238 36.27-36.268 36.27S.736 56.4.736 36.37C.736 16.332 16.973.092 37.004.092c20.03 0 36.268 16.24 36.268 36.276z"/>
        <path fill="#B6B8BA" d="M73.202 36.347c0 19.972-16.188 36.162-36.16 36.162-19.97 0-36.16-16.19-36.16-36.17C.882 16.37 17.072.18 37.042.18c19.973 0 36.16 16.19 36.16 36.167z"/>
        <path fill="#B7B9BB" d="M73.132 36.325c0 19.912-16.14 36.053-36.05 36.053-19.913 0-36.052-16.14-36.052-36.053C1.03 16.408 17.17.265 37.08.265c19.912 0 36.052 16.143 36.052 36.06z"/>
        <path fill="#B7B9BC" d="M73.063 36.303c0 19.852-16.092 35.945-35.943 35.945-19.852 0-35.943-16.093-35.943-35.945 0-19.857 16.09-35.95 35.943-35.95 19.85 0 35.943 16.093 35.943 35.95z"/>
        <path fill="#B7B9BC" d="M72.993 36.28c0 19.793-16.043 35.837-35.834 35.837-19.8 0-35.84-16.044-35.84-35.836C1.32 16.49 17.36.44 37.16.44c19.79 0 35.833 16.044 35.833 35.84z"/>
        <path fill="#B8BABC" d="M72.97 36.262c0 19.75-16.01 35.76-35.76 35.76-19.75 0-35.756-16.01-35.756-35.76C1.454 16.508 17.46.497 37.21.497s35.76 16.01 35.76 35.765z"/>
        <path fill="#B9BBBD" d="M72.944 36.243c0 19.707-15.975 35.68-35.682 35.68-19.706 0-35.68-15.973-35.68-35.68 0-19.712 15.974-35.69 35.68-35.69 19.707 0 35.682 15.978 35.682 35.69z"/>
        <path fill="#BABCBE" d="M72.92 36.223c0 19.665-15.94 35.606-35.605 35.606S1.71 55.88 1.71 36.22C1.71 16.55 17.65.61 37.315.61S72.92 16.55 72.92 36.22z"/>
        <path fill="#BBBDBF" d="M72.895 36.205c0 19.62-15.906 35.528-35.528 35.528S1.84 55.826 1.84 36.205C1.84 16.577 17.745.67 37.367.67s35.528 15.907 35.528 35.535z"/>
        <path fill="#BCBDC0" d="M72.87 36.185c0 19.58-15.87 35.453-35.45 35.453-19.58 0-35.45-15.873-35.45-35.453C1.97 16.6 17.84.727 37.42.727 57 .727 72.87 16.6 72.87 36.185z"/>
        <path fill="#BCBEC0" d="M72.846 36.166c0 19.537-15.838 35.375-35.374 35.375-19.538 0-35.374-15.83-35.374-35.37S17.934.79 37.472.79c19.536 0 35.374 15.836 35.374 35.38z"/>
        <path fill="#BDBFC1" d="M72.82 36.147c0 19.495-15.802 35.298-35.296 35.298-19.496 0-35.298-15.803-35.298-35.298 0-19.5 15.802-35.305 35.298-35.305 19.494 0 35.297 15.804 35.297 35.305z"/>
        <path fill="#BEC0C2" d="M72.796 36.127c0 19.454-15.77 35.223-35.22 35.223-19.453 0-35.22-15.77-35.22-35.223C2.356 16.67 18.123.9 37.576.9c19.45 0 35.22 15.77 35.22 35.227z"/>
        <path fill="#BFC1C3" d="M72.772 36.11c0 19.41-15.735 35.144-35.143 35.144-19.42 0-35.15-15.734-35.15-35.144C2.48 16.69 18.21.954 37.63.954c19.407 0 35.142 15.735 35.142 35.15z"/>
        <path fill="#C0C2C4" d="M72.747 36.09c0 19.367-15.7 35.067-35.066 35.067-19.36 0-35.06-15.7-35.06-35.068 0-19.38 15.7-35.08 35.07-35.08s35.07 15.7 35.07 35.07z"/>
        <path fill="#C1C2C4" d="M72.722 36.07c0 19.325-15.666 34.992-34.99 34.992-19.325 0-34.99-15.667-34.99-34.992 0-19.33 15.665-34.998 34.99-34.998 19.324 0 34.99 15.668 34.99 34.998z"/>
        <path fill="#C1C3C5" d="M72.698 36.05c0 19.284-15.63 34.916-34.913 34.916-19.284 0-34.913-15.632-34.913-34.915S18.502 1.13 37.785 1.13c19.282 0 34.913 15.637 34.913 34.92z"/>
        <path fill="#C2C4C6" d="M72.673 36.032c0 19.24-15.596 34.838-34.835 34.838C18.596 70.87 3 55.273 3 36.032 3 16.786 18.596 1.188 37.838 1.188c19.24 0 34.835 15.598 34.835 34.844z"/>
        <path fill="#C3C5C7" d="M72.648 36.012c0 19.2-15.562 34.762-34.758 34.762-19.2 0-34.76-15.563-34.76-34.762 0-19.202 15.56-34.767 34.76-34.767 19.196 0 34.758 15.565 34.758 34.767z"/>
        <path fill="#C4C6C8" d="M72.624 35.993c0 19.156-15.53 34.685-34.683 34.685S3.26 55.148 3.26 35.993c0-19.16 15.527-34.69 34.683-34.69 19.155 0 34.684 15.53 34.684 34.69z"/>
        <path fill="#C5C6C8" d="M72.6 35.974c0 19.114-15.495 34.608-34.606 34.608-19.114 0-34.607-15.494-34.607-34.608C3.387 16.856 18.88 1.36 37.994 1.36c19.11 0 34.605 15.496 34.605 34.614z"/>
        <path fill="#C5C7C9" d="M72.575 35.955c0 19.072-15.46 34.53-34.53 34.53s-34.53-15.458-34.53-34.53c0-19.076 15.46-34.537 34.53-34.537s34.53 15.46 34.53 34.537z"/>
        <path fill="#C6C8CA" d="M72.55 35.936c0 19.03-15.425 34.455-34.45 34.455-19.03 0-34.455-15.42-34.455-34.45S19.07 1.48 38.1 1.48c19.022 0 34.45 15.425 34.45 34.46z"/>
        <path fill="#C7C9CB" d="M72.526 35.917c0 18.986-15.39 34.378-34.376 34.378-18.986 0-34.377-15.392-34.377-34.378 0-18.992 15.39-34.383 34.377-34.383 18.985 0 34.376 15.39 34.376 34.383z"/>
        <path fill="#C8CACC" d="M72.502 35.898c0 18.944-15.358 34.3-34.3 34.3-18.944 0-34.3-15.356-34.3-34.3 0-18.95 15.356-34.307 34.3-34.307 18.942 0 34.3 15.36 34.3 34.31z"/>
        <path fill="#C9CBCC" d="M72.477 35.878c0 18.902-15.323 34.225-34.222 34.225-18.902 0-34.223-15.323-34.223-34.225 0-18.906 15.32-34.23 34.223-34.23 18.9 0 34.222 15.324 34.222 34.23z"/>
        <path fill="#CACBCD" d="M72.452 35.86c0 18.86-15.29 34.147-34.145 34.147-18.86 0-34.147-15.288-34.147-34.148C4.16 16.99 19.447 1.7 38.307 1.7c18.856 0 34.145 15.288 34.145 34.152z"/>
        <path fill="#CBCCCE" d="M72.428 35.84c0 18.817-15.255 34.07-34.07 34.07-18.816 0-34.07-15.253-34.07-34.07 0-18.822 15.254-34.076 34.07-34.076 18.815 0 34.07 15.254 34.07 34.076z"/>
        <path fill="#CBCDCF" d="M72.403 35.82c0 18.775-15.22 33.995-33.992 33.995S4.42 54.595 4.42 35.82c0-18.78 15.22-33.997 33.992-33.997 18.773 0 33.993 15.22 33.993 34z"/>
        <path fill="#CCCED0" d="M72.378 35.802c0 18.732-15.185 33.917-33.915 33.917-18.733 0-33.916-15.19-33.916-33.92 0-18.74 15.183-33.92 33.916-33.92 18.73 0 33.915 15.18 33.915 33.92z"/>
        <path fill="#CDCFD0" d="M72.354 35.783c0 18.69-15.15 33.84-33.838 33.84-18.69 0-33.84-15.15-33.84-33.84 0-18.695 15.15-33.846 33.84-33.846 18.687 0 33.838 15.15 33.838 33.846z"/>
        <path fill="#CECFD1" d="M72.33 35.764c0 18.647-15.118 33.763-33.762 33.763-18.648 0-33.763-15.116-33.763-33.763 0-18.653 15.115-33.77 33.763-33.77 18.644 0 33.76 15.117 33.76 33.77z"/>
        <path fill="#CFD0D2" d="M72.304 35.744c0 18.605-15.082 33.688-33.684 33.688-18.605 0-33.687-15.083-33.687-33.688 0-18.61 15.082-33.692 33.687-33.692 18.602 0 33.684 15.082 33.684 33.692z"/>
        <path fill="#D0D1D3" d="M72.28 35.725c0 18.563-15.05 33.61-33.608 33.61-18.563 0-33.61-15.047-33.61-33.61 0-18.567 15.047-33.615 33.61-33.615 18.56 0 33.608 15.048 33.608 33.615z"/>
        <path fill="#D0D2D3" d="M72.255 35.706c0 18.52-15.014 33.533-33.53 33.533-18.52 0-33.535-15.02-33.535-33.54 0-18.53 15.018-33.54 33.54-33.54 18.515 0 33.53 15.01 33.53 33.54z"/>
        <path fill="#D1D3D4" d="M72.23 35.687c0 18.478-14.98 33.457-33.453 33.457-18.478 0-33.457-14.98-33.457-33.457 0-18.483 14.98-33.462 33.457-33.462 18.474 0 33.453 14.98 33.453 33.462z"/>
        <path fill="#D2D3D5" d="M72.18 35.66c0 18.418-14.932 33.35-33.347 33.35-18.42 0-33.348-14.932-33.348-33.35 0-18.423 14.93-33.354 33.348-33.354 18.415 0 33.346 14.93 33.346 33.354z"/>
        <path fill="#D3D4D6" d="M72.128 35.633c0 18.36-14.883 33.242-33.238 33.242-18.36 0-33.24-14.883-33.24-33.242 0-18.364 14.88-33.246 33.24-33.246 18.355 0 33.238 14.882 33.238 33.246z"/>
        <path fill="#D4D5D7" d="M72.077 35.607c0 18.3-14.834 33.133-33.13 33.133-18.3 0-33.132-14.834-33.132-33.133 0-18.305 14.833-33.138 33.132-33.138 18.296 0 33.13 14.83 33.13 33.13z"/>
        <path fill="#D5D6D7" d="M72.025 35.58c0 18.24-14.786 33.026-33.02 33.026-18.24 0-33.026-14.787-33.026-33.027C5.98 17.33 20.76 2.55 39 2.55c18.235 0 33.02 14.783 33.02 33.03z"/>
        <path fill="#D5D7D8" d="M71.974 35.553c0 18.18-14.738 32.917-32.914 32.917-18.18 0-32.917-14.737-32.917-32.917C6.143 17.368 20.88 2.63 39.06 2.63c18.176 0 32.914 14.738 32.914 32.923z"/>
        <path fill="#D6D7D9" d="M71.923 35.526c0 18.12-14.69 32.81-32.806 32.81-18.12 0-32.81-14.69-32.81-32.81 0-18.125 14.69-32.814 32.81-32.814 18.117 0 32.806 14.69 32.806 32.814z"/>
        <path fill="#D7D8DA" d="M71.873 35.5c0 18.06-14.642 32.7-32.7 32.7-18.06 0-32.7-14.64-32.7-32.7 0-18.066 14.64-32.707 32.7-32.707 18.058 0 32.7 14.64 32.7 32.706z"/>
        <path fill="#D8D9DB" d="M71.82 35.473c0 18-14.59 32.593-32.59 32.593-18 0-32.592-14.592-32.592-32.593 0-18.006 14.59-32.6 32.592-32.6 18 0 32.59 14.594 32.59 32.6z"/>
        <path fill="#D8D9DB" d="M71.77 35.446c0 17.94-14.544 32.485-32.484 32.485S6.802 53.39 6.802 35.45c0-17.947 14.543-32.49 32.484-32.49 17.94 0 32.483 14.543 32.483 32.49z"/>
        <path fill="#D9DADB" d="M71.72 35.42c0 17.882-14.496 32.377-32.376 32.377-17.882 0-32.377-14.495-32.377-32.378 0-17.89 14.495-32.39 32.377-32.39 17.88 0 32.375 14.49 32.375 32.38z"/>
        <path fill="#D9DBDC" d="M71.668 35.392c0 17.823-14.447 32.27-32.268 32.27-17.822 0-32.268-14.447-32.268-32.27 0-17.827 14.446-32.275 32.268-32.275 17.82 0 32.268 14.448 32.268 32.275z"/>
        <path fill="#DADCDD" d="M71.616 35.365c0 17.764-14.398 32.162-32.16 32.162-17.762 0-32.16-14.398-32.16-32.162 0-17.767 14.398-32.167 32.16-32.167 17.762 0 32.16 14.4 32.16 32.167z"/>
        <path fill="#DBDCDE" d="M71.565 35.34c0 17.702-14.35 32.053-32.052 32.053-17.702 0-32.05-14.35-32.05-32.054 0-17.71 14.348-32.06 32.05-32.06 17.702 0 32.052 14.35 32.052 32.06z"/>
        <path fill="#DCDDDE" d="M71.514 35.312c0 17.644-14.302 31.946-31.944 31.946-17.643 0-31.944-14.302-31.944-31.946 0-17.648 14.3-31.952 31.944-31.952 17.642 0 31.944 14.304 31.944 31.952z"/>
        <path fill="#DDDEDF" d="M71.464 35.285c0 17.585-14.255 31.84-31.838 31.84S7.79 52.87 7.79 35.285c0-17.59 14.253-31.844 31.836-31.844S71.464 17.7 71.464 35.29z"/>
        <path fill="#DEDFE0" d="M71.412 35.258c0 17.525-14.205 31.73-31.728 31.73-17.525 0-31.73-14.205-31.73-31.73 0-17.53 14.205-31.735 31.73-31.735 17.523 0 31.728 14.206 31.728 31.735z"/>
        <path fill="#DEE0E1" d="M71.36 35.232c0 17.465-14.156 31.622-31.62 31.622S8.12 52.697 8.12 35.232c0-17.47 14.156-31.628 31.62-31.628s31.62 14.158 31.62 31.628z"/>
        <path fill="#DFE0E2" d="M71.31 35.205c0 17.406-14.11 31.515-31.513 31.515-17.405 0-31.512-14.11-31.512-31.515 0-17.41 14.107-31.52 31.512-31.52 17.404 0 31.513 14.11 31.513 31.52z"/>
        <path fill="#E0E1E2" d="M71.26 35.178c0 17.346-14.062 31.407-31.407 31.407S8.45 52.525 8.45 35.178c0-17.35 14.058-31.412 31.403-31.412S71.26 17.828 71.26 35.178z"/>
        <path fill="#E1E2E3" d="M71.192 35.138c0 17.25-13.982 31.232-31.23 31.232-17.25 0-31.23-13.983-31.23-31.232 0-17.254 13.98-31.237 31.23-31.237 17.248 0 31.23 13.99 31.23 31.24z"/>
        <path fill="#E2E3E4" d="M71.126 35.098c0 17.153-13.904 31.057-31.056 31.057S9.015 52.25 9.015 35.098c0-17.157 13.903-31.063 31.055-31.063S71.126 17.94 71.126 35.098z"/>
        <path fill="#E3E4E5" d="M71.06 35.058c0 17.056-13.828 30.882-30.883 30.882C23.123 65.94 9.3 52.114 9.3 35.058 9.3 17.998 23.122 4.17 40.176 4.17c17.055 0 30.882 13.827 30.882 30.888z"/>
        <path fill="#E3E4E5" d="M70.993 35.018c0 16.96-13.75 30.707-30.707 30.707-16.96 0-30.705-13.747-30.705-30.707 0-16.964 13.75-30.713 30.71-30.713S71 18.055 71 35.018z"/>
        <path fill="#E4E5E6" d="M70.926 34.977c0 16.864-13.67 30.533-30.532 30.533-16.86 0-30.53-13.67-30.53-30.533 0-16.866 13.67-30.537 30.53-30.537 16.863 0 30.532 13.67 30.532 30.537z"/>
        <path fill="#E5E6E7" d="M70.86 34.938c0 16.767-13.592 30.36-30.358 30.36-16.764 0-30.354-13.593-30.354-30.36 0-16.77 13.59-30.363 30.354-30.363 16.766 0 30.357 13.592 30.357 30.363z"/>
        <path fill="#E6E7E8" d="M70.792 34.898c0 16.67-13.512 30.184-30.182 30.184-16.668 0-30.18-13.514-30.18-30.184 0-16.674 13.512-30.188 30.18-30.188 16.67 0 30.182 13.514 30.182 30.188z"/>
        <path fill="#E7E8E9" d="M70.725 34.858c0 16.573-13.433 30.01-30.006 30.01S10.71 51.43 10.71 34.858c0-16.58 13.433-30.014 30.005-30.014s30.01 13.436 30.01 30.014z"/>
        <path fill="#E7E8E9" d="M70.658 34.818c0 16.477-13.355 29.834-29.83 29.834-16.476 0-29.832-13.357-29.832-29.834 0-16.48 13.356-29.838 29.83-29.838 16.477 0 29.832 13.357 29.832 29.838z"/>
        <path fill="#E8E8E9" d="M70.592 34.777c0 16.38-13.277 29.66-29.657 29.66-16.378 0-29.656-13.28-29.656-29.66 0-16.384 13.27-29.663 29.65-29.663s29.65 13.28 29.65 29.663z"/>
        <path fill="#E9E9EA" d="M70.525 34.737c0 16.284-13.198 29.486-29.482 29.486-16.28 0-29.48-13.202-29.48-29.486 0-16.287 13.2-29.488 29.48-29.488 16.284 0 29.482 13.2 29.482 29.48z"/>
        <path fill="#E9EAEB" d="M70.46 34.698c0 16.187-13.12 29.31-29.31 29.31-16.183 0-29.304-13.123-29.304-29.31 0-16.192 13.12-29.314 29.305-29.314 16.19 0 29.31 13.122 29.31 29.314z"/>
        <path fill="#EAEBEC" d="M70.392 34.658c0 16.09-13.042 29.135-29.132 29.135-16.088 0-29.132-13.045-29.132-29.135 0-16.095 13.044-29.14 29.132-29.14 16.09 0 29.132 13.045 29.132 29.14z"/>
        <path fill="#EBECED" d="M70.325 34.618c0 15.994-12.963 28.96-28.957 28.96-15.99 0-28.956-12.966-28.956-28.96 0-15.998 12.965-28.964 28.956-28.964 15.994 0 28.957 12.966 28.957 28.964z"/>
        <path fill="#ECEDED" d="M70.26 34.577c0 15.898-12.887 28.787-28.785 28.787-15.893 0-28.78-12.89-28.78-28.787 0-15.9 12.887-28.788 28.78-28.788 15.898 0 28.784 12.88 28.784 28.78z"/>
        <path fill="#EDEDEE" d="M70.192 34.537c0 15.8-12.807 28.612-28.608 28.612-15.797 0-28.606-12.82-28.606-28.62 0-15.81 12.81-28.62 28.606-28.62 15.8 0 28.608 12.81 28.608 28.61z"/>
        <path fill="#EEEEEF" d="M70.002 34.47c0 15.615-12.656 28.274-28.27 28.274-15.61 0-28.27-12.66-28.27-28.273S26.122 6.2 41.732 6.2c15.614 0 28.27 12.657 28.27 28.275z"/>
        <path fill="#EEEFF0" d="M69.81 34.405c0 15.427-12.503 27.934-27.93 27.934-15.425 0-27.93-12.51-27.93-27.94 0-15.43 12.505-27.94 27.93-27.94 15.427 0 27.93 12.5 27.93 27.94z"/>
        <path fill="#EFF0F0" d="M69.62 34.338c0 15.24-12.352 27.596-27.593 27.596-15.237 0-27.592-12.356-27.592-27.596 0-15.245 12.355-27.6 27.592-27.6 15.24 0 27.594 12.355 27.594 27.6z"/>
        <path fill="#F0F1F1" d="M69.43 34.272c0 15.053-12.2 27.258-27.255 27.258-15.05 0-27.254-12.205-27.254-27.258 0-15.058 12.21-27.262 27.26-27.262 15.06 0 27.26 12.204 27.26 27.262z"/>
        <path fill="#F1F1F2" d="M69.24 34.206c0 14.866-12.05 26.92-26.917 26.92-14.864 0-26.916-12.054-26.916-26.92 0-14.872 12.052-26.924 26.916-26.924 14.867 0 26.917 12.052 26.917 26.924z"/>
        <path fill="#F2F2F3" d="M69.05 34.14c0 14.68-11.9 26.58-26.58 26.58-14.676 0-26.578-11.9-26.578-26.58 0-14.685 11.902-26.587 26.58-26.587 14.68 0 26.577 11.902 26.577 26.586z"/>
        <path fill="#F3F3F3" d="M68.86 34.073c0 14.492-11.748 26.243-26.24 26.243-14.492 0-26.242-11.75-26.242-26.243 0-14.498 11.75-26.248 26.24-26.248 14.494 0 26.24 11.75 26.24 26.248z"/>
        <path fill="#F3F4F4" d="M68.668 34.006c0 14.306-11.595 25.906-25.9 25.906-14.306 0-25.904-11.6-25.904-25.906 0-14.31 11.598-25.91 25.903-25.91 14.306 0 25.9 11.6 25.9 25.91z"/>
        <path fill="#F3F4F4" d="M68.478 33.94c0 14.12-11.445 25.567-25.564 25.567-14.117 0-25.564-11.448-25.564-25.567 0-14.124 11.447-25.572 25.564-25.572 14.12 0 25.564 11.448 25.564 25.572z"/>
        <path fill="#F4F5F5" d="M68.287 33.874c0 13.932-11.292 25.228-25.225 25.228-13.93 0-25.226-11.296-25.226-25.228 0-13.938 11.295-25.234 25.226-25.234 13.933 0 25.225 11.296 25.225 25.234z"/>
        <path fill="#F5F6F6" d="M68.097 33.807c0 13.746-11.142 24.89-24.887 24.89-13.744 0-24.888-11.144-24.888-24.89 0-13.75 11.144-24.896 24.888-24.896 13.745 0 24.887 11.15 24.887 24.9z"/>
        <path fill="#F6F6F7" d="M67.86 33.712c0 13.48-10.927 24.412-24.408 24.412-13.48 0-24.41-10.93-24.41-24.412 0-13.486 10.93-24.417 24.41-24.417S67.86 20.225 67.86 33.712z"/>
        <path fill="#F7F7F8" d="M67.623 33.617c0 13.217-10.714 23.933-23.93 23.933S19.76 46.834 19.76 33.617c0-13.222 10.717-23.938 23.932-23.938 13.217 0 23.93 10.71 23.93 23.93z"/>
        <path fill="#F8F8F9" d="M67.386 33.522c0 12.953-10.5 23.454-23.452 23.454-12.952 0-23.453-10.5-23.453-23.454 0-12.958 10.51-23.46 23.46-23.46 12.96 0 23.45 10.502 23.45 23.46z"/>
        <path fill="#F9F9FA" d="M67.15 33.426c0 12.69-10.286 22.976-22.975 22.976-12.688 0-22.974-10.286-22.974-22.976 0-12.693 10.29-22.98 22.98-22.98 12.69 0 22.98 10.287 22.98 22.98z"/>
        <path fill="#FAFBFB" d="M66.912 33.33c0 12.427-10.072 22.498-22.496 22.498S21.92 45.758 21.92 33.33s10.072-22.5 22.496-22.5 22.496 10.07 22.496 22.5z"/>
        <path fill="#FAFBFB" d="M66.676 33.236c0 12.162-9.858 22.02-22.02 22.02-12.158 0-22.015-9.858-22.015-22.02 0-12.165 9.86-22.023 22.02-22.023s22.02 9.858 22.02 22.023z"/>
        <path fill="#FCFCFC" d="M66.352 33.164c0 11.913-9.657 21.57-21.57 21.57-11.91 0-21.567-9.657-21.567-21.57 0-11.918 9.656-21.575 21.567-21.575 11.913 0 21.57 9.65 21.57 21.57z"/>
        <path fill="#FDFDFD" d="M66.03 33.092c0 11.665-9.457 21.122-21.122 21.122-11.663 0-21.12-9.457-21.12-21.122 0-11.67 9.457-21.126 21.12-21.126 11.665 0 21.12 9.456 21.12 21.126z"/>
        <path fill="#FDFDFD" d="M65.706 33.02c0 11.417-9.255 20.673-20.67 20.673-11.418 0-20.673-9.256-20.673-20.673 0-11.422 9.255-20.678 20.672-20.678 11.416 0 20.67 9.256 20.67 20.678z"/>
        <path fill="#FFF" d="M65.382 32.947c0 11.17-9.053 20.226-20.222 20.226-11.168 0-20.223-9.057-20.223-20.226 0-11.173 9.055-20.228 20.223-20.228 11.17 0 20.222 9.05 20.222 20.22z"/>
      </g>
    </g>
    <path fill="#000" d="M145.86 77.1l-4.57-4.723c-.138-.11-.188-.335-.066-.51l3.487-5.87c.08-.166.09-.278.09-.336 0-.37-.3-.67-.67-.67h-2.55c-.26 0-.48.14-.61.35l-2.21 3.82c-.1.16-.32.19-.48.08l-3.57-3.66c-.05-.06-.08-.14-.08-.22 0-.09.04-.18.12-.25l.05-.04c2.02-1.17 4.32-2.9 4.32-5.93 0-3.49-2.5-5.83-6.23-5.83-3.65 0-6.43 2.45-6.43 6.1 0 1.61.67 3.21 2.06 4.9l.03.04c.06.07.08.16.07.25-.01.095-.06.178-.13.238-3.04 1.723-4.57 4.01-4.57 6.81 0 4.744 3.977 7.23 7.9 7.23 2.698 0 4.8-1.037 6.826-3.36l.04-.053c.12-.12.34-.12.48.02l2.45 2.54.06.065c.13.13.3.2.48.2h3.24c.376 0 .676-.3.676-.673 0-.17-.07-.34-.19-.46zm-12.94-20.306c1.535 0 2.358 1.06 2.358 2.35 0 1.51-1.348 2.385-2.973 3.294l-.082.035c-.13.072-.295.04-.392-.064 0-.01-.04-.04-.04-.04-.7-.78-1.53-2-1.53-2.9 0-1.51 1.08-2.69 2.67-2.69zm3.277 16.12l-.015.02c-1.176 1.402-2.474 2.34-4.357 2.34-2.238 0-3.986-1.61-3.986-3.66 0-1.817.77-2.893 3.07-4.28.16-.098.33-.076.45.034l4.79 5.023c.08.09.13.17.13.26v.01c0 .09-.03.17-.1.26zm-15.337 2.314l-.144.004c-3.67 0-5.53-1.95-5.53-5.778V58.16c0-.195.162-.354.36-.354h5.75c.375 0 .685-.31.685-.685v-2.51c0-.37-.31-.68-.68-.68h-5.73c-.2 0-.38-.16-.38-.37v-5.19c.02-.37-.27-.69-.65-.7h-.08l-2.94.23c-.36 0-.67.3-.67.69v5c0 .2-.16.36-.36.36h-3.61c-.37 0-.68.3-.68.68v2.53c.01.19.08.36.22.48.14.13.31.2.49.2h3.6c.2 0 .36.16.36.36v12.05c0 6.47 4.87 8.78 9.14 8.78 0 0 .51.01.9-.03s.68-.31.68-.68v-2.37c0-.375-.31-.68-.68-.68zm-16.463 2.04c-.233-.656-.297-1.382-.317-1.697-.012-.23-.022-1.18-.022-1.18V62.46c0-6.304-4.457-8.544-8.628-8.544-3.302 0-6.318.86-8.256 2.155-.163.11-.265.27-.304.44-.036.18 0 .35.1.5.01.02 1.536 2.08 1.536 2.08.215.3.637.37.937.15l.208-.14c1.52-.94 3.31-1.48 5.13-1.48 5.15 0 5 4.03 5 4.56 0 .27-.16.34-.35.33l-.79-.02c-4-.14-14.13 1.22-14.13 9.25 0 4.72 3.94 7.13 7.61 7.13 3.56 0 6.42-1.41 7.85-3.13l.02-.02c.02-.02.04-.03.08-.03.05 0 .09.04.09.09 0 .23 0 .73.05 1.16.04.39.09.68.15.9.06.19.18.38.36.47.09.046.19.075.29.077l2.86.004c.37 0 .67-.297.67-.657 0-.11-.09-.41-.09-.41zM99.96 67.92c-.58 4.118-2.608 6.5-6.355 7.113-2.637.433-5.024-.65-5.152-3.475-.142-3.102 3.46-5.707 10.113-5.42 0 0 .49.03.817.067.292.033.472.122.585.298.105.164.124.49-.007 1.417zm59.616 7.308l-.146.004c-3.67 0-5.53-1.95-5.53-5.778V58.16c0-.195.163-.354.358-.354h5.748c.38 0 .692-.31.692-.685v-2.51c0-.37-.31-.68-.692-.68h-5.728c-.21 0-.38-.16-.38-.37v-5.19c.02-.37-.275-.69-.655-.7h-.078l-2.94.23c-.363 0-.672.3-.672.69v5c0 .2-.16.36-.362.36h-3.6c-.38 0-.68.3-.68.68v2.53c.01.19.08.36.22.48.13.13.31.2.49.2h3.6c.2 0 .36.16.36.36v12.05c0 6.47 4.87 8.78 9.14 8.78 0 0 .51.01.9-.03s.67-.31.67-.68l.01-2.37c0-.37-.3-.68-.68-.68z"/>
    <path fill="#32A5DD" d="M2.975 52.344c0-1.555.22-2.648.643-3.62.703-1.45 1.498-2.845 2.378-4.182-.224.38-.36.815-.36 1.324 0 3.382 8.277 7.773 19.573 9.212 3.82.49 13.96 1.87 21.8 1.224 15.83-1.307 19.35-6.838 19.35-10.436 0-.983-.54-2.42-1.07-3.254.71.953 1.39 1.94 2.02 2.963 1.21 2.11 1.06 2.948 1.06 3.313 0 7.344-13.67 12.137-22.82 14.636C22.1 69.93 2.96 61.2 2.96 52.344zm7.484-10.292c0 3.31 4.82 8.606 18.78 8.606 8.27 0 14.96-1.603 20-3.282 8.08-2.687 12.09-5.972 11.94-8.418-.03-.38-.18-.998-.62-1.487-1.8-1.6-3.76-3.04-5.84-4.26 1.38.81 2.16 1.74 2.16 2.78 0 3.65-8.91 6.99-20.55 7.29-11.64.3-21.28-2.56-21.54-6.2-.09-1.2.78-2.39 2.43-3.44-1.26.78-2.46 1.63-3.61 2.55-3.24 2.69-3.17 5.53-3.17 5.88zm30.29 42.754c-7.09.253-19.56-2.188-27.42-5.397C7.01 76.82.75 71.79.08 67c.075 1.156.205 2.295.388 3.415 3.878 21.146 30.51 19.937 35.1 19.43 33.5-3.717 36.383-18.022 36.823-20.847.07-.59.13-1.18.18-1.78-.59 3.767-6.25 16.674-31.82 17.588zM15.28 89.63c-6.014-2.488-10.174-6.62-11.845-9.64 1.538 3.265 3.546 6.27 5.94 8.917 7.834 7.358 19.876 8.25 25.404 8.25 23.41 0 31.77-12.308 33.66-15.6.35-.66.68-1.335.99-2.02-3.71 7.634-22.93 22.995-54.16 10.09zm56.704-30.756c0-.587-.07-1.75-.345-2.948-.2-.81-.43-1.604-.67-2.39.43 1.478.36 2.512.36 2.91 0 1.803-2.24 12.826-24.25 14.83-1.91.17-15.89.387-28.05-2.688-8.08-2.048-16.2-6.002-17.74-11.494-.24-.857-.14-1.647.05-2.39-.61 2.198-1.03 4.484-1.22 6.83.14 5.784 5.16 12.526 14.36 15.428 10.5 3.308 16.95 3.415 32.23.012 25.5-5.686 25.26-16.856 25.26-18.1z"/>
    <path fill="#0096D7" d="M45.576 63.524c.62-.17 1.257-.35 1.914-.54-2.817-.604-5.81-.932-8.914-.932-5.89 0-11.382 1.173-16.015 3.2 6.65.923 14.55.584 23.02-1.728zM42.57 49.22c2.473-.542 4.7-1.187 6.674-1.844 1.08-.358 2.084-.728 3.018-1.105-2.773-.5-5.24-.82-6.905-.98-6.332-.57-15.757 1.23-18.202 1.73-.753.16-4.195.87-8.388 2.33.987.3 2.074.55 3.267.75 3.798-1.06 7.728-1.67 11.458-1.67 2.47 0 5.628.26 9.078.79zm.725 22.137c-2.31-.01-5.452-.106-8.994-.388-6.28.73-11.61 3.53-14.65 7.42 1.01.23 1.99.43 2.98.59 3.2-3.52 8.62-5.83 14.76-5.83 4.48 0 8.58 1.23 11.71 3.26 1.22-.31 2.38-.63 3.47-.96-2.49-1.92-5.67-3.35-9.25-4.1zm20.607-15.503c1.83-1.352 3.235-2.85 3.954-4.498-.88-.545-1.876-1.05-2.95-1.517-1.07 1.36-2.815 2.72-5.546 3.85 1.605.65 3.133 1.37 4.542 2.15zm-8.044 4.275c1.923-.79 3.786-1.66 5.46-2.61-1.74-.93-3.76-1.77-6.113-2.49-2.27.56-4.977 1-8.19 1.26-.956.08-1.944.12-2.953.15 2.247.43 4.396 1 6.434 1.68 1.97.65 3.747 1.31 5.362 1.99zm4.29 8.24c-1.62.65-3.47 1.24-5.582 1.73 1.534.92 2.914 1.97 4.108 3.12 1.72-.75 3.22-1.52 4.524-2.3-.92-.91-1.94-1.77-3.05-2.56zm-47.48-16.5c-2.84 1.39-5.623 3.12-7.853 5.23.34.43.723.86 1.152 1.27 2.44-2.16 5.516-4.09 8.923-5.66-.782-.27-1.524-.56-2.222-.85zm9.05 17.33c-.9-.2-1.797-.4-2.68-.62-.565-.15-1.128-.3-1.69-.46-2.947 2.03-5.282 4.5-6.8 7.24.93.46 1.922.89 2.97 1.26.88-1.57 2.047-3.01 3.49-4.28 1.357-1.2 2.945-2.25 4.71-3.15zM11.54 84.1c0-1.734.3-3.45.887-5.086-.98-.44-1.952-.93-2.893-1.47-.627 1.666-.96 3.413-.96 5.215 0 .35.015.71.042 1.05.964.72 1.98 1.36 3.03 1.94-.07-.55-.108-1.1-.108-1.66zm19.75-28.3c-2.567-.27-4.723-.554-6.083-.73-.884-.11-1.748-.24-2.59-.39-4.89 1.55-9.178 3.885-12.53 6.677.682.377 1.406.736 2.17 1.074 4.877-3.54 11.54-5.97 19.03-6.63zm-10.2 35.95c-1-.32-2.017-.666-3.047-1.047.824 1.76 2.085 3.372 3.69 4.77 1.334.368 2.658.66 3.936.89-1.95-1.265-3.52-2.836-4.58-4.614zm50.033-37.71c-.038-.126-.077-.25-.115-.37.028.1.054.194.075.29.014.025.028.05.04.08zM4.94 71.413c.9-2.32 2.375-4.484 4.314-6.42-.65-.335-1.274-.69-1.87-1.054-1.704 1.86-3.014 3.87-3.856 5.94.43.52.9 1.04 1.412 1.54zm60.387-5.843c.862.712 1.59 1.43 2.208 2.13.895-.84 1.61-1.67 2.18-2.46-.426-.73-.928-1.47-1.526-2.21-.77.844-1.71 1.703-2.87 2.536zM8.963 86.003c.314 1.32.81 2.6 1.46 3.825 1.29 1.074 2.675 1.995 4.112 2.783-1.046-1.4-1.847-2.91-2.356-4.49-1.18-.66-2.25-1.37-3.22-2.11zM51.27 94.67c1.708-.575 3.263-1.23 4.678-1.93.544-.764 1-1.567 1.356-2.4-1.182.59-2.444 1.145-3.784 1.64-.606.97-1.362 1.87-2.25 2.69zm3.25-11.88c.328.87.54 1.783.624 2.718 1.06-.398 2.054-.81 2.99-1.236-.12-.842-.337-1.66-.638-2.452-.937.347-1.926.672-2.977.97zm6.467-42.72c-1.668-.577-3.653-1.007-5.87-1.296-2.59 1.983-7.82 3.59-14.333 4.225 4.096.41 9.085 1.11 13.843 2.22 3.6-1.74 5.725-3.56 6.36-5.16zm-45.865-2c-1.63.686-3.1 1.39-4.35 2.09-.22.67-.286 1.217-.305 1.555 1.607-.827 3.52-1.675 5.658-2.496-.44-.37-.78-.76-1.003-1.15zM2.552 59.668c-.942 1.3-1.667 2.72-2.098 4.264.115.47.258.945.433 1.42.544-1.544 1.45-3.048 2.645-4.482-.362-.39-.69-.79-.98-1.202zm1.37 17.113c0-1.03.11-2.06.326-3.06-.526-.48-1.016-.99-1.463-1.5-.334 1.47-.424 2.96-.246 4.43.47.94 1.01 1.81 1.59 2.63-.14-.82-.22-1.65-.22-2.49zm9.152-30.25c3.83-1.74 8.534-3.13 14.08-3.7-1.9-.24-3.65-.58-5.198-1-3.637 1.01-7.053 2.21-10.03 3.6.324.37.705.74 1.148 1.11zM67.71 77.82c-.195-.544-.417-1.08-.674-1.607-1.167 1.065-2.56 2.115-4.22 3.1.254.667.46 1.353.607 2.05 1.75-1.172 3.156-2.37 4.287-3.543zm3.917-7.703c-.345.74-.79 1.548-1.36 2.394.15.53.25 1.04.314 1.54.6-1.02.99-1.96 1.26-2.77-.05-.36-.12-.74-.21-1.15zM71.655 56c-.083-.345-.17-.69-.264-1.03-.05-.12-.1-.24-.17-.358.16.904.12 1.54.12 1.834 0 .59-.24 2.17-1.33 4.097.51.583.95 1.186 1.31 1.812.7-1.794.68-3.1.68-3.48 0-.576-.07-1.704-.33-2.875zM19.57 86.394c0-1.6.38-3.135 1.08-4.555-.9-.25-1.783-.51-2.642-.78-.688 1.5-1.06 3.11-1.06 4.78 0 .75.074 1.49.22 2.21.9.28 1.8.52 2.697.73-.194-.78-.296-1.59-.296-2.41zm43.944-.002c-.093.522-.217 1.037-.37 1.543 2.968-2.634 4.584-5.124 5.294-6.362.027-.045.05-.093.075-.138-.008-.087-.018-.175-.028-.264-1.106 1.63-2.77 3.46-4.97 5.23zM56.84 35.538c1.452.592 2.777 1.324 3.944 2.216-.058-.09-.123-.18-.2-.265-1.17-1.06-2.406-2.03-3.707-2.92-.33-.21-.675-.4-1.037-.58.538.48.88.99 1 1.54zM5.974 44.584c-.102.156-.205.31-.306.468.053-.066.113-.134.173-.202.04-.092.09-.18.14-.266zM65.5 48.96c.97.51 1.856 1.053 2.634 1.636.168-.553.253-1.122.253-1.708 0-.36.147-1.182-1.016-3.237-.62-1.02-1.29-2.01-2.01-2.97l-.03-.03c.53.84 1.05 2.25 1.05 3.22 0 .94-.24 2.01-.87 3.1zm-57.464.354c-.456-.345-.852-.69-1.183-1.038-1.57 1.083-2.88 2.24-3.867 3.468-.007.193-.01.392-.01.6 0 .39.037.777.11 1.162 1.21-1.35 2.863-2.802 4.95-4.192zM3.454 80.022c.844 1.792 1.83 3.503 2.944 5.12-.603-.967-1.102-1.972-1.492-3.01-.598-.736-1.084-1.45-1.452-2.11zM1.332 54.78c-.227.814-.426 1.64-.6 2.478.094-.32.237-.673.428-1.05-.017-.497.06-.972.172-1.43zM.32 68.06c-.106-.354-.186-.705-.235-1.053.06.887.15 1.768.272 2.637-.06-.53-.07-1.058-.037-1.585z"/>
  </g>
</svg>
